<svg width="210" height="60" viewBox="0 0 210 60" fill="none" xmlns="http://www.w3.org/2000/svg">
<rect width="210" height="60" rx="10" fill="#0D3B66"/>
<path d="M45.4643 14H19.5357C17.5837 14 16 15.5357 16 17.4286V42.5714C16 44.4643 17.5837 46 19.5357 46H45.4643C47.4163 46 49 44.4643 49 42.5714V17.4286C49 15.5357 47.4163 14 45.4643 14ZM25.3549 39.1786C24.9498 39.8643 24.0438 40.0929 23.344 39.7C22.6368 39.3071 22.4011 38.4286 22.8063 37.75L23.8596 35.9857C25.0455 35.6357 26.0179 35.9071 26.7766 36.8L25.3549 39.1786ZM35.5864 35.3286H22.1875C21.3772 35.3286 20.7143 34.6857 20.7143 33.9C20.7143 33.1143 21.3772 32.4714 22.1875 32.4714H25.9442L30.7616 24.3857L29.2516 21.8571C28.8464 21.1714 29.0895 20.3 29.7893 19.9071C30.4964 19.5143 31.3951 19.75 31.8002 20.4286L32.4558 21.5286L33.1114 20.4286C33.5165 19.7429 34.4225 19.5143 35.1223 19.9071C35.8295 20.3 36.0652 21.1786 35.66 21.8571L29.34 32.4714H33.9143C35.4022 32.4714 36.2346 34.1643 35.5864 35.3286V35.3286ZM42.8125 35.3286H40.6763L42.1201 37.75C42.5252 38.4357 42.2821 39.3071 41.5824 39.7C40.8752 40.0929 39.9766 39.8571 39.5714 39.1786C37.148 35.1143 35.3359 32.0571 34.1205 30.0286C32.8904 27.9571 33.767 25.8857 34.6435 25.1857C35.6085 26.8071 37.0522 29.2357 38.9821 32.4714H42.8125C43.6228 32.4714 44.2857 33.1143 44.2857 33.9C44.2857 34.6929 43.6228 35.3286 42.8125 35.3286V35.3286Z" fill="white"/>
<path d="M70.73 41C70.37 41 70 40.93 69.62 40.79C69.24 40.65 68.92 40.46 68.66 40.22C68.4 39.98 68.27 39.7 68.27 39.38C68.27 39.32 68.28 39.22 68.3 39.08L74.09 20.21C74.23 19.77 74.54 19.44 75.02 19.22C75.52 19 76.05 18.89 76.61 18.89C77.19 18.89 77.72 19 78.2 19.22C78.68 19.44 78.99 19.77 79.13 20.21L84.92 39.08C84.96 39.22 84.98 39.32 84.98 39.38C84.98 39.68 84.84 39.96 84.56 40.22C84.3 40.46 83.98 40.65 83.6 40.79C83.22 40.93 82.85 41 82.49 41C82.17 41 81.89 40.95 81.65 40.85C81.43 40.73 81.28 40.52 81.2 40.22L80.06 36.23H73.16L72.05 40.22C71.97 40.52 71.81 40.73 71.57 40.85C71.33 40.95 71.05 41 70.73 41ZM74 33.17H79.22L76.61 23.96L74 33.17ZM88.6466 47.63C88.1066 47.63 87.6566 47.5 87.2966 47.24C86.9366 46.98 86.7566 46.7 86.7566 46.4V27.95C86.7566 27.59 86.9366 27.3 87.2966 27.08C87.6566 26.86 88.0966 26.75 88.6166 26.75C89.1366 26.75 89.5566 26.86 89.8766 27.08C90.2166 27.3 90.3866 27.59 90.3866 27.95V28.85C90.7266 28.27 91.2466 27.75 91.9466 27.29C92.6466 26.81 93.4766 26.57 94.4366 26.57C95.4366 26.57 96.3466 26.85 97.1666 27.41C97.9866 27.95 98.6266 28.68 99.0866 29.6C99.5666 30.52 99.8066 31.54 99.8066 32.66V35.12C99.8066 36.18 99.5666 37.18 99.0866 38.12C98.6066 39.06 97.9666 39.82 97.1666 40.4C96.3666 40.98 95.4966 41.27 94.5566 41.27C93.6766 41.27 92.8766 41.03 92.1566 40.55C91.4366 40.07 90.9266 39.52 90.6266 38.9V46.4C90.6266 46.7 90.4366 46.98 90.0566 47.24C89.6766 47.5 89.2066 47.63 88.6466 47.63ZM93.2966 37.88C93.7766 37.88 94.2066 37.75 94.5866 37.49C94.9866 37.21 95.3066 36.86 95.5466 36.44C95.8066 36.02 95.9366 35.58 95.9366 35.12V32.66C95.9366 32.2 95.8166 31.77 95.5766 31.37C95.3366 30.97 95.0066 30.64 94.5866 30.38C94.1866 30.1 93.7366 29.96 93.2366 29.96C92.7966 29.96 92.3766 30.07 91.9766 30.29C91.5966 30.51 91.2766 30.82 91.0166 31.22C90.7566 31.62 90.6266 32.1 90.6266 32.66V35.66C90.6266 35.86 90.7366 36.14 90.9566 36.5C91.1966 36.84 91.5166 37.16 91.9166 37.46C92.3166 37.74 92.7766 37.88 93.2966 37.88ZM104.203 47.63C103.663 47.63 103.213 47.5 102.853 47.24C102.493 46.98 102.313 46.7 102.313 46.4V27.95C102.313 27.59 102.493 27.3 102.853 27.08C103.213 26.86 103.653 26.75 104.173 26.75C104.693 26.75 105.113 26.86 105.433 27.08C105.773 27.3 105.943 27.59 105.943 27.95V28.85C106.283 28.27 106.803 27.75 107.503 27.29C108.203 26.81 109.033 26.57 109.993 26.57C110.993 26.57 111.903 26.85 112.723 27.41C113.543 27.95 114.183 28.68 114.643 29.6C115.123 30.52 115.363 31.54 115.363 32.66V35.12C115.363 36.18 115.123 37.18 114.643 38.12C114.163 39.06 113.523 39.82 112.723 40.4C111.923 40.98 111.053 41.27 110.113 41.27C109.233 41.27 108.433 41.03 107.713 40.55C106.993 40.07 106.483 39.52 106.183 38.9V46.4C106.183 46.7 105.993 46.98 105.613 47.24C105.233 47.5 104.763 47.63 104.203 47.63ZM108.853 37.88C109.333 37.88 109.763 37.75 110.143 37.49C110.543 37.21 110.863 36.86 111.103 36.44C111.363 36.02 111.493 35.58 111.493 35.12V32.66C111.493 32.2 111.373 31.77 111.133 31.37C110.893 30.97 110.563 30.64 110.143 30.38C109.743 30.1 109.293 29.96 108.793 29.96C108.353 29.96 107.933 30.07 107.533 30.29C107.153 30.51 106.833 30.82 106.573 31.22C106.313 31.62 106.183 32.1 106.183 32.66V35.66C106.183 35.86 106.293 36.14 106.513 36.5C106.753 36.84 107.073 37.16 107.473 37.46C107.873 37.74 108.333 37.88 108.853 37.88ZM129.996 41.27C128.696 41.27 127.516 41.08 126.456 40.7C125.416 40.32 124.586 39.85 123.966 39.29C123.366 38.71 123.066 38.13 123.066 37.55C123.066 37.27 123.136 36.97 123.276 36.65C123.436 36.31 123.646 36.03 123.906 35.81C124.166 35.57 124.456 35.45 124.776 35.45C125.096 35.45 125.396 35.57 125.676 35.81C125.956 36.03 126.276 36.3 126.636 36.62C126.996 36.92 127.436 37.19 127.956 37.43C128.476 37.65 129.116 37.76 129.876 37.76C130.476 37.76 131.026 37.67 131.526 37.49C132.046 37.29 132.456 37 132.756 36.62C133.076 36.24 133.236 35.75 133.236 35.15C133.236 34.51 133.066 33.97 132.726 33.53C132.386 33.09 131.926 32.71 131.346 32.39C130.766 32.07 130.136 31.76 129.456 31.46C128.776 31.16 128.086 30.84 127.386 30.5C126.706 30.16 126.076 29.75 125.496 29.27C124.936 28.79 124.476 28.2 124.116 27.5C123.776 26.8 123.606 25.94 123.606 24.92C123.606 23.8 123.816 22.86 124.236 22.1C124.676 21.34 125.246 20.73 125.946 20.27C126.666 19.79 127.456 19.45 128.316 19.25C129.176 19.03 130.036 18.92 130.896 18.92C131.356 18.92 131.896 18.96 132.516 19.04C133.156 19.1 133.786 19.22 134.406 19.4C135.046 19.58 135.566 19.83 135.966 20.15C136.386 20.45 136.596 20.84 136.596 21.32C136.596 21.56 136.536 21.84 136.416 22.16C136.316 22.48 136.146 22.77 135.906 23.03C135.686 23.27 135.396 23.39 135.036 23.39C134.716 23.39 134.396 23.3 134.076 23.12C133.776 22.92 133.376 22.73 132.876 22.55C132.396 22.35 131.736 22.25 130.896 22.25C130.196 22.25 129.586 22.35 129.066 22.55C128.546 22.73 128.156 22.99 127.896 23.33C127.636 23.65 127.506 24.06 127.506 24.56C127.506 25.08 127.676 25.52 128.016 25.88C128.376 26.24 128.836 26.56 129.396 26.84C129.976 27.12 130.606 27.4 131.286 27.68C131.966 27.96 132.646 28.29 133.326 28.67C134.026 29.03 134.666 29.47 135.246 29.99C135.826 30.51 136.286 31.16 136.626 31.94C136.966 32.7 137.136 33.64 137.136 34.76C137.136 36.18 136.826 37.38 136.206 38.36C135.586 39.32 134.736 40.05 133.656 40.55C132.596 41.03 131.376 41.27 129.996 41.27ZM145.01 41C143.21 41 141.83 40.61 140.87 39.83C139.93 39.05 139.46 37.82 139.46 36.14V21.59C139.46 21.23 139.67 20.94 140.09 20.72C140.51 20.5 140.94 20.39 141.38 20.39C141.86 20.39 142.3 20.5 142.7 20.72C143.12 20.94 143.33 21.23 143.33 21.59V26.75H146.87C147.19 26.75 147.43 26.9 147.59 27.2C147.77 27.48 147.86 27.8 147.86 28.16C147.86 28.52 147.77 28.85 147.59 29.15C147.43 29.43 147.19 29.57 146.87 29.57H143.33V36.14C143.33 36.72 143.45 37.13 143.69 37.37C143.95 37.61 144.39 37.73 145.01 37.73H146.18C146.74 37.73 147.15 37.9 147.41 38.24C147.69 38.58 147.83 38.95 147.83 39.35C147.83 39.77 147.69 40.15 147.41 40.49C147.15 40.83 146.74 41 146.18 41H145.01ZM155.596 41.27C154.436 41.27 153.366 40.99 152.386 40.43C151.406 39.85 150.616 39.09 150.016 38.15C149.416 37.21 149.116 36.2 149.116 35.12V32.66C149.116 31.58 149.406 30.58 149.986 29.66C150.566 28.72 151.346 27.97 152.326 27.41C153.326 26.85 154.416 26.57 155.596 26.57C156.776 26.57 157.856 26.85 158.836 27.41C159.836 27.95 160.626 28.68 161.206 29.6C161.806 30.52 162.106 31.54 162.106 32.66V35.12C162.106 36.18 161.806 37.18 161.206 38.12C160.606 39.06 159.806 39.82 158.806 40.4C157.826 40.98 156.756 41.27 155.596 41.27ZM155.596 37.88C156.076 37.88 156.516 37.75 156.916 37.49C157.316 37.23 157.636 36.89 157.876 36.47C158.116 36.03 158.236 35.58 158.236 35.12V32.66C158.236 32.2 158.116 31.77 157.876 31.37C157.636 30.97 157.316 30.64 156.916 30.38C156.536 30.1 156.096 29.96 155.596 29.96C155.116 29.96 154.676 30.09 154.276 30.35C153.876 30.61 153.556 30.95 153.316 31.37C153.096 31.77 152.986 32.2 152.986 32.66V35.12C152.986 35.58 153.096 36.03 153.316 36.47C153.556 36.89 153.876 37.23 154.276 37.49C154.676 37.75 155.116 37.88 155.596 37.88ZM166.458 41C165.918 41 165.468 40.87 165.108 40.61C164.748 40.35 164.568 40.07 164.568 39.77V27.95C164.568 27.59 164.748 27.3 165.108 27.08C165.468 26.86 165.918 26.75 166.458 26.75C166.958 26.75 167.368 26.86 167.688 27.08C168.028 27.3 168.198 27.59 168.198 27.95V29.18C168.418 28.74 168.708 28.33 169.068 27.95C169.448 27.55 169.878 27.22 170.358 26.96C170.838 26.7 171.348 26.57 171.888 26.57H172.818C173.198 26.57 173.528 26.74 173.808 27.08C174.088 27.4 174.228 27.79 174.228 28.25C174.228 28.73 174.088 29.14 173.808 29.48C173.528 29.8 173.198 29.96 172.818 29.96H171.888C171.328 29.96 170.778 30.15 170.238 30.53C169.718 30.89 169.288 31.4 168.948 32.06C168.608 32.7 168.438 33.48 168.438 34.4V39.77C168.438 40.07 168.248 40.35 167.868 40.61C167.488 40.87 167.018 41 166.458 41ZM182.216 41.27C180.796 41.27 179.536 41.02 178.436 40.52C177.356 40 176.506 39.28 175.886 38.36C175.266 37.42 174.956 36.34 174.956 35.12V32.57C174.956 31.49 175.246 30.5 175.826 29.6C176.426 28.68 177.216 27.95 178.196 27.41C179.196 26.85 180.306 26.57 181.526 26.57C182.646 26.57 183.666 26.81 184.586 27.29C185.526 27.77 186.286 28.43 186.866 29.27C187.446 30.11 187.736 31.09 187.736 32.21C187.736 33.07 187.596 33.69 187.316 34.07C187.036 34.43 186.676 34.66 186.236 34.76C185.816 34.84 185.376 34.88 184.916 34.88H178.826V35.33C178.826 36.19 179.146 36.89 179.786 37.43C180.446 37.95 181.296 38.21 182.336 38.21C182.996 38.21 183.546 38.11 183.986 37.91C184.426 37.71 184.806 37.52 185.126 37.34C185.446 37.16 185.746 37.07 186.026 37.07C186.326 37.07 186.586 37.17 186.806 37.37C187.026 37.57 187.196 37.81 187.316 38.09C187.436 38.35 187.496 38.58 187.496 38.78C187.496 39.12 187.276 39.49 186.836 39.89C186.416 40.27 185.806 40.6 185.006 40.88C184.226 41.14 183.296 41.27 182.216 41.27ZM178.826 32.6H183.206C183.546 32.6 183.776 32.55 183.896 32.45C184.036 32.33 184.106 32.11 184.106 31.79C184.106 31.33 183.986 30.92 183.746 30.56C183.506 30.2 183.186 29.92 182.786 29.72C182.386 29.52 181.946 29.42 181.466 29.42C181.006 29.42 180.576 29.52 180.176 29.72C179.776 29.9 179.446 30.17 179.186 30.53C178.946 30.87 178.826 31.28 178.826 31.76V32.6Z" fill="white"/>
</svg>
