<svg width="450" height="261" viewBox="0 0 450 261" fill="none" xmlns="http://www.w3.org/2000/svg">
<g clip-path="url(#clip0)">
<g filter="url(#filter0_b)">
<rect width="450" height="262" rx="30" fill="url(#paint0_linear)"/>
<rect x="0.5" y="0.5" width="449" height="261" rx="29.5" stroke="white" stroke-opacity="0.3" style="mix-blend-mode:overlay"/>
</g>
<path d="M23.988 137.36V135.202H28.876V154H26.484V137.36H23.988ZM36.4241 152.102C38.6255 150.334 40.3501 148.887 41.5981 147.76C42.8461 146.616 43.8948 145.429 44.7441 144.198C45.6108 142.95 46.0441 141.728 46.0441 140.532C46.0441 139.405 45.7668 138.521 45.2121 137.88C44.6748 137.221 43.7995 136.892 42.5861 136.892C41.4075 136.892 40.4888 137.265 39.8301 138.01C39.1888 138.738 38.8421 139.717 38.7901 140.948H36.5021C36.5715 139.007 37.1608 137.507 38.2701 136.45C39.3795 135.393 40.8095 134.864 42.5601 134.864C44.3455 134.864 45.7581 135.358 46.7981 136.346C47.8555 137.334 48.3841 138.695 48.3841 140.428C48.3841 141.867 47.9508 143.271 47.0841 144.64C46.2348 145.992 45.2641 147.188 44.1721 148.228C43.0801 149.251 41.6848 150.447 39.9861 151.816H48.9301V153.792H36.4241V152.102ZM55.3832 139.934C55.5045 138.339 56.1199 137.091 57.2292 136.19C58.3385 135.289 59.7772 134.838 61.5452 134.838C62.7239 134.838 63.7379 135.055 64.5872 135.488C65.4539 135.904 66.1039 136.476 66.5372 137.204C66.9879 137.932 67.2132 138.755 67.2132 139.674C67.2132 140.749 66.9012 141.676 66.2772 142.456C65.6705 143.236 64.8732 143.739 63.8852 143.964V144.094C65.0119 144.371 65.9045 144.917 66.5632 145.732C67.2219 146.547 67.5512 147.613 67.5512 148.93C67.5512 149.918 67.3259 150.811 66.8752 151.608C66.4245 152.388 65.7485 153.003 64.8472 153.454C63.9459 153.905 62.8625 154.13 61.5972 154.13C59.7599 154.13 58.2519 153.653 57.0732 152.7C55.8945 151.729 55.2359 150.36 55.0972 148.592H57.3852C57.5065 149.632 57.9312 150.481 58.6592 151.14C59.3872 151.799 60.3579 152.128 61.5712 152.128C62.7845 152.128 63.7032 151.816 64.3272 151.192C64.9685 150.551 65.2892 149.727 65.2892 148.722C65.2892 147.422 64.8559 146.486 63.9892 145.914C63.1225 145.342 61.8139 145.056 60.0632 145.056H59.4652V143.08H60.0892C61.6839 143.063 62.8885 142.803 63.7032 142.3C64.5179 141.78 64.9252 140.983 64.9252 139.908C64.9252 138.989 64.6219 138.253 64.0152 137.698C63.4259 137.143 62.5765 136.866 61.4672 136.866C60.3925 136.866 59.5259 137.143 58.8672 137.698C58.2085 138.253 57.8185 138.998 57.6972 139.934H55.3832ZM73.9438 149.814V148.02L83.0698 135.384H85.9038V147.76H88.5038V149.814H85.9038V154H83.5638V149.814H73.9438ZM83.6678 137.854L76.6738 147.76H83.6678V137.854ZM117.325 137.256H108.199V143.184C108.598 142.629 109.187 142.179 109.967 141.832C110.747 141.468 111.588 141.286 112.489 141.286C113.928 141.286 115.098 141.589 115.999 142.196C116.9 142.785 117.542 143.557 117.923 144.51C118.322 145.446 118.521 146.443 118.521 147.5C118.521 148.748 118.287 149.866 117.819 150.854C117.351 151.842 116.632 152.622 115.661 153.194C114.708 153.766 113.52 154.052 112.099 154.052C110.279 154.052 108.806 153.584 107.679 152.648C106.552 151.712 105.868 150.464 105.625 148.904H107.939C108.164 149.892 108.641 150.663 109.369 151.218C110.097 151.773 111.016 152.05 112.125 152.05C113.494 152.05 114.526 151.643 115.219 150.828C115.912 149.996 116.259 148.904 116.259 147.552C116.259 146.2 115.912 145.16 115.219 144.432C114.526 143.687 113.503 143.314 112.151 143.314C111.232 143.314 110.426 143.539 109.733 143.99C109.057 144.423 108.563 145.021 108.251 145.784H106.015V135.176H117.325V137.256ZM135.913 139.674C135.532 137.75 134.344 136.788 132.351 136.788C130.808 136.788 129.656 137.386 128.893 138.582C128.13 139.761 127.758 141.711 127.775 144.432C128.174 143.531 128.832 142.829 129.751 142.326C130.687 141.806 131.727 141.546 132.871 141.546C134.656 141.546 136.078 142.101 137.135 143.21C138.21 144.319 138.747 145.853 138.747 147.812C138.747 148.991 138.513 150.048 138.045 150.984C137.594 151.92 136.901 152.665 135.965 153.22C135.046 153.775 133.928 154.052 132.611 154.052C130.826 154.052 129.43 153.653 128.425 152.856C127.42 152.059 126.718 150.958 126.319 149.554C125.92 148.15 125.721 146.417 125.721 144.354C125.721 137.993 127.94 134.812 132.377 134.812C134.076 134.812 135.41 135.271 136.381 136.19C137.352 137.109 137.924 138.27 138.097 139.674H135.913ZM132.377 143.548C131.632 143.548 130.93 143.704 130.271 144.016C129.612 144.311 129.075 144.77 128.659 145.394C128.26 146.001 128.061 146.746 128.061 147.63C128.061 148.947 128.442 150.022 129.205 150.854C129.968 151.669 131.06 152.076 132.481 152.076C133.694 152.076 134.656 151.703 135.367 150.958C136.095 150.195 136.459 149.173 136.459 147.89C136.459 146.538 136.112 145.481 135.419 144.718C134.726 143.938 133.712 143.548 132.377 143.548ZM157.279 137.048L150.051 154H147.659L154.991 137.282H144.955V135.254H157.279V137.048ZM167.104 144.224C166.134 143.843 165.388 143.288 164.868 142.56C164.348 141.832 164.088 140.948 164.088 139.908C164.088 138.972 164.322 138.131 164.79 137.386C165.258 136.623 165.952 136.025 166.87 135.592C167.806 135.141 168.933 134.916 170.25 134.916C171.568 134.916 172.686 135.141 173.604 135.592C174.54 136.025 175.242 136.623 175.71 137.386C176.196 138.131 176.438 138.972 176.438 139.908C176.438 140.913 176.17 141.797 175.632 142.56C175.095 143.305 174.358 143.86 173.422 144.224C174.497 144.553 175.346 145.134 175.97 145.966C176.612 146.781 176.932 147.769 176.932 148.93C176.932 150.057 176.655 151.045 176.1 151.894C175.546 152.726 174.757 153.376 173.734 153.844C172.729 154.295 171.568 154.52 170.25 154.52C168.933 154.52 167.772 154.295 166.766 153.844C165.778 153.376 165.007 152.726 164.452 151.894C163.898 151.045 163.62 150.057 163.62 148.93C163.62 147.769 163.932 146.772 164.556 145.94C165.18 145.108 166.03 144.536 167.104 144.224ZM174.15 140.194C174.15 139.137 173.804 138.322 173.11 137.75C172.417 137.178 171.464 136.892 170.25 136.892C169.054 136.892 168.11 137.178 167.416 137.75C166.723 138.322 166.376 139.145 166.376 140.22C166.376 141.191 166.732 141.971 167.442 142.56C168.17 143.149 169.106 143.444 170.25 143.444C171.412 143.444 172.348 143.149 173.058 142.56C173.786 141.953 174.15 141.165 174.15 140.194ZM170.25 145.264C168.968 145.264 167.919 145.567 167.104 146.174C166.29 146.763 165.882 147.656 165.882 148.852C165.882 149.961 166.272 150.854 167.052 151.53C167.85 152.206 168.916 152.544 170.25 152.544C171.585 152.544 172.642 152.206 173.422 151.53C174.202 150.854 174.592 149.961 174.592 148.852C174.592 147.691 174.194 146.807 173.396 146.2C172.599 145.576 171.55 145.264 170.25 145.264ZM193.922 137.36V135.202H198.81V154H196.418V137.36H193.922ZM206.359 152.102C208.56 150.334 210.285 148.887 211.533 147.76C212.781 146.616 213.829 145.429 214.679 144.198C215.545 142.95 215.979 141.728 215.979 140.532C215.979 139.405 215.701 138.521 215.147 137.88C214.609 137.221 213.734 136.892 212.521 136.892C211.342 136.892 210.423 137.265 209.765 138.01C209.123 138.738 208.777 139.717 208.725 140.948H206.437C206.506 139.007 207.095 137.507 208.205 136.45C209.314 135.393 210.744 134.864 212.495 134.864C214.28 134.864 215.693 135.358 216.733 136.346C217.79 137.334 218.319 138.695 218.319 140.428C218.319 141.867 217.885 143.271 217.019 144.64C216.169 145.992 215.199 147.188 214.107 148.228C213.015 149.251 211.619 150.447 209.921 151.816H218.865V153.792H206.359V152.102ZM225.318 139.934C225.439 138.339 226.054 137.091 227.164 136.19C228.273 135.289 229.712 134.838 231.48 134.838C232.658 134.838 233.672 135.055 234.522 135.488C235.388 135.904 236.038 136.476 236.472 137.204C236.922 137.932 237.148 138.755 237.148 139.674C237.148 140.749 236.836 141.676 236.212 142.456C235.605 143.236 234.808 143.739 233.82 143.964V144.094C234.946 144.371 235.839 144.917 236.498 145.732C237.156 146.547 237.486 147.613 237.486 148.93C237.486 149.918 237.26 150.811 236.81 151.608C236.359 152.388 235.683 153.003 234.782 153.454C233.88 153.905 232.797 154.13 231.532 154.13C229.694 154.13 228.186 153.653 227.008 152.7C225.829 151.729 225.17 150.36 225.032 148.592H227.32C227.441 149.632 227.866 150.481 228.594 151.14C229.322 151.799 230.292 152.128 231.506 152.128C232.719 152.128 233.638 151.816 234.262 151.192C234.903 150.551 235.224 149.727 235.224 148.722C235.224 147.422 234.79 146.486 233.924 145.914C233.057 145.342 231.748 145.056 229.998 145.056H229.4V143.08H230.024C231.618 143.063 232.823 142.803 233.638 142.3C234.452 141.78 234.86 140.983 234.86 139.908C234.86 138.989 234.556 138.253 233.95 137.698C233.36 137.143 232.511 136.866 231.402 136.866C230.327 136.866 229.46 137.143 228.802 137.698C228.143 138.253 227.753 138.998 227.632 139.934H225.318ZM243.878 149.814V148.02L253.004 135.384H255.838V147.76H258.438V149.814H255.838V154H253.498V149.814H243.878ZM253.602 137.854L246.608 147.76H253.602V137.854ZM287.259 137.256H278.133V143.184C278.532 142.629 279.121 142.179 279.901 141.832C280.681 141.468 281.522 141.286 282.423 141.286C283.862 141.286 285.032 141.589 285.933 142.196C286.835 142.785 287.476 143.557 287.857 144.51C288.256 145.446 288.455 146.443 288.455 147.5C288.455 148.748 288.221 149.866 287.753 150.854C287.285 151.842 286.566 152.622 285.595 153.194C284.642 153.766 283.455 154.052 282.033 154.052C280.213 154.052 278.74 153.584 277.613 152.648C276.487 151.712 275.802 150.464 275.559 148.904H277.873C278.099 149.892 278.575 150.663 279.303 151.218C280.031 151.773 280.95 152.05 282.059 152.05C283.429 152.05 284.46 151.643 285.153 150.828C285.847 149.996 286.193 148.904 286.193 147.552C286.193 146.2 285.847 145.16 285.153 144.432C284.46 143.687 283.437 143.314 282.085 143.314C281.167 143.314 280.361 143.539 279.667 143.99C278.991 144.423 278.497 145.021 278.185 145.784H275.949V135.176H287.259V137.256ZM305.848 139.674C305.466 137.75 304.279 136.788 302.286 136.788C300.743 136.788 299.59 137.386 298.828 138.582C298.065 139.761 297.692 141.711 297.71 144.432C298.108 143.531 298.767 142.829 299.686 142.326C300.622 141.806 301.662 141.546 302.806 141.546C304.591 141.546 306.012 142.101 307.07 143.21C308.144 144.319 308.682 145.853 308.682 147.812C308.682 148.991 308.448 150.048 307.98 150.984C307.529 151.92 306.836 152.665 305.9 153.22C304.981 153.775 303.863 154.052 302.546 154.052C300.76 154.052 299.365 153.653 298.36 152.856C297.354 152.059 296.652 150.958 296.254 149.554C295.855 148.15 295.656 146.417 295.656 144.354C295.656 137.993 297.874 134.812 302.312 134.812C304.01 134.812 305.345 135.271 306.316 136.19C307.286 137.109 307.858 138.27 308.032 139.674H305.848ZM302.312 143.548C301.566 143.548 300.864 143.704 300.206 144.016C299.547 144.311 299.01 144.77 298.594 145.394C298.195 146.001 297.996 146.746 297.996 147.63C297.996 148.947 298.377 150.022 299.14 150.854C299.902 151.669 300.994 152.076 302.416 152.076C303.629 152.076 304.591 151.703 305.302 150.958C306.03 150.195 306.394 149.173 306.394 147.89C306.394 146.538 306.047 145.481 305.354 144.718C304.66 143.938 303.646 143.548 302.312 143.548ZM327.213 137.048L319.985 154H317.593L324.925 137.282H314.889V135.254H327.213V137.048ZM337.039 144.224C336.068 143.843 335.323 143.288 334.803 142.56C334.283 141.832 334.023 140.948 334.023 139.908C334.023 138.972 334.257 138.131 334.725 137.386C335.193 136.623 335.886 136.025 336.805 135.592C337.741 135.141 338.867 134.916 340.185 134.916C341.502 134.916 342.62 135.141 343.539 135.592C344.475 136.025 345.177 136.623 345.645 137.386C346.13 138.131 346.373 138.972 346.373 139.908C346.373 140.913 346.104 141.797 345.567 142.56C345.029 143.305 344.293 143.86 343.357 144.224C344.431 144.553 345.281 145.134 345.905 145.966C346.546 146.781 346.867 147.769 346.867 148.93C346.867 150.057 346.589 151.045 346.035 151.894C345.48 152.726 344.691 153.376 343.669 153.844C342.663 154.295 341.502 154.52 340.185 154.52C338.867 154.52 337.706 154.295 336.701 153.844C335.713 153.376 334.941 152.726 334.387 151.894C333.832 151.045 333.555 150.057 333.555 148.93C333.555 147.769 333.867 146.772 334.491 145.94C335.115 145.108 335.964 144.536 337.039 144.224ZM344.085 140.194C344.085 139.137 343.738 138.322 343.045 137.75C342.351 137.178 341.398 136.892 340.185 136.892C338.989 136.892 338.044 137.178 337.351 137.75C336.657 138.322 336.311 139.145 336.311 140.22C336.311 141.191 336.666 141.971 337.377 142.56C338.105 143.149 339.041 143.444 340.185 143.444C341.346 143.444 342.282 143.149 342.993 142.56C343.721 141.953 344.085 141.165 344.085 140.194ZM340.185 145.264C338.902 145.264 337.853 145.567 337.039 146.174C336.224 146.763 335.817 147.656 335.817 148.852C335.817 149.961 336.207 150.854 336.987 151.53C337.784 152.206 338.85 152.544 340.185 152.544C341.519 152.544 342.577 152.206 343.357 151.53C344.137 150.854 344.527 149.961 344.527 148.852C344.527 147.691 344.128 146.807 343.331 146.2C342.533 145.576 341.485 145.264 340.185 145.264Z" fill="white"/>
<path d="M31.802 189.21H26.33L25.322 192H23.594L28.13 179.526H30.02L34.538 192H32.81L31.802 189.21ZM31.334 187.878L29.066 181.542L26.798 187.878H31.334ZM46.5589 183.09C46.2109 182.358 45.7069 181.794 45.0469 181.398C44.3869 180.99 43.6189 180.786 42.7429 180.786C41.8669 180.786 41.0749 180.99 40.3669 181.398C39.6709 181.794 39.1189 182.37 38.7109 183.126C38.3149 183.87 38.1169 184.734 38.1169 185.718C38.1169 186.702 38.3149 187.566 38.7109 188.31C39.1189 189.054 39.6709 189.63 40.3669 190.038C41.0749 190.434 41.8669 190.632 42.7429 190.632C43.9669 190.632 44.9749 190.266 45.7669 189.534C46.5589 188.802 47.0209 187.812 47.1529 186.564H42.1489V185.232H48.8989V186.492C48.8029 187.524 48.4789 188.472 47.9269 189.336C47.3749 190.188 46.6489 190.866 45.7489 191.37C44.8489 191.862 43.8469 192.108 42.7429 192.108C41.5789 192.108 40.5169 191.838 39.5569 191.298C38.5969 190.746 37.8349 189.984 37.2709 189.012C36.7189 188.04 36.4429 186.942 36.4429 185.718C36.4429 184.494 36.7189 183.396 37.2709 182.424C37.8349 181.44 38.5969 180.678 39.5569 180.138C40.5169 179.586 41.5789 179.31 42.7429 179.31C44.0749 179.31 45.2509 179.64 46.2709 180.3C47.3029 180.96 48.0529 181.89 48.5209 183.09H46.5589ZM53.2067 179.454V187.392C53.2067 188.508 53.4767 189.336 54.0167 189.876C54.5687 190.416 55.3307 190.686 56.3027 190.686C57.2627 190.686 58.0127 190.416 58.5527 189.876C59.1047 189.336 59.3807 188.508 59.3807 187.392V179.454H61.0187V187.374C61.0187 188.418 60.8087 189.3 60.3887 190.02C59.9687 190.728 59.3987 191.256 58.6787 191.604C57.9707 191.952 57.1727 192.126 56.2847 192.126C55.3967 192.126 54.5927 191.952 53.8727 191.604C53.1647 191.256 52.6007 190.728 52.1807 190.02C51.7727 189.3 51.5687 188.418 51.5687 187.374V179.454H53.2067ZM68.2692 192.126C67.4412 192.126 66.6972 191.982 66.0372 191.694C65.3892 191.394 64.8792 190.986 64.5072 190.47C64.1352 189.942 63.9432 189.336 63.9312 188.652H65.6772C65.7372 189.24 65.9772 189.738 66.3972 190.146C66.8292 190.542 67.4532 190.74 68.2692 190.74C69.0492 190.74 69.6612 190.548 70.1052 190.164C70.5612 189.768 70.7892 189.264 70.7892 188.652C70.7892 188.172 70.6572 187.782 70.3932 187.482C70.1292 187.182 69.7992 186.954 69.4032 186.798C69.0072 186.642 68.4732 186.474 67.8012 186.294C66.9732 186.078 66.3072 185.862 65.8032 185.646C65.3112 185.43 64.8852 185.094 64.5252 184.638C64.1772 184.17 64.0032 183.546 64.0032 182.766C64.0032 182.082 64.1772 181.476 64.5252 180.948C64.8732 180.42 65.3592 180.012 65.9832 179.724C66.6192 179.436 67.3452 179.292 68.1612 179.292C69.3372 179.292 70.2972 179.586 71.0412 180.174C71.7972 180.762 72.2232 181.542 72.3192 182.514H70.5192C70.4592 182.034 70.2072 181.614 69.7632 181.254C69.3192 180.882 68.7312 180.696 67.9992 180.696C67.3152 180.696 66.7572 180.876 66.3252 181.236C65.8932 181.584 65.6772 182.076 65.6772 182.712C65.6772 183.168 65.8032 183.54 66.0552 183.828C66.3192 184.116 66.6372 184.338 67.0092 184.494C67.3932 184.638 67.9272 184.806 68.6112 184.998C69.4392 185.226 70.1052 185.454 70.6092 185.682C71.1132 185.898 71.5452 186.24 71.9052 186.708C72.2652 187.164 72.4452 187.788 72.4452 188.58C72.4452 189.192 72.2832 189.768 71.9592 190.308C71.6352 190.848 71.1552 191.286 70.5192 191.622C69.8832 191.958 69.1332 192.126 68.2692 192.126ZM83.1176 179.454V180.786H79.6976V192H78.0596V180.786H74.6216V179.454H83.1176ZM87.3119 179.454V192H85.6739V179.454H87.3119ZM100.508 192H98.8696L92.2816 182.01V192H90.6436V179.436H92.2816L98.8696 189.408V179.436H100.508V192ZM108.567 185.718C108.567 184.494 108.843 183.396 109.395 182.424C109.947 181.44 110.697 180.672 111.645 180.12C112.605 179.568 113.667 179.292 114.831 179.292C116.199 179.292 117.393 179.622 118.413 180.282C119.433 180.942 120.177 181.878 120.645 183.09H118.683C118.335 182.334 117.831 181.752 117.171 181.344C116.523 180.936 115.743 180.732 114.831 180.732C113.955 180.732 113.169 180.936 112.473 181.344C111.777 181.752 111.231 182.334 110.835 183.09C110.439 183.834 110.241 184.71 110.241 185.718C110.241 186.714 110.439 187.59 110.835 188.346C111.231 189.09 111.777 189.666 112.473 190.074C113.169 190.482 113.955 190.686 114.831 190.686C115.743 190.686 116.523 190.488 117.171 190.092C117.831 189.684 118.335 189.102 118.683 188.346H120.645C120.177 189.546 119.433 190.476 118.413 191.136C117.393 191.784 116.199 192.108 114.831 192.108C113.667 192.108 112.605 191.838 111.645 191.298C110.697 190.746 109.947 189.984 109.395 189.012C108.843 188.04 108.567 186.942 108.567 185.718ZM131.039 189.21H125.567L124.559 192H122.831L127.367 179.526H129.257L133.775 192H132.047L131.039 189.21ZM130.571 187.878L128.303 181.542L126.035 187.878H130.571ZM140.27 192.126C139.442 192.126 138.698 191.982 138.038 191.694C137.39 191.394 136.88 190.986 136.508 190.47C136.136 189.942 135.944 189.336 135.932 188.652H137.678C137.738 189.24 137.978 189.738 138.398 190.146C138.83 190.542 139.454 190.74 140.27 190.74C141.05 190.74 141.662 190.548 142.106 190.164C142.562 189.768 142.79 189.264 142.79 188.652C142.79 188.172 142.658 187.782 142.394 187.482C142.13 187.182 141.8 186.954 141.404 186.798C141.008 186.642 140.474 186.474 139.802 186.294C138.974 186.078 138.308 185.862 137.804 185.646C137.312 185.43 136.886 185.094 136.526 184.638C136.178 184.17 136.004 183.546 136.004 182.766C136.004 182.082 136.178 181.476 136.526 180.948C136.874 180.42 137.36 180.012 137.984 179.724C138.62 179.436 139.346 179.292 140.162 179.292C141.338 179.292 142.298 179.586 143.042 180.174C143.798 180.762 144.224 181.542 144.32 182.514H142.52C142.46 182.034 142.208 181.614 141.764 181.254C141.32 180.882 140.732 180.696 140 180.696C139.316 180.696 138.758 180.876 138.326 181.236C137.894 181.584 137.678 182.076 137.678 182.712C137.678 183.168 137.804 183.54 138.056 183.828C138.32 184.116 138.638 184.338 139.01 184.494C139.394 184.638 139.928 184.806 140.612 184.998C141.44 185.226 142.106 185.454 142.61 185.682C143.114 185.898 143.546 186.24 143.906 186.708C144.266 187.164 144.446 187.788 144.446 188.58C144.446 189.192 144.284 189.768 143.96 190.308C143.636 190.848 143.156 191.286 142.52 191.622C141.884 191.958 141.134 192.126 140.27 192.126ZM155.118 179.454V180.786H151.698V192H150.06V180.786H146.622V179.454H155.118ZM164.281 192L161.293 186.87H159.313V192H157.675V179.454H161.725C162.673 179.454 163.471 179.616 164.119 179.94C164.779 180.264 165.271 180.702 165.595 181.254C165.919 181.806 166.081 182.436 166.081 183.144C166.081 184.008 165.829 184.77 165.325 185.43C164.833 186.09 164.089 186.528 163.093 186.744L166.243 192H164.281ZM159.313 185.556H161.725C162.613 185.556 163.279 185.34 163.723 184.908C164.167 184.464 164.389 183.876 164.389 183.144C164.389 182.4 164.167 181.824 163.723 181.416C163.291 181.008 162.625 180.804 161.725 180.804H159.313V185.556ZM174.854 192.126C173.69 192.126 172.628 191.856 171.668 191.316C170.708 190.764 169.946 190.002 169.382 189.03C168.83 188.046 168.554 186.942 168.554 185.718C168.554 184.494 168.83 183.396 169.382 182.424C169.946 181.44 170.708 180.678 171.668 180.138C172.628 179.586 173.69 179.31 174.854 179.31C176.03 179.31 177.098 179.586 178.058 180.138C179.018 180.678 179.774 181.434 180.326 182.406C180.878 183.378 181.154 184.482 181.154 185.718C181.154 186.954 180.878 188.058 180.326 189.03C179.774 190.002 179.018 190.764 178.058 191.316C177.098 191.856 176.03 192.126 174.854 192.126ZM174.854 190.704C175.73 190.704 176.516 190.5 177.212 190.092C177.92 189.684 178.472 189.102 178.868 188.346C179.276 187.59 179.48 186.714 179.48 185.718C179.48 184.71 179.276 183.834 178.868 183.09C178.472 182.334 177.926 181.752 177.23 181.344C176.534 180.936 175.742 180.732 174.854 180.732C173.966 180.732 173.174 180.936 172.478 181.344C171.782 181.752 171.23 182.334 170.822 183.09C170.426 183.834 170.228 184.71 170.228 185.718C170.228 186.714 170.426 187.59 170.822 188.346C171.23 189.102 171.782 189.684 172.478 190.092C173.186 190.5 173.978 190.704 174.854 190.704Z" fill="white"/>
<path d="M43.5 23L23 33.7644V38.0702H64V33.7644L43.5 23ZM53.2105 42.3759V57.4461H59.6842V42.3759H53.2105ZM23 68.2105H64V61.7518H23V68.2105ZM40.2632 42.3759V57.4461H46.7368V42.3759H40.2632ZM27.3158 42.3759V57.4461H33.7895V42.3759H27.3158Z" fill="white" fill-opacity="0.6"/>
<path d="M85.086 56.234C84.2713 56.234 83.5347 56.026 82.876 55.61C82.2173 55.194 81.7493 54.7173 81.472 54.18V54.934C81.472 55.194 81.3247 55.4367 81.03 55.662C80.7527 55.8873 80.3973 56 79.964 56C79.496 56 79.106 55.8873 78.794 55.662C78.482 55.4367 78.326 55.194 78.326 54.934V37.488C78.326 37.176 78.482 36.9247 78.794 36.734C79.106 36.5433 79.496 36.448 79.964 36.448C80.4493 36.448 80.8567 36.5433 81.186 36.734C81.5153 36.9247 81.68 37.176 81.68 37.488V45.47C81.9573 44.9673 82.382 44.5167 82.954 44.118C83.526 43.702 84.2107 43.494 85.008 43.494C85.8573 43.494 86.6287 43.7367 87.322 44.222C88.0327 44.69 88.596 45.3227 89.012 46.12C89.428 46.9173 89.636 47.8013 89.636 48.772V50.904C89.636 51.8227 89.428 52.6893 89.012 53.504C88.596 54.3187 88.0413 54.9773 87.348 55.48C86.6547 55.9827 85.9007 56.234 85.086 56.234ZM84.02 53.296C84.436 53.296 84.8173 53.1833 85.164 52.958C85.5107 52.7153 85.7793 52.412 85.97 52.048C86.178 51.684 86.282 51.3027 86.282 50.904V48.772C86.282 48.3733 86.178 48.0007 85.97 47.654C85.7793 47.3073 85.5107 47.0213 85.164 46.796C84.8173 46.5533 84.4273 46.432 83.994 46.432C83.63 46.432 83.266 46.5273 82.902 46.718C82.5553 46.9087 82.2607 47.1773 82.018 47.524C81.7927 47.8707 81.68 48.2867 81.68 48.772V51.372C81.68 51.5453 81.784 51.788 81.992 52.1C82.2 52.3947 82.4773 52.672 82.824 52.932C83.188 53.1747 83.5867 53.296 84.02 53.296ZM94.4344 56.234C93.5158 56.234 92.7184 55.9567 92.0424 55.402C91.3838 54.83 91.0544 53.9547 91.0544 52.776C91.0544 51.788 91.3058 51.0167 91.8084 50.462C92.3284 49.9073 93.0391 49.5173 93.9404 49.292C94.8591 49.0667 95.9164 48.954 97.1124 48.954H98.1784V48.616C98.1784 48.2347 98.1004 47.862 97.9444 47.498C97.8058 47.134 97.5718 46.8307 97.2424 46.588C96.9304 46.3453 96.4798 46.224 95.8904 46.224C95.2318 46.224 94.7204 46.2933 94.3564 46.432C94.0098 46.5533 93.7411 46.6833 93.5504 46.822C93.3598 46.9607 93.1518 47.03 92.9264 47.03C92.5624 47.03 92.2764 46.848 92.0684 46.484C91.8778 46.12 91.7824 45.7473 91.7824 45.366C91.7824 45.002 91.9991 44.6813 92.4324 44.404C92.8831 44.1093 93.4291 43.884 94.0704 43.728C94.7118 43.572 95.3358 43.494 95.9424 43.494C97.2944 43.494 98.3778 43.7367 99.1924 44.222C100.007 44.7073 100.596 45.3313 100.96 46.094C101.342 46.8567 101.532 47.68 101.532 48.564V54.934C101.532 55.2287 101.376 55.48 101.064 55.688C100.752 55.896 100.362 56 99.8944 56C99.4611 56 99.0971 55.896 98.8024 55.688C98.5251 55.48 98.3864 55.2287 98.3864 54.934V54.18C97.9184 54.7173 97.3638 55.194 96.7224 55.61C96.0984 56.026 95.3358 56.234 94.4344 56.234ZM95.7864 53.738C96.1504 53.738 96.5144 53.6167 96.8784 53.374C97.2424 53.1313 97.5458 52.8193 97.7884 52.438C98.0484 52.0567 98.1784 51.658 98.1784 51.242V50.696H97.7884C97.2164 50.696 96.6704 50.7307 96.1504 50.8C95.6304 50.8693 95.2058 51.0253 94.8764 51.268C94.5644 51.4933 94.4084 51.8487 94.4084 52.334C94.4084 52.8193 94.5384 53.1747 94.7984 53.4C95.0758 53.6253 95.4051 53.738 95.7864 53.738ZM105.685 56C105.199 56 104.801 55.8873 104.489 55.662C104.177 55.4367 104.021 55.194 104.021 54.934V44.69C104.021 44.378 104.177 44.1267 104.489 43.936C104.801 43.7453 105.199 43.65 105.685 43.65C106.101 43.65 106.447 43.7453 106.725 43.936C107.019 44.1267 107.167 44.378 107.167 44.69V45.47C107.427 44.9673 107.851 44.5167 108.441 44.118C109.047 43.702 109.784 43.494 110.651 43.494C111.465 43.494 112.211 43.7367 112.887 44.222C113.563 44.69 114.1 45.3227 114.499 46.12C114.915 46.9173 115.123 47.8013 115.123 48.772V54.934C115.123 55.2807 114.949 55.5493 114.603 55.74C114.256 55.9133 113.866 56 113.433 56C113.051 56 112.679 55.9133 112.315 55.74C111.951 55.5493 111.769 55.2807 111.769 54.934V48.772C111.769 48.3733 111.665 48.0007 111.457 47.654C111.266 47.3073 110.997 47.0213 110.651 46.796C110.304 46.5533 109.923 46.432 109.507 46.432C109.16 46.432 108.822 46.5273 108.493 46.718C108.163 46.9087 107.895 47.1773 107.687 47.524C107.479 47.8707 107.375 48.2867 107.375 48.772V54.934C107.375 55.194 107.21 55.4367 106.881 55.662C106.551 55.8873 106.153 56 105.685 56ZM119.294 56C118.826 56 118.436 55.8873 118.124 55.662C117.812 55.4367 117.656 55.194 117.656 54.934V37.488C117.656 37.176 117.812 36.9247 118.124 36.734C118.436 36.5433 118.826 36.448 119.294 36.448C119.779 36.448 120.187 36.5433 120.516 36.734C120.845 36.9247 121.01 37.176 121.01 37.488V48.382L125.924 43.78C126.097 43.6067 126.314 43.52 126.574 43.52C126.834 43.52 127.085 43.6067 127.328 43.78C127.588 43.936 127.796 44.1353 127.952 44.378C128.125 44.6207 128.212 44.872 128.212 45.132C128.212 45.236 128.186 45.3487 128.134 45.47C128.099 45.574 128.03 45.6693 127.926 45.756L124.858 48.538L128.706 53.998C128.827 54.1887 128.888 54.3707 128.888 54.544C128.888 54.804 128.784 55.064 128.576 55.324C128.368 55.584 128.117 55.8007 127.822 55.974C127.527 56.13 127.241 56.208 126.964 56.208C126.617 56.208 126.34 56.0607 126.132 55.766L122.648 50.592L121.01 52.074V54.934C121.01 55.194 120.845 55.4367 120.516 55.662C120.187 55.8873 119.779 56 119.294 56ZM136.822 56C136.32 56 135.852 55.896 135.418 55.688C135.002 55.48 134.794 55.168 134.794 54.752V48.226C134.794 48.0873 134.76 47.966 134.69 47.862L129.308 38.944C129.291 38.892 129.274 38.84 129.256 38.788C129.256 38.736 129.256 38.6927 129.256 38.658C129.256 38.3287 129.404 38.0427 129.698 37.8C130.01 37.5573 130.383 37.3667 130.816 37.228C131.25 37.072 131.648 36.994 132.012 36.994C132.342 36.994 132.584 37.0633 132.74 37.202C132.896 37.3233 133.044 37.5053 133.182 37.748L136.822 44.43L140.436 37.748C140.575 37.5053 140.722 37.3233 140.878 37.202C141.034 37.0633 141.277 36.994 141.606 36.994C141.988 36.994 142.386 37.072 142.802 37.228C143.236 37.3667 143.6 37.5573 143.894 37.8C144.206 38.0427 144.362 38.3287 144.362 38.658C144.362 38.6927 144.362 38.736 144.362 38.788C144.362 38.84 144.345 38.892 144.31 38.944L138.954 47.862C138.885 47.966 138.85 48.0873 138.85 48.226V54.752C138.85 55.168 138.634 55.48 138.2 55.688C137.784 55.896 137.325 56 136.822 56ZM148.401 56.26C147.344 56.26 146.364 56.0087 145.463 55.506C144.579 54.986 143.86 54.31 143.305 53.478C142.768 52.6287 142.499 51.7187 142.499 50.748V48.928C142.499 47.9573 142.759 47.056 143.279 46.224C143.816 45.392 144.536 44.7247 145.437 44.222C146.338 43.7193 147.326 43.468 148.401 43.468C149.458 43.468 150.438 43.7193 151.339 44.222C152.24 44.7073 152.96 45.366 153.497 46.198C154.052 47.0127 154.329 47.9227 154.329 48.928V50.748C154.329 51.7013 154.052 52.6027 153.497 53.452C152.96 54.284 152.24 54.96 151.339 55.48C150.438 56 149.458 56.26 148.401 56.26ZM148.401 52.75C148.748 52.75 149.06 52.6547 149.337 52.464C149.632 52.2733 149.866 52.0307 150.039 51.736C150.212 51.424 150.299 51.0947 150.299 50.748V48.928C150.299 48.5987 150.212 48.2867 150.039 47.992C149.866 47.6973 149.632 47.4547 149.337 47.264C149.06 47.0733 148.748 46.978 148.401 46.978C148.054 46.978 147.734 47.0733 147.439 47.264C147.162 47.4547 146.936 47.6973 146.763 47.992C146.607 48.2867 146.529 48.5987 146.529 48.928V50.748C146.529 51.0947 146.607 51.424 146.763 51.736C146.936 52.0307 147.162 52.2733 147.439 52.464C147.734 52.6547 148.054 52.75 148.401 52.75ZM161.993 56.26C160.919 56.26 159.931 56.0087 159.029 55.506C158.128 54.986 157.409 54.31 156.871 53.478C156.334 52.646 156.065 51.7533 156.065 50.8V44.872C156.065 44.56 156.265 44.274 156.663 44.014C157.062 43.754 157.539 43.624 158.093 43.624C158.631 43.624 159.099 43.754 159.497 44.014C159.896 44.274 160.095 44.56 160.095 44.872V50.8C160.095 51.1293 160.182 51.4413 160.355 51.736C160.529 52.0307 160.754 52.2733 161.031 52.464C161.326 52.6547 161.647 52.75 161.993 52.75C162.34 52.75 162.652 52.6547 162.929 52.464C163.224 52.2733 163.449 52.0307 163.605 51.736C163.779 51.4413 163.865 51.1293 163.865 50.8V44.846C163.865 44.5167 164.065 44.2307 164.463 43.988C164.879 43.7453 165.356 43.624 165.893 43.624C166.483 43.624 166.959 43.7453 167.323 43.988C167.705 44.2307 167.895 44.5167 167.895 44.846V50.8C167.895 51.7707 167.627 52.672 167.089 53.504C166.552 54.336 165.833 55.0033 164.931 55.506C164.047 56.0087 163.068 56.26 161.993 56.26Z" fill="white" fill-opacity="0.6"/>
<g filter="url(#filter1_b)">
<circle cx="408.5" cy="223.5" r="19.5" fill="url(#paint1_linear)" fill-opacity="0.8"/>
</g>
<g filter="url(#filter2_b)">
<circle cx="384.5" cy="223.5" r="19.5" fill="url(#paint2_linear)" fill-opacity="0.8"/>
</g>
</g>
<defs>
<filter id="filter0_b" x="-12" y="-12" width="474" height="286" filterUnits="userSpaceOnUse" color-interpolation-filters="sRGB">
<feFlood flood-opacity="0" result="BackgroundImageFix"/>
<feGaussianBlur in="BackgroundImage" stdDeviation="6"/>
<feComposite in2="SourceAlpha" operator="in" result="effect1_backgroundBlur"/>
<feBlend mode="normal" in="SourceGraphic" in2="effect1_backgroundBlur" result="shape"/>
</filter>
<filter id="filter1_b" x="377" y="192" width="63" height="63" filterUnits="userSpaceOnUse" color-interpolation-filters="sRGB">
<feFlood flood-opacity="0" result="BackgroundImageFix"/>
<feGaussianBlur in="BackgroundImage" stdDeviation="6"/>
<feComposite in2="SourceAlpha" operator="in" result="effect1_backgroundBlur"/>
<feBlend mode="normal" in="SourceGraphic" in2="effect1_backgroundBlur" result="shape"/>
</filter>
<filter id="filter2_b" x="353" y="192" width="63" height="63" filterUnits="userSpaceOnUse" color-interpolation-filters="sRGB">
<feFlood flood-opacity="0" result="BackgroundImageFix"/>
<feGaussianBlur in="BackgroundImage" stdDeviation="6"/>
<feComposite in2="SourceAlpha" operator="in" result="effect1_backgroundBlur"/>
<feBlend mode="normal" in="SourceGraphic" in2="effect1_backgroundBlur" result="shape"/>
</filter>
<linearGradient id="paint0_linear" x1="0" y1="0" x2="423.43" y2="299.557" gradientUnits="userSpaceOnUse">
<stop stop-color="#3E7CB7"/>
<stop offset="1" stop-color="#0D3B66"/>
</linearGradient>
<linearGradient id="paint1_linear" x1="393" y1="204" x2="425" y2="243" gradientUnits="userSpaceOnUse">
<stop stop-color="white" stop-opacity="0.7"/>
<stop offset="1" stop-color="white" stop-opacity="0.1"/>
</linearGradient>
<linearGradient id="paint2_linear" x1="369" y1="204" x2="401" y2="243" gradientUnits="userSpaceOnUse">
<stop stop-color="white" stop-opacity="0.7"/>
<stop offset="1" stop-color="white" stop-opacity="0.1"/>
</linearGradient>
<clipPath id="clip0">
<rect width="450" height="261" rx="30" fill="white"/>
</clipPath>
</defs>
</svg>
