<svg width="530" height="365" viewBox="0 0 530 365" fill="none" xmlns="http://www.w3.org/2000/svg">
<g filter="url(#filter0_f)">
<ellipse cx="265" cy="313.139" rx="225" ry="11.8613" fill="#1C1A1A" fill-opacity="0.5" style="mix-blend-mode:overlay"/>
</g>
<g clip-path="url(#clip0)">
<g filter="url(#filter1_b)">
<rect x="40" y="51" width="450" height="262" rx="30" fill="url(#paint0_linear)"/>
<rect x="40.5" y="51.5" width="449" height="261" rx="29.5" stroke="white" stroke-opacity="0.3" style="mix-blend-mode:overlay"/>
</g>
<path d="M63.988 188.36V186.202H68.876V205H66.484V188.36H63.988ZM76.4241 203.102C78.6255 201.334 80.3501 199.887 81.5981 198.76C82.8461 197.616 83.8948 196.429 84.7441 195.198C85.6108 193.95 86.0441 192.728 86.0441 191.532C86.0441 190.405 85.7668 189.521 85.2121 188.88C84.6748 188.221 83.7995 187.892 82.5861 187.892C81.4075 187.892 80.4888 188.265 79.8301 189.01C79.1888 189.738 78.8421 190.717 78.7901 191.948H76.5021C76.5715 190.007 77.1608 188.507 78.2701 187.45C79.3795 186.393 80.8095 185.864 82.5601 185.864C84.3455 185.864 85.7581 186.358 86.7981 187.346C87.8555 188.334 88.3841 189.695 88.3841 191.428C88.3841 192.867 87.9508 194.271 87.0841 195.64C86.2348 196.992 85.2641 198.188 84.1721 199.228C83.0801 200.251 81.6848 201.447 79.9861 202.816H88.9301V204.792H76.4241V203.102ZM95.3832 190.934C95.5045 189.339 96.1199 188.091 97.2292 187.19C98.3385 186.289 99.7772 185.838 101.545 185.838C102.724 185.838 103.738 186.055 104.587 186.488C105.454 186.904 106.104 187.476 106.537 188.204C106.988 188.932 107.213 189.755 107.213 190.674C107.213 191.749 106.901 192.676 106.277 193.456C105.671 194.236 104.873 194.739 103.885 194.964V195.094C105.012 195.371 105.905 195.917 106.563 196.732C107.222 197.547 107.551 198.613 107.551 199.93C107.551 200.918 107.326 201.811 106.875 202.608C106.425 203.388 105.749 204.003 104.847 204.454C103.946 204.905 102.863 205.13 101.597 205.13C99.7599 205.13 98.2519 204.653 97.0732 203.7C95.8945 202.729 95.2359 201.36 95.0972 199.592H97.3852C97.5065 200.632 97.9312 201.481 98.6592 202.14C99.3872 202.799 100.358 203.128 101.571 203.128C102.785 203.128 103.703 202.816 104.327 202.192C104.969 201.551 105.289 200.727 105.289 199.722C105.289 198.422 104.856 197.486 103.989 196.914C103.123 196.342 101.814 196.056 100.063 196.056H99.4652V194.08H100.089C101.684 194.063 102.889 193.803 103.703 193.3C104.518 192.78 104.925 191.983 104.925 190.908C104.925 189.989 104.622 189.253 104.015 188.698C103.426 188.143 102.577 187.866 101.467 187.866C100.393 187.866 99.5259 188.143 98.8672 188.698C98.2085 189.253 97.8185 189.998 97.6972 190.934H95.3832ZM113.944 200.814V199.02L123.07 186.384H125.904V198.76H128.504V200.814H125.904V205H123.564V200.814H113.944ZM123.668 188.854L116.674 198.76H123.668V188.854ZM157.325 188.256H148.199V194.184C148.598 193.629 149.187 193.179 149.967 192.832C150.747 192.468 151.588 192.286 152.489 192.286C153.928 192.286 155.098 192.589 155.999 193.196C156.9 193.785 157.542 194.557 157.923 195.51C158.322 196.446 158.521 197.443 158.521 198.5C158.521 199.748 158.287 200.866 157.819 201.854C157.351 202.842 156.632 203.622 155.661 204.194C154.708 204.766 153.52 205.052 152.099 205.052C150.279 205.052 148.806 204.584 147.679 203.648C146.552 202.712 145.868 201.464 145.625 199.904H147.939C148.164 200.892 148.641 201.663 149.369 202.218C150.097 202.773 151.016 203.05 152.125 203.05C153.494 203.05 154.526 202.643 155.219 201.828C155.912 200.996 156.259 199.904 156.259 198.552C156.259 197.2 155.912 196.16 155.219 195.432C154.526 194.687 153.503 194.314 152.151 194.314C151.232 194.314 150.426 194.539 149.733 194.99C149.057 195.423 148.563 196.021 148.251 196.784H146.015V186.176H157.325V188.256ZM175.913 190.674C175.532 188.75 174.344 187.788 172.351 187.788C170.808 187.788 169.656 188.386 168.893 189.582C168.13 190.761 167.758 192.711 167.775 195.432C168.174 194.531 168.832 193.829 169.751 193.326C170.687 192.806 171.727 192.546 172.871 192.546C174.656 192.546 176.078 193.101 177.135 194.21C178.21 195.319 178.747 196.853 178.747 198.812C178.747 199.991 178.513 201.048 178.045 201.984C177.594 202.92 176.901 203.665 175.965 204.22C175.046 204.775 173.928 205.052 172.611 205.052C170.826 205.052 169.43 204.653 168.425 203.856C167.42 203.059 166.718 201.958 166.319 200.554C165.92 199.15 165.721 197.417 165.721 195.354C165.721 188.993 167.94 185.812 172.377 185.812C174.076 185.812 175.41 186.271 176.381 187.19C177.352 188.109 177.924 189.27 178.097 190.674H175.913ZM172.377 194.548C171.632 194.548 170.93 194.704 170.271 195.016C169.612 195.311 169.075 195.77 168.659 196.394C168.26 197.001 168.061 197.746 168.061 198.63C168.061 199.947 168.442 201.022 169.205 201.854C169.968 202.669 171.06 203.076 172.481 203.076C173.694 203.076 174.656 202.703 175.367 201.958C176.095 201.195 176.459 200.173 176.459 198.89C176.459 197.538 176.112 196.481 175.419 195.718C174.726 194.938 173.712 194.548 172.377 194.548ZM197.279 188.048L190.051 205H187.659L194.991 188.282H184.955V186.254H197.279V188.048ZM207.104 195.224C206.134 194.843 205.388 194.288 204.868 193.56C204.348 192.832 204.088 191.948 204.088 190.908C204.088 189.972 204.322 189.131 204.79 188.386C205.258 187.623 205.952 187.025 206.87 186.592C207.806 186.141 208.933 185.916 210.25 185.916C211.568 185.916 212.686 186.141 213.604 186.592C214.54 187.025 215.242 187.623 215.71 188.386C216.196 189.131 216.438 189.972 216.438 190.908C216.438 191.913 216.17 192.797 215.632 193.56C215.095 194.305 214.358 194.86 213.422 195.224C214.497 195.553 215.346 196.134 215.97 196.966C216.612 197.781 216.932 198.769 216.932 199.93C216.932 201.057 216.655 202.045 216.1 202.894C215.546 203.726 214.757 204.376 213.734 204.844C212.729 205.295 211.568 205.52 210.25 205.52C208.933 205.52 207.772 205.295 206.766 204.844C205.778 204.376 205.007 203.726 204.452 202.894C203.898 202.045 203.62 201.057 203.62 199.93C203.62 198.769 203.932 197.772 204.556 196.94C205.18 196.108 206.03 195.536 207.104 195.224ZM214.15 191.194C214.15 190.137 213.804 189.322 213.11 188.75C212.417 188.178 211.464 187.892 210.25 187.892C209.054 187.892 208.11 188.178 207.416 188.75C206.723 189.322 206.376 190.145 206.376 191.22C206.376 192.191 206.732 192.971 207.442 193.56C208.17 194.149 209.106 194.444 210.25 194.444C211.412 194.444 212.348 194.149 213.058 193.56C213.786 192.953 214.15 192.165 214.15 191.194ZM210.25 196.264C208.968 196.264 207.919 196.567 207.104 197.174C206.29 197.763 205.882 198.656 205.882 199.852C205.882 200.961 206.272 201.854 207.052 202.53C207.85 203.206 208.916 203.544 210.25 203.544C211.585 203.544 212.642 203.206 213.422 202.53C214.202 201.854 214.592 200.961 214.592 199.852C214.592 198.691 214.194 197.807 213.396 197.2C212.599 196.576 211.55 196.264 210.25 196.264ZM233.922 188.36V186.202H238.81V205H236.418V188.36H233.922ZM246.359 203.102C248.56 201.334 250.285 199.887 251.533 198.76C252.781 197.616 253.829 196.429 254.679 195.198C255.545 193.95 255.979 192.728 255.979 191.532C255.979 190.405 255.701 189.521 255.147 188.88C254.609 188.221 253.734 187.892 252.521 187.892C251.342 187.892 250.423 188.265 249.765 189.01C249.123 189.738 248.777 190.717 248.725 191.948H246.437C246.506 190.007 247.095 188.507 248.205 187.45C249.314 186.393 250.744 185.864 252.495 185.864C254.28 185.864 255.693 186.358 256.733 187.346C257.79 188.334 258.319 189.695 258.319 191.428C258.319 192.867 257.885 194.271 257.019 195.64C256.169 196.992 255.199 198.188 254.107 199.228C253.015 200.251 251.619 201.447 249.921 202.816H258.865V204.792H246.359V203.102ZM265.318 190.934C265.439 189.339 266.054 188.091 267.164 187.19C268.273 186.289 269.712 185.838 271.48 185.838C272.658 185.838 273.672 186.055 274.522 186.488C275.388 186.904 276.038 187.476 276.472 188.204C276.922 188.932 277.148 189.755 277.148 190.674C277.148 191.749 276.836 192.676 276.212 193.456C275.605 194.236 274.808 194.739 273.82 194.964V195.094C274.946 195.371 275.839 195.917 276.498 196.732C277.156 197.547 277.486 198.613 277.486 199.93C277.486 200.918 277.26 201.811 276.81 202.608C276.359 203.388 275.683 204.003 274.782 204.454C273.88 204.905 272.797 205.13 271.532 205.13C269.694 205.13 268.186 204.653 267.008 203.7C265.829 202.729 265.17 201.36 265.032 199.592H267.32C267.441 200.632 267.866 201.481 268.594 202.14C269.322 202.799 270.292 203.128 271.506 203.128C272.719 203.128 273.638 202.816 274.262 202.192C274.903 201.551 275.224 200.727 275.224 199.722C275.224 198.422 274.79 197.486 273.924 196.914C273.057 196.342 271.748 196.056 269.998 196.056H269.4V194.08H270.024C271.618 194.063 272.823 193.803 273.638 193.3C274.452 192.78 274.86 191.983 274.86 190.908C274.86 189.989 274.556 189.253 273.95 188.698C273.36 188.143 272.511 187.866 271.402 187.866C270.327 187.866 269.46 188.143 268.802 188.698C268.143 189.253 267.753 189.998 267.632 190.934H265.318ZM283.878 200.814V199.02L293.004 186.384H295.838V198.76H298.438V200.814H295.838V205H293.498V200.814H283.878ZM293.602 188.854L286.608 198.76H293.602V188.854ZM327.259 188.256H318.133V194.184C318.532 193.629 319.121 193.179 319.901 192.832C320.681 192.468 321.522 192.286 322.423 192.286C323.862 192.286 325.032 192.589 325.933 193.196C326.835 193.785 327.476 194.557 327.857 195.51C328.256 196.446 328.455 197.443 328.455 198.5C328.455 199.748 328.221 200.866 327.753 201.854C327.285 202.842 326.566 203.622 325.595 204.194C324.642 204.766 323.455 205.052 322.033 205.052C320.213 205.052 318.74 204.584 317.613 203.648C316.487 202.712 315.802 201.464 315.559 199.904H317.873C318.099 200.892 318.575 201.663 319.303 202.218C320.031 202.773 320.95 203.05 322.059 203.05C323.429 203.05 324.46 202.643 325.153 201.828C325.847 200.996 326.193 199.904 326.193 198.552C326.193 197.2 325.847 196.16 325.153 195.432C324.46 194.687 323.437 194.314 322.085 194.314C321.167 194.314 320.361 194.539 319.667 194.99C318.991 195.423 318.497 196.021 318.185 196.784H315.949V186.176H327.259V188.256ZM345.848 190.674C345.466 188.75 344.279 187.788 342.286 187.788C340.743 187.788 339.59 188.386 338.828 189.582C338.065 190.761 337.692 192.711 337.71 195.432C338.108 194.531 338.767 193.829 339.686 193.326C340.622 192.806 341.662 192.546 342.806 192.546C344.591 192.546 346.012 193.101 347.07 194.21C348.144 195.319 348.682 196.853 348.682 198.812C348.682 199.991 348.448 201.048 347.98 201.984C347.529 202.92 346.836 203.665 345.9 204.22C344.981 204.775 343.863 205.052 342.546 205.052C340.76 205.052 339.365 204.653 338.36 203.856C337.354 203.059 336.652 201.958 336.254 200.554C335.855 199.15 335.656 197.417 335.656 195.354C335.656 188.993 337.874 185.812 342.312 185.812C344.01 185.812 345.345 186.271 346.316 187.19C347.286 188.109 347.858 189.27 348.032 190.674H345.848ZM342.312 194.548C341.566 194.548 340.864 194.704 340.206 195.016C339.547 195.311 339.01 195.77 338.594 196.394C338.195 197.001 337.996 197.746 337.996 198.63C337.996 199.947 338.377 201.022 339.14 201.854C339.902 202.669 340.994 203.076 342.416 203.076C343.629 203.076 344.591 202.703 345.302 201.958C346.03 201.195 346.394 200.173 346.394 198.89C346.394 197.538 346.047 196.481 345.354 195.718C344.66 194.938 343.646 194.548 342.312 194.548ZM367.213 188.048L359.985 205H357.593L364.925 188.282H354.889V186.254H367.213V188.048ZM377.039 195.224C376.068 194.843 375.323 194.288 374.803 193.56C374.283 192.832 374.023 191.948 374.023 190.908C374.023 189.972 374.257 189.131 374.725 188.386C375.193 187.623 375.886 187.025 376.805 186.592C377.741 186.141 378.867 185.916 380.185 185.916C381.502 185.916 382.62 186.141 383.539 186.592C384.475 187.025 385.177 187.623 385.645 188.386C386.13 189.131 386.373 189.972 386.373 190.908C386.373 191.913 386.104 192.797 385.567 193.56C385.029 194.305 384.293 194.86 383.357 195.224C384.431 195.553 385.281 196.134 385.905 196.966C386.546 197.781 386.867 198.769 386.867 199.93C386.867 201.057 386.589 202.045 386.035 202.894C385.48 203.726 384.691 204.376 383.669 204.844C382.663 205.295 381.502 205.52 380.185 205.52C378.867 205.52 377.706 205.295 376.701 204.844C375.713 204.376 374.941 203.726 374.387 202.894C373.832 202.045 373.555 201.057 373.555 199.93C373.555 198.769 373.867 197.772 374.491 196.94C375.115 196.108 375.964 195.536 377.039 195.224ZM384.085 191.194C384.085 190.137 383.738 189.322 383.045 188.75C382.351 188.178 381.398 187.892 380.185 187.892C378.989 187.892 378.044 188.178 377.351 188.75C376.657 189.322 376.311 190.145 376.311 191.22C376.311 192.191 376.666 192.971 377.377 193.56C378.105 194.149 379.041 194.444 380.185 194.444C381.346 194.444 382.282 194.149 382.993 193.56C383.721 192.953 384.085 192.165 384.085 191.194ZM380.185 196.264C378.902 196.264 377.853 196.567 377.039 197.174C376.224 197.763 375.817 198.656 375.817 199.852C375.817 200.961 376.207 201.854 376.987 202.53C377.784 203.206 378.85 203.544 380.185 203.544C381.519 203.544 382.577 203.206 383.357 202.53C384.137 201.854 384.527 200.961 384.527 199.852C384.527 198.691 384.128 197.807 383.331 197.2C382.533 196.576 381.485 196.264 380.185 196.264Z" fill="white"/>
<path d="M71.802 240.21H66.33L65.322 243H63.594L68.13 230.526H70.02L74.538 243H72.81L71.802 240.21ZM71.334 238.878L69.066 232.542L66.798 238.878H71.334ZM86.5589 234.09C86.2109 233.358 85.7069 232.794 85.0469 232.398C84.3869 231.99 83.6189 231.786 82.7429 231.786C81.8669 231.786 81.0749 231.99 80.3669 232.398C79.6709 232.794 79.1189 233.37 78.7109 234.126C78.3149 234.87 78.1169 235.734 78.1169 236.718C78.1169 237.702 78.3149 238.566 78.7109 239.31C79.1189 240.054 79.6709 240.63 80.3669 241.038C81.0749 241.434 81.8669 241.632 82.7429 241.632C83.9669 241.632 84.9749 241.266 85.7669 240.534C86.5589 239.802 87.0209 238.812 87.1529 237.564H82.1489V236.232H88.8989V237.492C88.8029 238.524 88.4789 239.472 87.9269 240.336C87.3749 241.188 86.6489 241.866 85.7489 242.37C84.8489 242.862 83.8469 243.108 82.7429 243.108C81.5789 243.108 80.5169 242.838 79.5569 242.298C78.5969 241.746 77.8349 240.984 77.2709 240.012C76.7189 239.04 76.4429 237.942 76.4429 236.718C76.4429 235.494 76.7189 234.396 77.2709 233.424C77.8349 232.44 78.5969 231.678 79.5569 231.138C80.5169 230.586 81.5789 230.31 82.7429 230.31C84.0749 230.31 85.2509 230.64 86.2709 231.3C87.3029 231.96 88.0529 232.89 88.5209 234.09H86.5589ZM93.2067 230.454V238.392C93.2067 239.508 93.4767 240.336 94.0167 240.876C94.5687 241.416 95.3307 241.686 96.3027 241.686C97.2627 241.686 98.0127 241.416 98.5527 240.876C99.1047 240.336 99.3807 239.508 99.3807 238.392V230.454H101.019V238.374C101.019 239.418 100.809 240.3 100.389 241.02C99.9687 241.728 99.3987 242.256 98.6787 242.604C97.9707 242.952 97.1727 243.126 96.2847 243.126C95.3967 243.126 94.5927 242.952 93.8727 242.604C93.1647 242.256 92.6007 241.728 92.1807 241.02C91.7727 240.3 91.5687 239.418 91.5687 238.374V230.454H93.2067ZM108.269 243.126C107.441 243.126 106.697 242.982 106.037 242.694C105.389 242.394 104.879 241.986 104.507 241.47C104.135 240.942 103.943 240.336 103.931 239.652H105.677C105.737 240.24 105.977 240.738 106.397 241.146C106.829 241.542 107.453 241.74 108.269 241.74C109.049 241.74 109.661 241.548 110.105 241.164C110.561 240.768 110.789 240.264 110.789 239.652C110.789 239.172 110.657 238.782 110.393 238.482C110.129 238.182 109.799 237.954 109.403 237.798C109.007 237.642 108.473 237.474 107.801 237.294C106.973 237.078 106.307 236.862 105.803 236.646C105.311 236.43 104.885 236.094 104.525 235.638C104.177 235.17 104.003 234.546 104.003 233.766C104.003 233.082 104.177 232.476 104.525 231.948C104.873 231.42 105.359 231.012 105.983 230.724C106.619 230.436 107.345 230.292 108.161 230.292C109.337 230.292 110.297 230.586 111.041 231.174C111.797 231.762 112.223 232.542 112.319 233.514H110.519C110.459 233.034 110.207 232.614 109.763 232.254C109.319 231.882 108.731 231.696 107.999 231.696C107.315 231.696 106.757 231.876 106.325 232.236C105.893 232.584 105.677 233.076 105.677 233.712C105.677 234.168 105.803 234.54 106.055 234.828C106.319 235.116 106.637 235.338 107.009 235.494C107.393 235.638 107.927 235.806 108.611 235.998C109.439 236.226 110.105 236.454 110.609 236.682C111.113 236.898 111.545 237.24 111.905 237.708C112.265 238.164 112.445 238.788 112.445 239.58C112.445 240.192 112.283 240.768 111.959 241.308C111.635 241.848 111.155 242.286 110.519 242.622C109.883 242.958 109.133 243.126 108.269 243.126ZM123.118 230.454V231.786H119.698V243H118.06V231.786H114.622V230.454H123.118ZM127.312 230.454V243H125.674V230.454H127.312ZM140.508 243H138.87L132.282 233.01V243H130.644V230.436H132.282L138.87 240.408V230.436H140.508V243ZM148.567 236.718C148.567 235.494 148.843 234.396 149.395 233.424C149.947 232.44 150.697 231.672 151.645 231.12C152.605 230.568 153.667 230.292 154.831 230.292C156.199 230.292 157.393 230.622 158.413 231.282C159.433 231.942 160.177 232.878 160.645 234.09H158.683C158.335 233.334 157.831 232.752 157.171 232.344C156.523 231.936 155.743 231.732 154.831 231.732C153.955 231.732 153.169 231.936 152.473 232.344C151.777 232.752 151.231 233.334 150.835 234.09C150.439 234.834 150.241 235.71 150.241 236.718C150.241 237.714 150.439 238.59 150.835 239.346C151.231 240.09 151.777 240.666 152.473 241.074C153.169 241.482 153.955 241.686 154.831 241.686C155.743 241.686 156.523 241.488 157.171 241.092C157.831 240.684 158.335 240.102 158.683 239.346H160.645C160.177 240.546 159.433 241.476 158.413 242.136C157.393 242.784 156.199 243.108 154.831 243.108C153.667 243.108 152.605 242.838 151.645 242.298C150.697 241.746 149.947 240.984 149.395 240.012C148.843 239.04 148.567 237.942 148.567 236.718ZM171.039 240.21H165.567L164.559 243H162.831L167.367 230.526H169.257L173.775 243H172.047L171.039 240.21ZM170.571 238.878L168.303 232.542L166.035 238.878H170.571ZM180.27 243.126C179.442 243.126 178.698 242.982 178.038 242.694C177.39 242.394 176.88 241.986 176.508 241.47C176.136 240.942 175.944 240.336 175.932 239.652H177.678C177.738 240.24 177.978 240.738 178.398 241.146C178.83 241.542 179.454 241.74 180.27 241.74C181.05 241.74 181.662 241.548 182.106 241.164C182.562 240.768 182.79 240.264 182.79 239.652C182.79 239.172 182.658 238.782 182.394 238.482C182.13 238.182 181.8 237.954 181.404 237.798C181.008 237.642 180.474 237.474 179.802 237.294C178.974 237.078 178.308 236.862 177.804 236.646C177.312 236.43 176.886 236.094 176.526 235.638C176.178 235.17 176.004 234.546 176.004 233.766C176.004 233.082 176.178 232.476 176.526 231.948C176.874 231.42 177.36 231.012 177.984 230.724C178.62 230.436 179.346 230.292 180.162 230.292C181.338 230.292 182.298 230.586 183.042 231.174C183.798 231.762 184.224 232.542 184.32 233.514H182.52C182.46 233.034 182.208 232.614 181.764 232.254C181.32 231.882 180.732 231.696 180 231.696C179.316 231.696 178.758 231.876 178.326 232.236C177.894 232.584 177.678 233.076 177.678 233.712C177.678 234.168 177.804 234.54 178.056 234.828C178.32 235.116 178.638 235.338 179.01 235.494C179.394 235.638 179.928 235.806 180.612 235.998C181.44 236.226 182.106 236.454 182.61 236.682C183.114 236.898 183.546 237.24 183.906 237.708C184.266 238.164 184.446 238.788 184.446 239.58C184.446 240.192 184.284 240.768 183.96 241.308C183.636 241.848 183.156 242.286 182.52 242.622C181.884 242.958 181.134 243.126 180.27 243.126ZM195.118 230.454V231.786H191.698V243H190.06V231.786H186.622V230.454H195.118ZM204.281 243L201.293 237.87H199.313V243H197.675V230.454H201.725C202.673 230.454 203.471 230.616 204.119 230.94C204.779 231.264 205.271 231.702 205.595 232.254C205.919 232.806 206.081 233.436 206.081 234.144C206.081 235.008 205.829 235.77 205.325 236.43C204.833 237.09 204.089 237.528 203.093 237.744L206.243 243H204.281ZM199.313 236.556H201.725C202.613 236.556 203.279 236.34 203.723 235.908C204.167 235.464 204.389 234.876 204.389 234.144C204.389 233.4 204.167 232.824 203.723 232.416C203.291 232.008 202.625 231.804 201.725 231.804H199.313V236.556ZM214.854 243.126C213.69 243.126 212.628 242.856 211.668 242.316C210.708 241.764 209.946 241.002 209.382 240.03C208.83 239.046 208.554 237.942 208.554 236.718C208.554 235.494 208.83 234.396 209.382 233.424C209.946 232.44 210.708 231.678 211.668 231.138C212.628 230.586 213.69 230.31 214.854 230.31C216.03 230.31 217.098 230.586 218.058 231.138C219.018 231.678 219.774 232.434 220.326 233.406C220.878 234.378 221.154 235.482 221.154 236.718C221.154 237.954 220.878 239.058 220.326 240.03C219.774 241.002 219.018 241.764 218.058 242.316C217.098 242.856 216.03 243.126 214.854 243.126ZM214.854 241.704C215.73 241.704 216.516 241.5 217.212 241.092C217.92 240.684 218.472 240.102 218.868 239.346C219.276 238.59 219.48 237.714 219.48 236.718C219.48 235.71 219.276 234.834 218.868 234.09C218.472 233.334 217.926 232.752 217.23 232.344C216.534 231.936 215.742 231.732 214.854 231.732C213.966 231.732 213.174 231.936 212.478 232.344C211.782 232.752 211.23 233.334 210.822 234.09C210.426 234.834 210.228 235.71 210.228 236.718C210.228 237.714 210.426 238.59 210.822 239.346C211.23 240.102 211.782 240.684 212.478 241.092C213.186 241.5 213.978 241.704 214.854 241.704Z" fill="white"/>
<path d="M83.5 74L63 84.7644V89.0702H104V84.7644L83.5 74ZM93.2105 93.3759V108.446H99.6842V93.3759H93.2105ZM63 119.21H104V112.752H63V119.21ZM80.2632 93.3759V108.446H86.7368V93.3759H80.2632ZM67.3158 93.3759V108.446H73.7895V93.3759H67.3158Z" fill="white" fill-opacity="0.6"/>
<path d="M125.086 107.234C124.271 107.234 123.535 107.026 122.876 106.61C122.217 106.194 121.749 105.717 121.472 105.18V105.934C121.472 106.194 121.325 106.437 121.03 106.662C120.753 106.887 120.397 107 119.964 107C119.496 107 119.106 106.887 118.794 106.662C118.482 106.437 118.326 106.194 118.326 105.934V88.488C118.326 88.176 118.482 87.9247 118.794 87.734C119.106 87.5433 119.496 87.448 119.964 87.448C120.449 87.448 120.857 87.5433 121.186 87.734C121.515 87.9247 121.68 88.176 121.68 88.488V96.47C121.957 95.9673 122.382 95.5167 122.954 95.118C123.526 94.702 124.211 94.494 125.008 94.494C125.857 94.494 126.629 94.7367 127.322 95.222C128.033 95.69 128.596 96.3227 129.012 97.12C129.428 97.9173 129.636 98.8013 129.636 99.772V101.904C129.636 102.823 129.428 103.689 129.012 104.504C128.596 105.319 128.041 105.977 127.348 106.48C126.655 106.983 125.901 107.234 125.086 107.234ZM124.02 104.296C124.436 104.296 124.817 104.183 125.164 103.958C125.511 103.715 125.779 103.412 125.97 103.048C126.178 102.684 126.282 102.303 126.282 101.904V99.772C126.282 99.3733 126.178 99.0007 125.97 98.654C125.779 98.3073 125.511 98.0213 125.164 97.796C124.817 97.5533 124.427 97.432 123.994 97.432C123.63 97.432 123.266 97.5273 122.902 97.718C122.555 97.9087 122.261 98.1773 122.018 98.524C121.793 98.8707 121.68 99.2867 121.68 99.772V102.372C121.68 102.545 121.784 102.788 121.992 103.1C122.2 103.395 122.477 103.672 122.824 103.932C123.188 104.175 123.587 104.296 124.02 104.296ZM134.434 107.234C133.516 107.234 132.718 106.957 132.042 106.402C131.384 105.83 131.054 104.955 131.054 103.776C131.054 102.788 131.306 102.017 131.808 101.462C132.328 100.907 133.039 100.517 133.94 100.292C134.859 100.067 135.916 99.954 137.112 99.954H138.178V99.616C138.178 99.2347 138.1 98.862 137.944 98.498C137.806 98.134 137.572 97.8307 137.242 97.588C136.93 97.3453 136.48 97.224 135.89 97.224C135.232 97.224 134.72 97.2933 134.356 97.432C134.01 97.5533 133.741 97.6833 133.55 97.822C133.36 97.9607 133.152 98.03 132.926 98.03C132.562 98.03 132.276 97.848 132.068 97.484C131.878 97.12 131.782 96.7473 131.782 96.366C131.782 96.002 131.999 95.6813 132.432 95.404C132.883 95.1093 133.429 94.884 134.07 94.728C134.712 94.572 135.336 94.494 135.942 94.494C137.294 94.494 138.378 94.7367 139.192 95.222C140.007 95.7073 140.596 96.3313 140.96 97.094C141.342 97.8567 141.532 98.68 141.532 99.564V105.934C141.532 106.229 141.376 106.48 141.064 106.688C140.752 106.896 140.362 107 139.894 107C139.461 107 139.097 106.896 138.802 106.688C138.525 106.48 138.386 106.229 138.386 105.934V105.18C137.918 105.717 137.364 106.194 136.722 106.61C136.098 107.026 135.336 107.234 134.434 107.234ZM135.786 104.738C136.15 104.738 136.514 104.617 136.878 104.374C137.242 104.131 137.546 103.819 137.788 103.438C138.048 103.057 138.178 102.658 138.178 102.242V101.696H137.788C137.216 101.696 136.67 101.731 136.15 101.8C135.63 101.869 135.206 102.025 134.876 102.268C134.564 102.493 134.408 102.849 134.408 103.334C134.408 103.819 134.538 104.175 134.798 104.4C135.076 104.625 135.405 104.738 135.786 104.738ZM145.685 107C145.199 107 144.801 106.887 144.489 106.662C144.177 106.437 144.021 106.194 144.021 105.934V95.69C144.021 95.378 144.177 95.1267 144.489 94.936C144.801 94.7453 145.199 94.65 145.685 94.65C146.101 94.65 146.447 94.7453 146.725 94.936C147.019 95.1267 147.167 95.378 147.167 95.69V96.47C147.427 95.9673 147.851 95.5167 148.441 95.118C149.047 94.702 149.784 94.494 150.651 94.494C151.465 94.494 152.211 94.7367 152.887 95.222C153.563 95.69 154.1 96.3227 154.499 97.12C154.915 97.9173 155.123 98.8013 155.123 99.772V105.934C155.123 106.281 154.949 106.549 154.603 106.74C154.256 106.913 153.866 107 153.433 107C153.051 107 152.679 106.913 152.315 106.74C151.951 106.549 151.769 106.281 151.769 105.934V99.772C151.769 99.3733 151.665 99.0007 151.457 98.654C151.266 98.3073 150.997 98.0213 150.651 97.796C150.304 97.5533 149.923 97.432 149.507 97.432C149.16 97.432 148.822 97.5273 148.493 97.718C148.163 97.9087 147.895 98.1773 147.687 98.524C147.479 98.8707 147.375 99.2867 147.375 99.772V105.934C147.375 106.194 147.21 106.437 146.881 106.662C146.551 106.887 146.153 107 145.685 107ZM159.294 107C158.826 107 158.436 106.887 158.124 106.662C157.812 106.437 157.656 106.194 157.656 105.934V88.488C157.656 88.176 157.812 87.9247 158.124 87.734C158.436 87.5433 158.826 87.448 159.294 87.448C159.779 87.448 160.187 87.5433 160.516 87.734C160.845 87.9247 161.01 88.176 161.01 88.488V99.382L165.924 94.78C166.097 94.6067 166.314 94.52 166.574 94.52C166.834 94.52 167.085 94.6067 167.328 94.78C167.588 94.936 167.796 95.1353 167.952 95.378C168.125 95.6207 168.212 95.872 168.212 96.132C168.212 96.236 168.186 96.3487 168.134 96.47C168.099 96.574 168.03 96.6693 167.926 96.756L164.858 99.538L168.706 104.998C168.827 105.189 168.888 105.371 168.888 105.544C168.888 105.804 168.784 106.064 168.576 106.324C168.368 106.584 168.117 106.801 167.822 106.974C167.527 107.13 167.241 107.208 166.964 107.208C166.617 107.208 166.34 107.061 166.132 106.766L162.648 101.592L161.01 103.074V105.934C161.01 106.194 160.845 106.437 160.516 106.662C160.187 106.887 159.779 107 159.294 107ZM176.822 107C176.32 107 175.852 106.896 175.418 106.688C175.002 106.48 174.794 106.168 174.794 105.752V99.226C174.794 99.0873 174.76 98.966 174.69 98.862L169.308 89.944C169.291 89.892 169.274 89.84 169.256 89.788C169.256 89.736 169.256 89.6927 169.256 89.658C169.256 89.3287 169.404 89.0427 169.698 88.8C170.01 88.5573 170.383 88.3667 170.816 88.228C171.25 88.072 171.648 87.994 172.012 87.994C172.342 87.994 172.584 88.0633 172.74 88.202C172.896 88.3233 173.044 88.5053 173.182 88.748L176.822 95.43L180.436 88.748C180.575 88.5053 180.722 88.3233 180.878 88.202C181.034 88.0633 181.277 87.994 181.606 87.994C181.988 87.994 182.386 88.072 182.802 88.228C183.236 88.3667 183.6 88.5573 183.894 88.8C184.206 89.0427 184.362 89.3287 184.362 89.658C184.362 89.6927 184.362 89.736 184.362 89.788C184.362 89.84 184.345 89.892 184.31 89.944L178.954 98.862C178.885 98.966 178.85 99.0873 178.85 99.226V105.752C178.85 106.168 178.634 106.48 178.2 106.688C177.784 106.896 177.325 107 176.822 107ZM188.401 107.26C187.344 107.26 186.364 107.009 185.463 106.506C184.579 105.986 183.86 105.31 183.305 104.478C182.768 103.629 182.499 102.719 182.499 101.748V99.928C182.499 98.9573 182.759 98.056 183.279 97.224C183.816 96.392 184.536 95.7247 185.437 95.222C186.338 94.7193 187.326 94.468 188.401 94.468C189.458 94.468 190.438 94.7193 191.339 95.222C192.24 95.7073 192.96 96.366 193.497 97.198C194.052 98.0127 194.329 98.9227 194.329 99.928V101.748C194.329 102.701 194.052 103.603 193.497 104.452C192.96 105.284 192.24 105.96 191.339 106.48C190.438 107 189.458 107.26 188.401 107.26ZM188.401 103.75C188.748 103.75 189.06 103.655 189.337 103.464C189.632 103.273 189.866 103.031 190.039 102.736C190.212 102.424 190.299 102.095 190.299 101.748V99.928C190.299 99.5987 190.212 99.2867 190.039 98.992C189.866 98.6973 189.632 98.4547 189.337 98.264C189.06 98.0733 188.748 97.978 188.401 97.978C188.054 97.978 187.734 98.0733 187.439 98.264C187.162 98.4547 186.936 98.6973 186.763 98.992C186.607 99.2867 186.529 99.5987 186.529 99.928V101.748C186.529 102.095 186.607 102.424 186.763 102.736C186.936 103.031 187.162 103.273 187.439 103.464C187.734 103.655 188.054 103.75 188.401 103.75ZM201.993 107.26C200.919 107.26 199.931 107.009 199.029 106.506C198.128 105.986 197.409 105.31 196.871 104.478C196.334 103.646 196.065 102.753 196.065 101.8V95.872C196.065 95.56 196.265 95.274 196.663 95.014C197.062 94.754 197.539 94.624 198.093 94.624C198.631 94.624 199.099 94.754 199.497 95.014C199.896 95.274 200.095 95.56 200.095 95.872V101.8C200.095 102.129 200.182 102.441 200.355 102.736C200.529 103.031 200.754 103.273 201.031 103.464C201.326 103.655 201.647 103.75 201.993 103.75C202.34 103.75 202.652 103.655 202.929 103.464C203.224 103.273 203.449 103.031 203.605 102.736C203.779 102.441 203.865 102.129 203.865 101.8V95.846C203.865 95.5167 204.065 95.2307 204.463 94.988C204.879 94.7453 205.356 94.624 205.893 94.624C206.483 94.624 206.959 94.7453 207.323 94.988C207.705 95.2307 207.895 95.5167 207.895 95.846V101.8C207.895 102.771 207.627 103.672 207.089 104.504C206.552 105.336 205.833 106.003 204.931 106.506C204.047 107.009 203.068 107.26 201.993 107.26Z" fill="white" fill-opacity="0.6"/>
<g filter="url(#filter2_b)">
<circle cx="448.5" cy="274.5" r="19.5" fill="url(#paint1_linear)" fill-opacity="0.8"/>
</g>
<g filter="url(#filter3_b)">
<circle cx="424.5" cy="274.5" r="19.5" fill="url(#paint2_linear)" fill-opacity="0.8"/>
</g>
</g>
<defs>
<filter id="filter0_f" x="0" y="261.277" width="530" height="103.723" filterUnits="userSpaceOnUse" color-interpolation-filters="sRGB">
<feFlood flood-opacity="0" result="BackgroundImageFix"/>
<feBlend mode="normal" in="SourceGraphic" in2="BackgroundImageFix" result="shape"/>
<feGaussianBlur stdDeviation="20" result="effect1_foregroundBlur"/>
</filter>
<filter id="filter1_b" x="28" y="39" width="474" height="286" filterUnits="userSpaceOnUse" color-interpolation-filters="sRGB">
<feFlood flood-opacity="0" result="BackgroundImageFix"/>
<feGaussianBlur in="BackgroundImage" stdDeviation="6"/>
<feComposite in2="SourceAlpha" operator="in" result="effect1_backgroundBlur"/>
<feBlend mode="normal" in="SourceGraphic" in2="effect1_backgroundBlur" result="shape"/>
</filter>
<filter id="filter2_b" x="417" y="243" width="63" height="63" filterUnits="userSpaceOnUse" color-interpolation-filters="sRGB">
<feFlood flood-opacity="0" result="BackgroundImageFix"/>
<feGaussianBlur in="BackgroundImage" stdDeviation="6"/>
<feComposite in2="SourceAlpha" operator="in" result="effect1_backgroundBlur"/>
<feBlend mode="normal" in="SourceGraphic" in2="effect1_backgroundBlur" result="shape"/>
</filter>
<filter id="filter3_b" x="393" y="243" width="63" height="63" filterUnits="userSpaceOnUse" color-interpolation-filters="sRGB">
<feFlood flood-opacity="0" result="BackgroundImageFix"/>
<feGaussianBlur in="BackgroundImage" stdDeviation="6"/>
<feComposite in2="SourceAlpha" operator="in" result="effect1_backgroundBlur"/>
<feBlend mode="normal" in="SourceGraphic" in2="effect1_backgroundBlur" result="shape"/>
</filter>
<linearGradient id="paint0_linear" x1="40" y1="51" x2="463.43" y2="350.557" gradientUnits="userSpaceOnUse">
<stop stop-color="#3E7CB7"/>
<stop offset="1" stop-color="#0D3B66"/>
</linearGradient>
<linearGradient id="paint1_linear" x1="433" y1="255" x2="465" y2="294" gradientUnits="userSpaceOnUse">
<stop stop-color="white" stop-opacity="0.7"/>
<stop offset="1" stop-color="white" stop-opacity="0.1"/>
</linearGradient>
<linearGradient id="paint2_linear" x1="409" y1="255" x2="441" y2="294" gradientUnits="userSpaceOnUse">
<stop stop-color="white" stop-opacity="0.7"/>
<stop offset="1" stop-color="white" stop-opacity="0.1"/>
</linearGradient>
<clipPath id="clip0">
<rect x="40" width="450" height="309.58" rx="30" fill="white"/>
</clipPath>
</defs>
</svg>
