<svg width="119" height="119" viewBox="0 0 119 119" fill="none" xmlns="http://www.w3.org/2000/svg">
<circle cx="59.5" cy="59.5" r="59.5" fill="#12A884"/>
<path d="M69.236 56.6453L53.1075 51.9547C51.2408 51.4203 49.9416 49.6836 49.9416 47.7539C49.9416 45.3344 51.9128 43.375 54.347 43.375H64.2481C66.07 43.375 67.8621 43.9242 69.3555 44.9336C70.2664 45.5422 71.491 45.3937 72.2675 44.6367L77.4645 39.5898C78.5248 38.5656 78.3755 36.8586 77.1957 35.9531C73.5369 33.1031 68.9672 31.5148 64.278 31.5V24.375C64.278 23.0688 63.2028 22 61.8886 22H57.1098C55.7956 22 54.7204 23.0688 54.7204 24.375V31.5H54.347C44.8342 31.5 37.1881 39.6195 38.0692 49.2531C38.6964 56.0961 43.9531 61.6625 50.5837 63.5922L65.8908 68.0453C67.7575 68.5945 69.0568 70.3164 69.0568 72.2461C69.0568 74.6656 67.0855 76.625 64.6513 76.625H54.7502C52.9283 76.625 51.1363 76.0758 49.6429 75.0664C48.7319 74.4578 47.5074 74.6063 46.7308 75.3633L41.5339 80.4102C40.4736 81.4344 40.6229 83.1414 41.8027 84.0469C45.4614 86.8969 50.0312 88.4852 54.7204 88.5V95.625C54.7204 96.9313 55.7956 98 57.1098 98H61.8886C63.2028 98 64.278 96.9313 64.278 95.625V88.4703C71.2371 88.3367 77.7632 84.225 80.063 77.6789C83.2737 68.5352 77.8826 59.1539 69.236 56.6453Z" fill="white"/>
</svg>
