<svg width="151" height="52" viewBox="0 0 151 52" fill="none" xmlns="http://www.w3.org/2000/svg">
<path d="M23.5 0L0 12.381V17.3333H47V12.381L23.5 0ZM34.6316 22.2857V39.619H42.0526V22.2857H34.6316ZM0 52H47V44.5714H0V52ZM19.7895 22.2857V39.619H27.2105V22.2857H19.7895ZM4.94737 22.2857V39.619H12.3684V22.2857H4.94737Z" fill="white"/>
<path d="M67.086 36.234C66.2713 36.234 65.5347 36.026 64.876 35.61C64.2173 35.194 63.7493 34.7173 63.472 34.18V34.934C63.472 35.194 63.3247 35.4367 63.03 35.662C62.7527 35.8873 62.3973 36 61.964 36C61.496 36 61.106 35.8873 60.794 35.662C60.482 35.4367 60.326 35.194 60.326 34.934V17.488C60.326 17.176 60.482 16.9247 60.794 16.734C61.106 16.5433 61.496 16.448 61.964 16.448C62.4493 16.448 62.8567 16.5433 63.186 16.734C63.5153 16.9247 63.68 17.176 63.68 17.488V25.47C63.9573 24.9673 64.382 24.5167 64.954 24.118C65.526 23.702 66.2107 23.494 67.008 23.494C67.8573 23.494 68.6287 23.7367 69.322 24.222C70.0327 24.69 70.596 25.3227 71.012 26.12C71.428 26.9173 71.636 27.8013 71.636 28.772V30.904C71.636 31.8227 71.428 32.6893 71.012 33.504C70.596 34.3187 70.0413 34.9773 69.348 35.48C68.6547 35.9827 67.9007 36.234 67.086 36.234ZM66.02 33.296C66.436 33.296 66.8173 33.1833 67.164 32.958C67.5107 32.7153 67.7793 32.412 67.97 32.048C68.178 31.684 68.282 31.3027 68.282 30.904V28.772C68.282 28.3733 68.178 28.0007 67.97 27.654C67.7793 27.3073 67.5107 27.0213 67.164 26.796C66.8173 26.5533 66.4273 26.432 65.994 26.432C65.63 26.432 65.266 26.5273 64.902 26.718C64.5553 26.9087 64.2607 27.1773 64.018 27.524C63.7927 27.8707 63.68 28.2867 63.68 28.772V31.372C63.68 31.5453 63.784 31.788 63.992 32.1C64.2 32.3947 64.4773 32.672 64.824 32.932C65.188 33.1747 65.5867 33.296 66.02 33.296ZM76.4344 36.234C75.5158 36.234 74.7184 35.9567 74.0424 35.402C73.3838 34.83 73.0544 33.9547 73.0544 32.776C73.0544 31.788 73.3058 31.0167 73.8084 30.462C74.3284 29.9073 75.0391 29.5173 75.9404 29.292C76.8591 29.0667 77.9164 28.954 79.1124 28.954H80.1784V28.616C80.1784 28.2347 80.1004 27.862 79.9444 27.498C79.8058 27.134 79.5718 26.8307 79.2424 26.588C78.9304 26.3453 78.4798 26.224 77.8904 26.224C77.2318 26.224 76.7204 26.2933 76.3564 26.432C76.0098 26.5533 75.7411 26.6833 75.5504 26.822C75.3598 26.9607 75.1518 27.03 74.9264 27.03C74.5624 27.03 74.2764 26.848 74.0684 26.484C73.8778 26.12 73.7824 25.7473 73.7824 25.366C73.7824 25.002 73.9991 24.6813 74.4324 24.404C74.8831 24.1093 75.4291 23.884 76.0704 23.728C76.7118 23.572 77.3358 23.494 77.9424 23.494C79.2944 23.494 80.3778 23.7367 81.1924 24.222C82.0071 24.7073 82.5964 25.3313 82.9604 26.094C83.3418 26.8567 83.5324 27.68 83.5324 28.564V34.934C83.5324 35.2287 83.3764 35.48 83.0644 35.688C82.7524 35.896 82.3624 36 81.8944 36C81.4611 36 81.0971 35.896 80.8024 35.688C80.5251 35.48 80.3864 35.2287 80.3864 34.934V34.18C79.9184 34.7173 79.3638 35.194 78.7224 35.61C78.0984 36.026 77.3358 36.234 76.4344 36.234ZM77.7864 33.738C78.1504 33.738 78.5144 33.6167 78.8784 33.374C79.2424 33.1313 79.5458 32.8193 79.7884 32.438C80.0484 32.0567 80.1784 31.658 80.1784 31.242V30.696H79.7884C79.2164 30.696 78.6704 30.7307 78.1504 30.8C77.6304 30.8693 77.2058 31.0253 76.8764 31.268C76.5644 31.4933 76.4084 31.8487 76.4084 32.334C76.4084 32.8193 76.5384 33.1747 76.7984 33.4C77.0758 33.6253 77.4051 33.738 77.7864 33.738ZM87.6847 36C87.1994 36 86.8007 35.8873 86.4887 35.662C86.1767 35.4367 86.0207 35.194 86.0207 34.934V24.69C86.0207 24.378 86.1767 24.1267 86.4887 23.936C86.8007 23.7453 87.1994 23.65 87.6847 23.65C88.1007 23.65 88.4474 23.7453 88.7247 23.936C89.0194 24.1267 89.1667 24.378 89.1667 24.69V25.47C89.4267 24.9673 89.8514 24.5167 90.4407 24.118C91.0474 23.702 91.784 23.494 92.6507 23.494C93.4654 23.494 94.2107 23.7367 94.8867 24.222C95.5627 24.69 96.1 25.3227 96.4987 26.12C96.9147 26.9173 97.1227 27.8013 97.1227 28.772V34.934C97.1227 35.2807 96.9494 35.5493 96.6027 35.74C96.256 35.9133 95.866 36 95.4327 36C95.0514 36 94.6787 35.9133 94.3147 35.74C93.9507 35.5493 93.7687 35.2807 93.7687 34.934V28.772C93.7687 28.3733 93.6647 28.0007 93.4567 27.654C93.266 27.3073 92.9974 27.0213 92.6507 26.796C92.304 26.5533 91.9227 26.432 91.5067 26.432C91.16 26.432 90.822 26.5273 90.4927 26.718C90.1634 26.9087 89.8947 27.1773 89.6867 27.524C89.4787 27.8707 89.3747 28.2867 89.3747 28.772V34.934C89.3747 35.194 89.21 35.4367 88.8807 35.662C88.5514 35.8873 88.1527 36 87.6847 36ZM101.294 36C100.826 36 100.436 35.8873 100.124 35.662C99.8121 35.4367 99.6561 35.194 99.6561 34.934V17.488C99.6561 17.176 99.8121 16.9247 100.124 16.734C100.436 16.5433 100.826 16.448 101.294 16.448C101.779 16.448 102.187 16.5433 102.516 16.734C102.845 16.9247 103.01 17.176 103.01 17.488V28.382L107.924 23.78C108.097 23.6067 108.314 23.52 108.574 23.52C108.834 23.52 109.085 23.6067 109.328 23.78C109.588 23.936 109.796 24.1353 109.952 24.378C110.125 24.6207 110.212 24.872 110.212 25.132C110.212 25.236 110.186 25.3487 110.134 25.47C110.099 25.574 110.03 25.6693 109.926 25.756L106.858 28.538L110.706 33.998C110.827 34.1887 110.888 34.3707 110.888 34.544C110.888 34.804 110.784 35.064 110.576 35.324C110.368 35.584 110.117 35.8007 109.822 35.974C109.527 36.13 109.241 36.208 108.964 36.208C108.617 36.208 108.34 36.0607 108.132 35.766L104.648 30.592L103.01 32.074V34.934C103.01 35.194 102.845 35.4367 102.516 35.662C102.187 35.8873 101.779 36 101.294 36ZM118.822 36C118.32 36 117.852 35.896 117.418 35.688C117.002 35.48 116.794 35.168 116.794 34.752V28.226C116.794 28.0873 116.76 27.966 116.69 27.862L111.308 18.944C111.291 18.892 111.274 18.84 111.256 18.788C111.256 18.736 111.256 18.6927 111.256 18.658C111.256 18.3287 111.404 18.0427 111.698 17.8C112.01 17.5573 112.383 17.3667 112.816 17.228C113.25 17.072 113.648 16.994 114.012 16.994C114.342 16.994 114.584 17.0633 114.74 17.202C114.896 17.3233 115.044 17.5053 115.182 17.748L118.822 24.43L122.436 17.748C122.575 17.5053 122.722 17.3233 122.878 17.202C123.034 17.0633 123.277 16.994 123.606 16.994C123.988 16.994 124.386 17.072 124.802 17.228C125.236 17.3667 125.6 17.5573 125.894 17.8C126.206 18.0427 126.362 18.3287 126.362 18.658C126.362 18.6927 126.362 18.736 126.362 18.788C126.362 18.84 126.345 18.892 126.31 18.944L120.954 27.862C120.885 27.966 120.85 28.0873 120.85 28.226V34.752C120.85 35.168 120.634 35.48 120.2 35.688C119.784 35.896 119.325 36 118.822 36ZM130.401 36.26C129.344 36.26 128.364 36.0087 127.463 35.506C126.579 34.986 125.86 34.31 125.305 33.478C124.768 32.6287 124.499 31.7187 124.499 30.748V28.928C124.499 27.9573 124.759 27.056 125.279 26.224C125.816 25.392 126.536 24.7247 127.437 24.222C128.338 23.7193 129.326 23.468 130.401 23.468C131.458 23.468 132.438 23.7193 133.339 24.222C134.24 24.7073 134.96 25.366 135.497 26.198C136.052 27.0127 136.329 27.9227 136.329 28.928V30.748C136.329 31.7013 136.052 32.6027 135.497 33.452C134.96 34.284 134.24 34.96 133.339 35.48C132.438 36 131.458 36.26 130.401 36.26ZM130.401 32.75C130.748 32.75 131.06 32.6547 131.337 32.464C131.632 32.2733 131.866 32.0307 132.039 31.736C132.212 31.424 132.299 31.0947 132.299 30.748V28.928C132.299 28.5987 132.212 28.2867 132.039 27.992C131.866 27.6973 131.632 27.4547 131.337 27.264C131.06 27.0733 130.748 26.978 130.401 26.978C130.054 26.978 129.734 27.0733 129.439 27.264C129.162 27.4547 128.936 27.6973 128.763 27.992C128.607 28.2867 128.529 28.5987 128.529 28.928V30.748C128.529 31.0947 128.607 31.424 128.763 31.736C128.936 32.0307 129.162 32.2733 129.439 32.464C129.734 32.6547 130.054 32.75 130.401 32.75ZM143.993 36.26C142.919 36.26 141.931 36.0087 141.029 35.506C140.128 34.986 139.409 34.31 138.871 33.478C138.334 32.646 138.065 31.7533 138.065 30.8V24.872C138.065 24.56 138.265 24.274 138.663 24.014C139.062 23.754 139.539 23.624 140.093 23.624C140.631 23.624 141.099 23.754 141.497 24.014C141.896 24.274 142.095 24.56 142.095 24.872V30.8C142.095 31.1293 142.182 31.4413 142.355 31.736C142.529 32.0307 142.754 32.2733 143.031 32.464C143.326 32.6547 143.647 32.75 143.993 32.75C144.34 32.75 144.652 32.6547 144.929 32.464C145.224 32.2733 145.449 32.0307 145.605 31.736C145.779 31.4413 145.865 31.1293 145.865 30.8V24.846C145.865 24.5167 146.065 24.2307 146.463 23.988C146.879 23.7453 147.356 23.624 147.893 23.624C148.483 23.624 148.959 23.7453 149.323 23.988C149.705 24.2307 149.895 24.5167 149.895 24.846V30.8C149.895 31.7707 149.627 32.672 149.089 33.504C148.552 34.336 147.833 35.0033 146.931 35.506C146.047 36.0087 145.068 36.26 143.993 36.26Z" fill="white"/>
</svg>
