<svg width="210" height="60" viewBox="0 0 210 60" fill="none" xmlns="http://www.w3.org/2000/svg">
<rect width="210" height="60" rx="10" fill="#0D3B66"/>
<path d="M31.2032 28.6472L17.8107 14.8132L34.8498 24.8904L31.2032 28.6472ZM14.3165 14C13.5272 14.4251 13 15.2003 13 16.2065V43.7935C13 44.7997 13.5282 45.5749 14.3165 46L29.8876 29.9965L14.3165 14ZM40.1169 28.1031L36.543 25.9716L32.5566 30.0035L36.543 34.0354L40.1897 31.9039C41.2819 31.0107 41.2819 28.9973 40.1169 28.1031V28.1031ZM17.8117 45.1948L34.8508 35.1176L31.2041 31.3608L17.8117 45.1948Z" fill="white"/>
<path d="M63.75 41C63.27 41 62.82 40.9 62.4 40.7C62 40.48 61.8 40.17 61.8 39.77V20.27C61.8 19.95 61.94 19.67 62.22 19.43C62.5 19.19 62.86 19.07 63.3 19.07H69.3C70.58 19.07 71.73 19.29 72.75 19.73C73.79 20.17 74.61 20.89 75.21 21.89C75.81 22.87 76.11 24.18 76.11 25.82V26C76.11 27.64 75.8 28.96 75.18 29.96C74.56 30.96 73.71 31.69 72.63 32.15C71.57 32.59 70.38 32.81 69.06 32.81H65.7V39.77C65.7 40.17 65.5 40.48 65.1 40.7C64.7 40.9 64.25 41 63.75 41ZM65.7 29.75H69.06C70.06 29.75 70.83 29.47 71.37 28.91C71.93 28.33 72.21 27.46 72.21 26.3V25.94C72.21 24.78 71.93 23.92 71.37 23.36C70.83 22.78 70.06 22.49 69.06 22.49H65.7V29.75ZM80.3892 41C79.8292 41 79.3692 40.87 79.0092 40.61C78.6492 40.35 78.4692 40.07 78.4692 39.77V19.64C78.4692 19.28 78.6492 18.99 79.0092 18.77C79.3692 18.55 79.8292 18.44 80.3892 18.44C80.9292 18.44 81.3892 18.55 81.7692 18.77C82.1492 18.99 82.3392 19.28 82.3392 19.64V39.77C82.3392 40.07 82.1492 40.35 81.7692 40.61C81.3892 40.87 80.9292 41 80.3892 41ZM88.6713 41.27C87.6113 41.27 86.6913 40.95 85.9113 40.31C85.1513 39.65 84.7713 38.64 84.7713 37.28C84.7713 36.14 85.0613 35.25 85.6413 34.61C86.2413 33.97 87.0613 33.52 88.1013 33.26C89.1613 33 90.3813 32.87 91.7613 32.87H92.9913V32.48C92.9913 32.04 92.9013 31.61 92.7213 31.19C92.5613 30.77 92.2913 30.42 91.9113 30.14C91.5513 29.86 91.0313 29.72 90.3513 29.72C89.5913 29.72 89.0013 29.8 88.5813 29.96C88.1813 30.1 87.8713 30.25 87.6513 30.41C87.4313 30.57 87.1913 30.65 86.9313 30.65C86.5113 30.65 86.1813 30.44 85.9413 30.02C85.7213 29.6 85.6113 29.17 85.6113 28.73C85.6113 28.31 85.8613 27.94 86.3613 27.62C86.8813 27.28 87.5113 27.02 88.2513 26.84C88.9913 26.66 89.7113 26.57 90.4113 26.57C91.9713 26.57 93.2213 26.85 94.1613 27.41C95.1013 27.97 95.7813 28.69 96.2013 29.57C96.6413 30.45 96.8613 31.4 96.8613 32.42V39.77C96.8613 40.11 96.6813 40.4 96.3213 40.64C95.9613 40.88 95.5113 41 94.9713 41C94.4713 41 94.0513 40.88 93.7113 40.64C93.3913 40.4 93.2313 40.11 93.2313 39.77V38.9C92.6913 39.52 92.0513 40.07 91.3113 40.55C90.5913 41.03 89.7113 41.27 88.6713 41.27ZM90.2313 38.39C90.6513 38.39 91.0713 38.25 91.4913 37.97C91.9113 37.69 92.2613 37.33 92.5413 36.89C92.8413 36.45 92.9913 35.99 92.9913 35.51V34.88H92.5413C91.8813 34.88 91.2513 34.92 90.6513 35C90.0513 35.08 89.5613 35.26 89.1813 35.54C88.8213 35.8 88.6413 36.21 88.6413 36.77C88.6413 37.33 88.7913 37.74 89.0913 38C89.4113 38.26 89.7913 38.39 90.2313 38.39ZM99.9766 47.63C99.4766 47.63 99.0566 47.53 98.7166 47.33C98.3766 47.15 98.2066 46.7 98.2066 45.98C98.2066 45.54 98.2766 45.16 98.4166 44.84C98.5766 44.52 98.8366 44.36 99.1966 44.36C99.5366 44.36 99.9266 44.3 100.367 44.18C100.827 44.06 101.287 43.83 101.747 43.49C102.207 43.17 102.597 42.72 102.917 42.14C103.237 41.58 103.427 40.85 103.487 39.95L98.3266 28.91C98.2466 28.73 98.2066 28.56 98.2066 28.4C98.2066 28.06 98.3466 27.75 98.6266 27.47C98.9266 27.19 99.2766 26.97 99.6766 26.81C100.077 26.63 100.447 26.54 100.787 26.54C101.027 26.54 101.247 26.59 101.447 26.69C101.667 26.79 101.817 26.96 101.897 27.2L105.497 36.17L108.377 27.2C108.477 26.96 108.627 26.79 108.827 26.69C109.027 26.59 109.227 26.54 109.427 26.54C109.727 26.54 110.087 26.63 110.507 26.81C110.927 26.97 111.287 27.2 111.587 27.5C111.907 27.78 112.067 28.1 112.067 28.46C112.067 28.64 112.037 28.79 111.977 28.91L107.597 40.1C107.237 41 106.887 41.89 106.547 42.77C106.207 43.67 105.777 44.48 105.257 45.2C104.757 45.94 104.087 46.53 103.247 46.97C102.407 47.41 101.317 47.63 99.9766 47.63ZM125.921 41.27C124.621 41.27 123.441 41.08 122.381 40.7C121.341 40.32 120.511 39.85 119.891 39.29C119.291 38.71 118.991 38.13 118.991 37.55C118.991 37.27 119.061 36.97 119.201 36.65C119.361 36.31 119.571 36.03 119.831 35.81C120.091 35.57 120.381 35.45 120.701 35.45C121.021 35.45 121.321 35.57 121.601 35.81C121.881 36.03 122.201 36.3 122.561 36.62C122.921 36.92 123.361 37.19 123.881 37.43C124.401 37.65 125.041 37.76 125.801 37.76C126.401 37.76 126.951 37.67 127.451 37.49C127.971 37.29 128.381 37 128.681 36.62C129.001 36.24 129.161 35.75 129.161 35.15C129.161 34.51 128.991 33.97 128.651 33.53C128.311 33.09 127.851 32.71 127.271 32.39C126.691 32.07 126.061 31.76 125.381 31.46C124.701 31.16 124.011 30.84 123.311 30.5C122.631 30.16 122.001 29.75 121.421 29.27C120.861 28.79 120.401 28.2 120.041 27.5C119.701 26.8 119.531 25.94 119.531 24.92C119.531 23.8 119.741 22.86 120.161 22.1C120.601 21.34 121.171 20.73 121.871 20.27C122.591 19.79 123.381 19.45 124.241 19.25C125.101 19.03 125.961 18.92 126.821 18.92C127.281 18.92 127.821 18.96 128.441 19.04C129.081 19.1 129.711 19.22 130.331 19.4C130.971 19.58 131.491 19.83 131.891 20.15C132.311 20.45 132.521 20.84 132.521 21.32C132.521 21.56 132.461 21.84 132.341 22.16C132.241 22.48 132.071 22.77 131.831 23.03C131.611 23.27 131.321 23.39 130.961 23.39C130.641 23.39 130.321 23.3 130.001 23.12C129.701 22.92 129.301 22.73 128.801 22.55C128.321 22.35 127.661 22.25 126.821 22.25C126.121 22.25 125.511 22.35 124.991 22.55C124.471 22.73 124.081 22.99 123.821 23.33C123.561 23.65 123.431 24.06 123.431 24.56C123.431 25.08 123.601 25.52 123.941 25.88C124.301 26.24 124.761 26.56 125.321 26.84C125.901 27.12 126.531 27.4 127.211 27.68C127.891 27.96 128.571 28.29 129.251 28.67C129.951 29.03 130.591 29.47 131.171 29.99C131.751 30.51 132.211 31.16 132.551 31.94C132.891 32.7 133.061 33.64 133.061 34.76C133.061 36.18 132.751 37.38 132.131 38.36C131.511 39.32 130.661 40.05 129.581 40.55C128.521 41.03 127.301 41.27 125.921 41.27ZM140.935 41C139.135 41 137.755 40.61 136.795 39.83C135.855 39.05 135.385 37.82 135.385 36.14V21.59C135.385 21.23 135.595 20.94 136.015 20.72C136.435 20.5 136.865 20.39 137.305 20.39C137.785 20.39 138.225 20.5 138.625 20.72C139.045 20.94 139.255 21.23 139.255 21.59V26.75H142.795C143.115 26.75 143.355 26.9 143.515 27.2C143.695 27.48 143.785 27.8 143.785 28.16C143.785 28.52 143.695 28.85 143.515 29.15C143.355 29.43 143.115 29.57 142.795 29.57H139.255V36.14C139.255 36.72 139.375 37.13 139.615 37.37C139.875 37.61 140.315 37.73 140.935 37.73H142.105C142.665 37.73 143.075 37.9 143.335 38.24C143.615 38.58 143.755 38.95 143.755 39.35C143.755 39.77 143.615 40.15 143.335 40.49C143.075 40.83 142.665 41 142.105 41H140.935ZM151.522 41.27C150.362 41.27 149.292 40.99 148.312 40.43C147.332 39.85 146.542 39.09 145.942 38.15C145.342 37.21 145.042 36.2 145.042 35.12V32.66C145.042 31.58 145.332 30.58 145.912 29.66C146.492 28.72 147.272 27.97 148.252 27.41C149.252 26.85 150.342 26.57 151.522 26.57C152.702 26.57 153.782 26.85 154.762 27.41C155.762 27.95 156.552 28.68 157.132 29.6C157.732 30.52 158.032 31.54 158.032 32.66V35.12C158.032 36.18 157.732 37.18 157.132 38.12C156.532 39.06 155.732 39.82 154.732 40.4C153.752 40.98 152.682 41.27 151.522 41.27ZM151.522 37.88C152.002 37.88 152.442 37.75 152.842 37.49C153.242 37.23 153.562 36.89 153.802 36.47C154.042 36.03 154.162 35.58 154.162 35.12V32.66C154.162 32.2 154.042 31.77 153.802 31.37C153.562 30.97 153.242 30.64 152.842 30.38C152.462 30.1 152.022 29.96 151.522 29.96C151.042 29.96 150.602 30.09 150.202 30.35C149.802 30.61 149.482 30.95 149.242 31.37C149.022 31.77 148.912 32.2 148.912 32.66V35.12C148.912 35.58 149.022 36.03 149.242 36.47C149.482 36.89 149.802 37.23 150.202 37.49C150.602 37.75 151.042 37.88 151.522 37.88ZM162.384 41C161.844 41 161.394 40.87 161.034 40.61C160.674 40.35 160.494 40.07 160.494 39.77V27.95C160.494 27.59 160.674 27.3 161.034 27.08C161.394 26.86 161.844 26.75 162.384 26.75C162.884 26.75 163.294 26.86 163.614 27.08C163.954 27.3 164.124 27.59 164.124 27.95V29.18C164.344 28.74 164.634 28.33 164.994 27.95C165.374 27.55 165.804 27.22 166.284 26.96C166.764 26.7 167.274 26.57 167.814 26.57H168.744C169.124 26.57 169.454 26.74 169.734 27.08C170.014 27.4 170.154 27.79 170.154 28.25C170.154 28.73 170.014 29.14 169.734 29.48C169.454 29.8 169.124 29.96 168.744 29.96H167.814C167.254 29.96 166.704 30.15 166.164 30.53C165.644 30.89 165.214 31.4 164.874 32.06C164.534 32.7 164.364 33.48 164.364 34.4V39.77C164.364 40.07 164.174 40.35 163.794 40.61C163.414 40.87 162.944 41 162.384 41ZM178.142 41.27C176.722 41.27 175.462 41.02 174.362 40.52C173.282 40 172.432 39.28 171.812 38.36C171.192 37.42 170.882 36.34 170.882 35.12V32.57C170.882 31.49 171.172 30.5 171.752 29.6C172.352 28.68 173.142 27.95 174.122 27.41C175.122 26.85 176.232 26.57 177.452 26.57C178.572 26.57 179.592 26.81 180.512 27.29C181.452 27.77 182.212 28.43 182.792 29.27C183.372 30.11 183.662 31.09 183.662 32.21C183.662 33.07 183.522 33.69 183.242 34.07C182.962 34.43 182.602 34.66 182.162 34.76C181.742 34.84 181.302 34.88 180.842 34.88H174.752V35.33C174.752 36.19 175.072 36.89 175.712 37.43C176.372 37.95 177.222 38.21 178.262 38.21C178.922 38.21 179.472 38.11 179.912 37.91C180.352 37.71 180.732 37.52 181.052 37.34C181.372 37.16 181.672 37.07 181.952 37.07C182.252 37.07 182.512 37.17 182.732 37.37C182.952 37.57 183.122 37.81 183.242 38.09C183.362 38.35 183.422 38.58 183.422 38.78C183.422 39.12 183.202 39.49 182.762 39.89C182.342 40.27 181.732 40.6 180.932 40.88C180.152 41.14 179.222 41.27 178.142 41.27ZM174.752 32.6H179.132C179.472 32.6 179.702 32.55 179.822 32.45C179.962 32.33 180.032 32.11 180.032 31.79C180.032 31.33 179.912 30.92 179.672 30.56C179.432 30.2 179.112 29.92 178.712 29.72C178.312 29.52 177.872 29.42 177.392 29.42C176.932 29.42 176.502 29.52 176.102 29.72C175.702 29.9 175.372 30.17 175.112 30.53C174.872 30.87 174.752 31.28 174.752 31.76V32.6Z" fill="white"/>
</svg>
