<svg width="66" height="47" viewBox="0 0 66 47" fill="none" xmlns="http://www.w3.org/2000/svg">
<path d="M15.0008 18.7435C14.2671 18.7435 13.563 18.8502 12.8622 18.9476C13.0892 18.2192 13.3228 17.4782 13.6979 16.8126C14.073 15.8456 14.6586 15.0073 15.241 14.1628C15.7279 13.2492 16.5867 12.6307 17.2184 11.8489C17.8797 11.0891 18.7812 10.5836 19.4952 9.95257C20.196 9.29325 21.114 8.96359 21.8444 8.49893C22.6078 8.08136 23.2724 7.61984 23.9831 7.40007L25.7565 6.70307L27.316 6.08457L25.7203 0L23.756 0.452103C23.1276 0.602804 22.361 0.778623 21.4891 0.988977C20.5974 1.14596 19.6466 1.57609 18.5871 1.96854C17.5408 2.41436 16.33 2.71576 15.2048 3.4316C14.073 4.11603 12.7668 4.68744 11.6152 5.60421C10.4998 6.54923 9.1541 7.36867 8.16046 8.57114C7.07469 9.69512 6.00209 10.8756 5.16966 12.2194C4.20563 13.5003 3.55088 14.9069 2.85994 16.2977C2.2348 17.6886 1.7314 19.1108 1.32012 20.4923C0.540342 23.2614 0.19158 25.8924 0.0566812 28.1435C-0.0551858 30.3977 0.0106183 32.2721 0.148807 33.6284C0.19816 34.2689 0.290286 34.8905 0.35609 35.3206L0.438345 35.8481L0.52389 35.8293C1.10909 38.4377 2.45624 40.8348 4.4095 42.7433C6.36277 44.6517 8.84233 45.9934 11.5613 46.6133C14.2804 47.2331 17.1277 47.1058 19.7741 46.246C22.4204 45.3861 24.7576 43.829 26.5152 41.7546C28.2729 39.6802 29.3792 37.1734 29.7061 34.5241C30.0331 31.8748 29.5673 29.1914 28.3628 26.7841C27.1582 24.3769 25.2641 22.3442 22.8994 20.9213C20.5348 19.4984 17.7963 18.7433 15.0008 18.7435ZM51.1931 18.7435C50.4594 18.7435 49.7553 18.8502 49.0544 18.9476C49.2815 18.2192 49.5151 17.4782 49.8902 16.8126C50.2652 15.8456 50.8509 15.0073 51.4333 14.1628C51.9202 13.2492 52.779 12.6307 53.4107 11.8489C54.072 11.0891 54.9735 10.5836 55.6875 9.95257C56.3883 9.29325 57.3063 8.96359 58.0367 8.49893C58.8 8.08136 59.4647 7.61984 60.1753 7.40007L61.9488 6.70307L63.5083 6.08457L61.9126 0L59.9483 0.452103C59.3199 0.602804 58.5533 0.778623 57.6814 0.988977C56.7897 1.14596 55.8389 1.57609 54.7794 1.96854C53.7364 2.4175 52.5223 2.71576 51.3971 3.43474C50.2652 4.11917 48.959 4.69058 47.8075 5.60735C46.6921 6.55237 45.3464 7.37181 44.3527 8.57114C43.267 9.69512 42.1944 10.8756 41.3619 12.2194C40.3979 13.5003 39.7432 14.9069 39.0522 16.2977C38.4271 17.6886 37.9237 19.1108 37.5124 20.4923C36.7326 23.2614 36.3839 25.8924 36.249 28.1435C36.1371 30.3977 36.2029 32.2721 36.3411 33.6284C36.3904 34.2689 36.4826 34.8905 36.5484 35.3206L36.6306 35.8481L36.7162 35.8293C37.3014 38.4377 38.6485 40.8348 40.6018 42.7433C42.555 44.6517 45.0346 45.9934 47.7536 46.6133C50.4726 47.2331 53.32 47.1058 55.9664 46.246C58.6127 45.3861 60.9499 43.829 62.7075 41.7546C64.4651 39.6802 65.5714 37.1734 65.8984 34.5241C66.2253 31.8748 65.7596 29.1914 64.555 26.7841C63.3505 24.3769 61.4563 22.3442 59.0917 20.9213C56.7271 19.4984 53.9886 18.7433 51.1931 18.7435Z" fill="#123252"/>
</svg>
