<svg width="64" height="46" viewBox="0 0 64 46" fill="none" xmlns="http://www.w3.org/2000/svg">
<path d="M49.4538 27.6553C50.1653 27.6553 50.848 27.5508 51.5276 27.4556C51.3075 28.1685 51.0809 28.8937 50.7172 29.5451C50.3535 30.4915 49.7856 31.312 49.2209 32.1385C48.7487 33.0327 47.9159 33.6381 47.3034 34.4032C46.6621 35.1468 45.7879 35.6416 45.0955 36.2592C44.416 36.9045 43.5258 37.2271 42.8175 37.6819C42.0773 38.0906 41.4328 38.5423 40.7437 38.7574L39.024 39.4395L37.5117 40.0449L39.0591 46L40.9638 45.5575C41.5732 45.41 42.3166 45.2379 43.1621 45.0321C44.0267 44.8784 44.9488 44.4574 45.9761 44.0733C46.9907 43.637 48.1648 43.342 49.256 42.6414C50.3535 41.9715 51.6201 41.4123 52.7368 40.515C53.8184 39.5901 55.1233 38.7881 56.0868 37.6112C57.1397 36.5112 58.1798 35.3558 58.987 34.0406C59.9218 32.7869 60.5567 31.4103 61.2267 30.049C61.8329 28.6878 62.3211 27.2958 62.7199 25.9438C63.476 23.2335 63.8142 20.6585 63.945 18.4553C64.0535 16.249 63.9897 14.4146 63.8557 13.0871C63.8078 12.4603 63.7185 11.8518 63.6547 11.4309L63.5749 10.9146L63.492 10.9331C62.9245 8.38008 61.6182 6.03399 59.7241 4.16619C57.83 2.29838 55.4256 0.985176 52.789 0.3785C50.1524 -0.228176 47.3913 -0.103541 44.8251 0.73799C42.259 1.57952 39.9926 3.10356 38.2883 5.13381C36.5839 7.16405 35.5111 9.61754 35.1941 12.2104C34.877 14.8034 35.3287 17.4297 36.4967 19.7858C37.6648 22.1418 39.5015 24.1312 41.7945 25.5239C44.0874 26.9165 46.7429 27.6555 49.4538 27.6553ZM14.3582 27.6553C15.0697 27.6553 15.7525 27.5508 16.4321 27.4556C16.2119 28.1685 15.9854 28.8937 15.6217 29.5451C15.2579 30.4915 14.69 31.312 14.1253 32.1385C13.6531 33.0327 12.8204 33.6381 12.2078 34.4032C11.5665 35.1468 10.6923 35.6415 10 36.2592C9.32042 36.9045 8.43027 37.2271 7.72197 37.6819C6.98178 38.0906 6.3373 38.5423 5.64815 38.7574L3.92847 39.4395L2.41616 40.0449L3.96356 46L5.86829 45.5575C6.47768 45.41 7.22107 45.2379 8.06655 45.0321C8.93118 44.8784 9.85323 44.4574 10.8806 44.0733C11.892 43.6339 13.0693 43.342 14.1604 42.6383C15.2579 41.9685 16.5246 41.4092 17.6412 40.512C18.7228 39.587 20.0278 38.785 20.9913 37.6112C22.0441 36.5112 23.0843 35.3558 23.8915 34.0406C24.8263 32.7869 25.4612 31.4103 26.1312 30.049C26.7374 28.6878 27.2255 27.2958 27.6243 25.9438C28.3805 23.2335 28.7187 20.6585 28.8495 18.4553C28.958 16.249 28.8942 14.4146 28.7602 13.0871C28.7123 12.4603 28.623 11.8518 28.5592 11.4309L28.4794 10.9146L28.3964 10.9331C27.829 8.38008 26.5226 6.03399 24.6286 4.16618C22.7345 2.29837 20.3301 0.985173 17.6935 0.378497C15.0568 -0.228179 12.2957 -0.103544 9.72959 0.737987C7.16344 1.57952 4.89709 3.10356 3.19272 5.1338C1.48834 7.16405 0.415574 9.61753 0.0985297 12.2104C-0.218515 14.8034 0.233114 17.4297 1.40117 19.7858C2.56922 22.1418 4.40596 24.1312 6.69893 25.5239C8.9919 26.9165 11.6474 27.6555 14.3582 27.6553Z" fill="#123252"/>
</svg>
