<svg width="886" height="354" viewBox="0 0 886 354" fill="none" xmlns="http://www.w3.org/2000/svg">
<path d="M446.102 353.571C685.95 353.571 880.385 340.699 880.385 324.82C880.385 308.942 685.95 296.07 446.102 296.07C206.255 296.07 11.8201 308.942 11.8201 324.82C11.8201 340.699 206.255 353.571 446.102 353.571Z" fill="#F2F2F2"/>
<path d="M429.458 10.0791C358.701 10.0791 307.899 55.4745 307.899 161.397C307.899 281.443 358.701 313.219 429.458 313.219C500.214 313.219 554.043 278.416 554.043 161.397C554.043 36.3075 500.214 10.0791 429.458 10.0791ZM429.923 273.372C380.915 273.372 355.312 244.621 355.312 161.475C355.312 88.1102 381.963 49.4218 430.971 49.4218C479.978 49.4218 506.63 74.8347 506.63 161.475C506.63 242.525 478.93 273.372 429.923 273.372Z" fill="#2E3241"/>
<path d="M265.53 229.49H236.275V143.342C236.275 138.766 234.457 134.378 231.222 131.143C227.986 127.907 223.598 126.089 219.022 126.089H212.167C209.902 126.089 207.658 126.536 205.565 127.403C203.472 128.27 201.57 129.541 199.968 131.143C198.366 132.745 197.095 134.647 196.228 136.74C195.361 138.833 194.915 141.076 194.915 143.342V229.49H112.397C110.699 229.49 109.031 229.051 107.553 228.216C106.075 227.381 104.837 226.179 103.961 224.725C103.085 223.271 102.599 221.615 102.552 219.918C102.504 218.221 102.896 216.541 103.689 215.04L191.025 49.7405C192.113 47.6796 192.773 45.4195 192.965 43.0965C193.156 40.7736 192.874 38.436 192.137 36.2248C191.4 34.0136 190.223 31.9746 188.676 30.2311C187.129 28.4876 185.245 27.0755 183.137 26.0802L177.981 23.6456C173.978 21.7552 169.401 21.476 165.198 22.866C160.995 24.2559 157.487 27.2085 155.399 31.1128L48.8817 230.374C47.0679 233.768 46.1189 237.556 46.1189 241.403V241.403C46.1189 244.475 46.724 247.517 47.8997 250.356C49.0754 253.194 50.7986 255.773 52.9709 257.945C55.1433 260.118 57.7223 261.841 60.5606 263.017C63.3989 264.192 66.441 264.797 69.5132 264.797H194.915V319.272C194.915 321.988 195.45 324.677 196.489 327.186C197.528 329.695 199.052 331.975 200.972 333.895C202.892 335.815 205.172 337.339 207.681 338.378C210.19 339.417 212.879 339.952 215.595 339.952H215.595C218.311 339.952 221 339.417 223.509 338.378C226.018 337.339 228.298 335.815 230.218 333.895C232.138 331.975 233.662 329.695 234.701 327.186C235.74 324.677 236.275 321.988 236.275 319.272V264.798H265.53C270.212 264.798 274.702 262.938 278.013 259.627C281.324 256.316 283.184 251.826 283.184 247.144V247.144C283.184 242.462 281.324 237.971 278.013 234.661C274.702 231.35 270.212 229.49 265.53 229.49V229.49Z" fill="#0D3B66"/>
<path d="M807.248 229.49H777.993V143.342C777.993 138.766 776.175 134.378 772.94 131.143C769.704 127.907 765.316 126.089 760.74 126.089H753.885C751.62 126.089 749.376 126.536 747.283 127.403C745.19 128.27 743.288 129.541 741.686 131.143C740.084 132.745 738.813 134.647 737.946 136.74C737.079 138.833 736.633 141.076 736.633 143.342V229.49H654.115C652.417 229.49 650.749 229.051 649.271 228.216C647.793 227.381 646.555 226.179 645.679 224.725C644.803 223.271 644.317 221.615 644.27 219.918C644.222 218.221 644.614 216.541 645.407 215.04L732.743 49.7405C733.831 47.6797 734.491 45.4195 734.683 43.0966C734.874 40.7736 734.592 38.436 733.855 36.2248C733.118 34.0136 731.941 31.9746 730.394 30.2311C728.847 28.4876 726.963 27.0755 724.855 26.0802L719.699 23.6456C715.696 21.7552 711.119 21.476 706.916 22.866C702.713 24.2559 699.205 27.2085 697.117 31.1128L590.6 230.374C588.786 233.768 587.837 237.556 587.837 241.403V241.403C587.837 247.608 590.302 253.558 594.689 257.945C599.076 262.333 605.027 264.797 611.231 264.797H736.633V319.272C736.633 324.757 738.812 330.017 742.69 333.895C746.568 337.773 751.828 339.952 757.313 339.952V339.952C762.798 339.952 768.058 337.773 771.936 333.895C775.814 330.017 777.993 324.757 777.993 319.272V264.798H807.248C811.93 264.798 816.42 262.938 819.731 259.627C823.042 256.316 824.901 251.826 824.901 247.144V247.144C824.902 242.462 823.042 237.971 819.731 234.661C816.42 231.35 811.93 229.49 807.248 229.49Z" fill="#0D3B66"/>
<path d="M273.6 219.402H244.345V133.254C244.345 130.989 243.899 128.745 243.032 126.652C242.165 124.559 240.894 122.657 239.292 121.055C237.69 119.453 235.788 118.182 233.695 117.315C231.602 116.448 229.358 116.002 227.093 116.002H220.238C215.662 116.002 211.274 117.819 208.038 121.055C204.803 124.29 202.985 128.679 202.985 133.254V219.402H120.467C118.77 219.402 117.101 218.963 115.623 218.128C114.145 217.293 112.908 216.091 112.032 214.637C111.155 213.183 110.67 211.527 110.622 209.83C110.574 208.133 110.966 206.453 111.759 204.952L199.095 39.6527C200.184 37.5918 200.844 35.3316 201.035 33.0087C201.226 30.6857 200.945 28.3481 200.208 26.1369C199.471 23.9257 198.293 21.8868 196.746 20.1432C195.199 18.3997 193.315 16.9876 191.207 15.9923L186.052 13.5577C182.049 11.6673 177.472 11.3882 173.268 12.7781C169.065 14.168 165.557 17.1206 163.47 21.0249L56.952 220.287C55.1382 223.68 54.1892 227.468 54.1892 231.315V231.315C54.1892 237.52 56.654 243.47 61.0412 247.858C65.4285 252.245 71.3789 254.71 77.5835 254.71H202.985V309.184C202.985 311.9 203.52 314.589 204.559 317.098C205.599 319.607 207.122 321.887 209.042 323.807C210.963 325.727 213.242 327.251 215.751 328.29C218.26 329.329 220.949 329.864 223.665 329.864H223.665C229.15 329.864 234.41 327.685 238.288 323.807C242.167 319.929 244.345 314.669 244.345 309.184V254.71H273.6C275.918 254.71 278.214 254.253 280.356 253.366C282.498 252.479 284.444 251.178 286.083 249.539C287.722 247.9 289.023 245.954 289.91 243.812C290.797 241.67 291.254 239.374 291.254 237.056V237.056C291.254 234.738 290.797 232.442 289.91 230.3C289.023 228.158 287.723 226.212 286.083 224.573C284.444 222.934 282.498 221.633 280.356 220.746C278.214 219.859 275.918 219.402 273.6 219.402V219.402Z" stroke="#3F3D56" stroke-miterlimit="10"/>
<path d="M822.38 219.402H793.125V133.254C793.125 128.679 791.307 124.29 788.072 121.055C784.836 117.819 780.448 116.002 775.872 116.002H769.017C766.752 116.002 764.508 116.448 762.415 117.315C760.322 118.182 758.42 119.453 756.818 121.055C755.216 122.657 753.945 124.559 753.078 126.652C752.211 128.745 751.765 130.989 751.765 133.254V219.402H669.247C667.549 219.402 665.881 218.963 664.402 218.128C662.924 217.293 661.687 216.091 660.811 214.637C659.935 213.183 659.449 211.527 659.402 209.83C659.354 208.133 659.745 206.453 660.538 204.952L747.874 39.6527C748.963 37.5918 749.623 35.3316 749.814 33.0087C750.006 30.6857 749.724 28.3481 748.987 26.1369C748.25 23.9257 747.073 21.8868 745.526 20.1432C743.979 18.3997 742.095 16.9876 739.987 15.9923L734.831 13.5577C730.828 11.6673 726.251 11.3882 722.048 12.7781C717.845 14.168 714.336 17.1206 712.249 21.0249L605.732 220.287C603.918 223.68 602.969 227.468 602.969 231.315C602.969 237.52 605.434 243.47 609.821 247.858C614.208 252.245 620.158 254.71 626.363 254.71H751.765V309.184C751.765 314.669 753.943 319.929 757.822 323.807C761.7 327.685 766.96 329.864 772.445 329.864V329.864C777.929 329.864 783.189 327.685 787.068 323.807C790.946 319.929 793.125 314.669 793.125 309.184V254.71H822.38C824.698 254.71 826.994 254.253 829.135 253.366C831.277 252.479 833.223 251.178 834.863 249.539C836.502 247.9 837.802 245.954 838.69 243.812C839.577 241.67 840.033 239.374 840.033 237.056V237.056C840.033 232.374 838.173 227.884 834.863 224.573C831.552 221.262 827.062 219.402 822.38 219.402V219.402Z" stroke="#3F3D56" stroke-miterlimit="10"/>
<path d="M445.598 1C374.842 1 324.04 46.3954 324.04 152.318C324.04 272.363 374.842 304.14 445.598 304.14C516.355 304.14 570.183 269.337 570.183 152.318C570.183 27.2284 516.355 1 445.598 1ZM446.063 264.293C397.056 264.293 371.453 235.542 371.453 152.395C371.453 79.0311 398.104 40.3427 447.111 40.3427C496.119 40.3427 522.77 65.7556 522.77 152.395C522.77 233.446 495.071 264.293 446.063 264.293V264.293Z" stroke="#3F3D56" stroke-miterlimit="10"/>
<path d="M829.934 217.991C832.428 218.898 835.099 219.213 837.735 218.911C840.372 218.61 842.902 217.7 845.127 216.254C847.352 214.808 849.21 212.865 850.556 210.577C851.902 208.29 852.698 205.722 852.882 203.075C853.066 200.427 852.632 197.774 851.615 195.323C850.599 192.871 849.026 190.69 847.023 188.95C845.019 187.21 842.639 185.959 840.069 185.297C837.5 184.634 834.811 184.576 832.216 185.13L832.645 193.949L828.472 186.391C824.377 188.315 821.214 191.786 819.677 196.042C819.131 197.532 818.799 199.093 818.691 200.677C818.428 204.393 819.383 208.093 821.412 211.218C823.441 214.342 826.432 216.72 829.934 217.991V217.991Z" fill="#57B894"/>
<path d="M850.58 320.279C849.107 312.778 855.49 306.129 861.794 301.807C868.098 297.485 875.465 293.239 877.616 285.904C880.707 275.363 871.499 265.709 864.332 257.384C859.014 251.206 854.448 244.419 850.728 237.166C849.237 234.258 847.866 231.218 847.474 227.973C846.909 223.301 848.41 218.651 849.923 214.194C854.961 199.347 860.347 184.624 866.082 170.025" stroke="#3F3D56" stroke-miterlimit="10"/>
<path d="M830.64 215.721C833.134 216.627 835.804 216.942 838.441 216.641C841.077 216.339 843.608 215.43 845.833 213.983C848.058 212.537 849.916 210.594 851.262 208.307C852.608 206.02 853.404 203.451 853.588 200.804C853.772 198.157 853.338 195.503 852.321 193.052C851.304 190.601 849.732 188.419 847.729 186.679C845.725 184.939 843.344 183.689 840.775 183.026C838.205 182.363 835.517 182.306 832.922 182.859L833.351 191.678L829.178 184.12C825.083 186.044 821.919 189.515 820.382 193.771C819.837 195.262 819.505 196.822 819.397 198.406C819.133 202.122 820.089 205.823 822.117 208.947C824.146 212.071 827.138 214.449 830.64 215.721V215.721Z" stroke="#3F3D56" stroke-miterlimit="10"/>
<path d="M848.486 166.979C849.465 164.279 851.107 161.868 853.262 159.969C855.418 158.071 858.016 156.745 860.818 156.114L862.229 164.498L864.845 155.693C868.476 155.746 871.997 156.953 874.898 159.138C877.799 161.323 879.931 164.374 880.985 167.849C882.04 171.325 881.963 175.046 880.765 178.475C879.566 181.903 877.31 184.863 874.32 186.925C871.331 188.988 867.763 190.047 864.132 189.95C860.502 189.853 856.996 188.604 854.121 186.384C851.246 184.165 849.151 181.089 848.138 177.601C847.125 174.113 847.247 170.394 848.486 166.979H848.486Z" fill="#57B894"/>
<path d="M849.427 163.952C850.405 161.251 852.048 158.841 854.203 156.942C856.359 155.043 858.957 153.717 861.759 153.086L863.17 161.471L865.786 152.665C869.417 152.719 872.938 153.925 875.839 156.111C878.74 158.296 880.872 161.346 881.926 164.822C882.981 168.297 882.903 172.018 881.705 175.447C880.507 178.876 878.251 181.835 875.261 183.898C872.272 185.96 868.704 187.019 865.073 186.922C861.443 186.825 857.937 185.576 855.062 183.357C852.187 181.137 850.092 178.061 849.079 174.574C848.066 171.086 848.188 167.366 849.427 163.952H849.427Z" stroke="#3F3D56" stroke-miterlimit="10"/>
<path d="M861.324 257.554C865.279 258.989 869.624 258.918 873.53 257.355C877.436 255.792 880.631 252.846 882.505 249.08C884.379 245.313 884.801 240.988 883.692 236.929C882.582 232.871 880.018 229.363 876.488 227.074L874.478 233.841L873.053 225.358C873.039 225.351 873.024 225.345 873.009 225.341C870.894 224.572 868.647 224.228 866.399 224.327C864.15 224.427 861.943 224.969 859.904 225.921C857.865 226.874 856.033 228.22 854.514 229.88C852.995 231.541 851.818 233.485 851.05 235.601C850.283 237.717 849.94 239.964 850.04 242.212C850.141 244.461 850.684 246.667 851.638 248.706C852.592 250.745 853.939 252.576 855.601 254.094C857.262 255.612 859.207 256.788 861.323 257.554H861.324Z" fill="#57B894"/>
<path d="M862.139 254.487C866.094 255.922 870.439 255.851 874.345 254.288C878.251 252.725 881.446 249.78 883.32 246.013C885.194 242.246 885.616 237.921 884.507 233.863C883.397 229.804 880.833 226.296 877.303 224.007L875.293 230.774L873.868 222.291C873.854 222.284 873.839 222.279 873.824 222.274C871.709 221.506 869.463 221.161 867.214 221.261C864.965 221.36 862.758 221.902 860.719 222.855C858.68 223.808 856.848 225.153 855.329 226.814C853.81 228.475 852.633 230.419 851.865 232.535C851.098 234.651 850.755 236.897 850.856 239.146C850.957 241.394 851.499 243.601 852.454 245.64C853.408 247.678 854.754 249.509 856.416 251.027C858.078 252.545 860.022 253.721 862.139 254.487H862.139Z" stroke="#3F3D56" stroke-miterlimit="10"/>
<path d="M843.485 286.009C844.165 289.878 846.155 293.396 849.121 295.973C852.087 298.549 855.849 300.028 859.776 300.16C863.703 300.292 867.555 299.07 870.688 296.699C873.821 294.328 876.043 290.952 876.982 287.137C877.92 283.322 877.519 279.3 875.844 275.745C874.17 272.191 871.324 269.321 867.785 267.616C864.245 265.911 860.227 265.475 856.404 266.38C852.581 267.286 849.185 269.479 846.787 272.591L854.421 284.081L843.99 277.983C843.182 280.579 843.008 283.331 843.485 286.009V286.009Z" fill="#57B894"/>
<path d="M844.191 283.738C844.871 287.608 846.861 291.126 849.827 293.702C852.793 296.279 856.555 297.757 860.482 297.89C864.408 298.022 868.261 296.8 871.394 294.429C874.526 292.057 876.749 288.681 877.687 284.866C878.626 281.051 878.225 277.029 876.55 273.475C874.876 269.921 872.03 267.05 868.49 265.345C864.951 263.64 860.933 263.204 857.109 264.11C853.286 265.016 849.891 267.209 847.493 270.321L855.127 281.811L844.696 275.712C843.887 278.308 843.714 281.061 844.191 283.738V283.738Z" stroke="#3F3D56" stroke-miterlimit="10"/>
<path d="M8.41509 259.731C10.0537 260.327 11.8082 260.534 13.5404 260.335C15.2726 260.137 16.9352 259.54 18.397 258.589C19.8588 257.639 21.0799 256.363 21.9641 254.86C22.8483 253.357 23.3714 251.67 23.4922 249.93C23.613 248.191 23.3281 246.448 22.6601 244.837C21.9921 243.227 20.9591 241.793 19.6426 240.65C18.3262 239.507 16.7622 238.685 15.074 238.25C13.3858 237.814 11.6195 237.777 9.91429 238.14L10.1961 243.935L7.45465 238.969C4.76409 240.233 2.68552 242.514 1.67572 245.31C1.3171 246.289 1.09908 247.314 1.02817 248.355C0.855133 250.796 1.48265 253.228 2.81562 255.281C4.1486 257.333 6.11438 258.896 8.41509 259.731V259.731Z" fill="#57B894"/>
<path d="M21.9797 326.936C21.012 322.008 25.2053 317.639 29.3474 314.8C33.4894 311.96 38.3292 309.17 39.7425 304.351C41.7736 297.425 35.7235 291.082 31.0145 285.613C27.5209 281.554 24.5207 277.095 22.0767 272.329C21.0142 270.458 20.2905 268.413 19.9389 266.289C19.5676 263.219 20.5539 260.165 21.5475 257.236C24.8576 247.481 28.3967 237.808 32.1648 228.216" stroke="#3F3D56" stroke-miterlimit="10"/>
<path d="M8.87872 258.239C10.5173 258.835 12.2718 259.042 14.004 258.844C15.7363 258.646 17.3988 258.048 18.8606 257.098C20.3224 256.148 21.5435 254.871 22.4277 253.368C23.3119 251.865 23.835 250.178 23.9558 248.439C24.0766 246.699 23.7917 244.956 23.1237 243.345C22.4557 241.735 21.4227 240.302 20.1063 239.159C18.7898 238.015 17.2258 237.194 15.5376 236.758C13.8494 236.323 12.0831 236.285 10.3779 236.649L10.6597 242.443L7.91827 237.477C5.22772 238.741 3.14915 241.022 2.13934 243.818C1.78072 244.797 1.56271 245.823 1.4918 246.863C1.31875 249.305 1.94626 251.736 3.27924 253.789C4.61221 255.842 6.578 257.404 8.87872 258.239V258.239Z" stroke="#3F3D56" stroke-miterlimit="10"/>
<path d="M20.6038 226.215C21.2468 224.441 22.3261 222.857 23.7421 221.609C25.1582 220.362 26.8654 219.491 28.7066 219.076L29.6335 224.585L31.352 218.8C33.738 218.835 36.0511 219.628 37.9572 221.063C39.8633 222.499 41.2639 224.503 41.9566 226.787C42.6494 229.07 42.5986 231.515 41.8115 233.768C41.0243 236.02 39.5416 237.965 37.5775 239.32C35.6133 240.675 33.2693 241.371 30.8839 241.307C28.4984 241.243 26.195 240.423 24.3062 238.965C22.4173 237.506 21.0408 235.485 20.3753 233.194C19.7098 230.902 19.7898 228.458 20.6038 226.215V226.215Z" fill="#57B894"/>
<path d="M21.2219 224.226C21.865 222.452 22.9442 220.868 24.3603 219.62C25.7763 218.373 27.4836 217.502 29.3248 217.087L30.2517 222.596L31.9702 216.811C34.3562 216.846 36.6692 217.639 38.5754 219.074C40.4815 220.51 41.882 222.514 42.5748 224.798C43.2676 227.081 43.2167 229.526 42.4296 231.779C41.6425 234.031 40.1598 235.976 38.1956 237.331C36.2315 238.686 33.8875 239.382 31.502 239.318C29.1166 239.254 26.8132 238.434 24.9243 236.976C23.0355 235.517 21.6589 233.496 20.9935 231.205C20.328 228.913 20.408 226.469 21.2219 224.226V224.226Z" stroke="#3F3D56" stroke-miterlimit="10"/>
<path d="M29.0385 285.724C31.6371 286.667 34.4917 286.62 37.0582 285.594C39.6247 284.567 41.7237 282.631 42.955 280.156C44.1863 277.682 44.4638 274.84 43.7347 272.174C43.0056 269.507 41.3209 267.202 39.0016 265.698L37.6811 270.144L36.7447 264.571C36.7355 264.566 36.7259 264.563 36.7161 264.56C35.3261 264.054 33.8501 263.828 32.3726 263.893C30.895 263.958 29.4447 264.314 28.1047 264.94C26.7647 265.566 25.5611 266.45 24.5629 267.541C23.5646 268.633 22.7912 269.91 22.2868 271.3C21.7825 272.691 21.557 274.167 21.6234 275.644C21.6898 277.122 22.0467 278.572 22.6737 279.911C23.3007 281.251 24.1856 282.454 25.2777 283.451C26.3698 284.449 27.6477 285.221 29.0385 285.724V285.724Z" fill="#57B894"/>
<path d="M29.574 283.71C32.1726 284.652 35.0272 284.606 37.5937 283.579C40.1602 282.552 42.2592 280.617 43.4905 278.142C44.7217 275.667 44.9993 272.825 44.2702 270.159C43.5411 267.493 41.8563 265.188 39.537 263.684L38.2166 268.13L37.2802 262.556C37.271 262.552 37.2614 262.548 37.2516 262.545C35.8619 262.041 34.3865 261.816 32.9097 261.882C31.4329 261.948 29.9836 262.304 28.6444 262.93C25.94 264.195 23.8486 266.482 22.8305 269.289C21.8124 272.095 21.9509 275.191 23.2156 277.896C24.4802 280.6 26.7674 282.692 29.574 283.71V283.71Z" stroke="#3F3D56" stroke-miterlimit="10"/>
<path d="M17.3184 304.42C17.7653 306.962 19.0727 309.274 21.0214 310.966C22.9702 312.659 25.4417 313.631 28.0216 313.717C30.6015 313.804 33.1328 313.002 35.191 311.444C37.2493 309.886 38.7092 307.667 39.326 305.161C39.9429 302.654 39.6791 300.012 38.5789 297.677C37.4787 295.341 35.609 293.456 33.2835 292.335C30.9579 291.215 28.3178 290.928 25.806 291.524C23.2942 292.119 21.0634 293.56 19.4878 295.604L24.5035 303.154L17.6502 299.147C17.1188 300.852 17.005 302.661 17.3184 304.42V304.42Z" fill="#57B894"/>
<path d="M17.7821 302.928C18.2289 305.47 19.5363 307.782 21.485 309.474C23.4338 311.167 25.9054 312.139 28.4852 312.226C31.0651 312.312 33.5965 311.51 35.6547 309.952C37.7129 308.394 39.1728 306.175 39.7897 303.669C40.4065 301.162 40.1427 298.52 39.0425 296.185C37.9423 293.85 36.0727 291.964 33.7471 290.843C31.4215 289.723 28.7814 289.437 26.2696 290.032C23.7578 290.627 21.527 292.068 19.9514 294.112L24.9671 301.662L18.1138 297.655C17.5824 299.36 17.4687 301.169 17.7821 302.928V302.928Z" stroke="#3F3D56" stroke-miterlimit="10"/>
<path d="M396.955 153.418C404.684 153.418 410.95 145.308 410.95 135.305C410.95 125.302 404.684 117.193 396.955 117.193C389.225 117.193 382.959 125.302 382.959 135.305C382.959 145.308 389.225 153.418 396.955 153.418Z" fill="#2F2E41"/>
<path d="M473.108 153.829C480.838 153.829 487.104 145.72 487.104 135.717C487.104 125.714 480.838 117.605 473.108 117.605C465.379 117.605 459.113 125.714 459.113 135.717C459.113 145.72 465.379 153.829 473.108 153.829Z" fill="#2F2E41"/>
<path d="M462.406 189.23C462.406 197.414 450.978 204.05 436.884 204.05C422.789 204.05 411.362 197.414 411.362 189.23C411.362 182.142 419.932 176.214 431.384 174.765C433.208 174.525 435.045 174.407 436.884 174.411C439.965 174.401 443.038 174.733 446.047 175.399C455.614 177.532 462.406 182.924 462.406 189.23Z" fill="#2F2E41"/>
<path d="M400.248 149.301C407.977 149.301 414.244 141.192 414.244 131.189C414.244 121.186 407.977 113.077 400.248 113.077C392.518 113.077 386.252 121.186 386.252 131.189C386.252 141.192 392.518 149.301 400.248 149.301Z" stroke="#3F3D56" stroke-miterlimit="10"/>
<path d="M476.402 149.713C484.131 149.713 490.397 141.604 490.397 131.601C490.397 121.598 484.131 113.489 476.402 113.489C468.672 113.489 462.406 121.598 462.406 131.601C462.406 141.604 468.672 149.713 476.402 149.713Z" stroke="#3F3D56" stroke-miterlimit="10"/>
<path d="M440.177 199.933C454.272 199.933 465.699 193.298 465.699 185.114C465.699 176.93 454.272 170.295 440.177 170.295C426.082 170.295 414.655 176.93 414.655 185.114C414.655 193.298 426.082 199.933 440.177 199.933Z" stroke="#3F3D56" stroke-miterlimit="10"/>
<path d="M446.352 176.634C446.358 177.669 445.97 178.668 445.265 179.427C444.932 179.79 444.528 180.08 444.077 180.28C443.627 180.479 443.14 180.584 442.647 180.586H434.414C433.4 180.55 432.44 180.115 431.746 179.374C431.052 178.634 430.679 177.649 430.709 176.634C430.705 175.831 430.94 175.046 431.384 174.377C433.206 174.121 435.044 173.994 436.884 173.999C439.969 173.989 443.045 174.343 446.047 175.053C446.25 175.555 446.354 176.092 446.352 176.634V176.634Z" fill="white"/>
<path d="M400.248 130.366C402.521 130.366 404.364 128.523 404.364 126.249C404.364 123.976 402.521 122.133 400.248 122.133C397.974 122.133 396.131 123.976 396.131 126.249C396.131 128.523 397.974 130.366 400.248 130.366Z" fill="white"/>
<path d="M476.813 130.366C479.087 130.366 480.93 128.523 480.93 126.249C480.93 123.976 479.087 122.133 476.813 122.133C474.54 122.133 472.697 123.976 472.697 126.249C472.697 128.523 474.54 130.366 476.813 130.366Z" fill="white"/>
<path opacity="0.3" d="M480.929 169.06C483.203 169.06 485.046 167.217 485.046 164.944C485.046 162.67 483.203 160.827 480.929 160.827C478.656 160.827 476.813 162.67 476.813 164.944C476.813 167.217 478.656 169.06 480.929 169.06Z" fill="#6C63FF"/>
<path opacity="0.3" d="M380.489 169.06C382.762 169.06 384.605 167.217 384.605 164.944C384.605 162.67 382.762 160.827 380.489 160.827C378.216 160.827 376.373 162.67 376.373 164.944C376.373 167.217 378.216 169.06 380.489 169.06Z" fill="#6C63FF"/>
</svg>
