<svg width="451" height="428" viewBox="0 0 451 428" fill="none" xmlns="http://www.w3.org/2000/svg">
<g clip-path="url(#clip0)">
<path d="M274.173 101.558H271.825V37.231C271.825 27.3568 267.902 17.8869 260.92 10.9048C253.937 3.92267 244.467 0.00013453 234.593 0.00012207H98.302C93.4126 0.000109732 88.5711 0.963101 84.0539 2.83412C79.5367 4.70513 75.4322 7.44753 71.9749 10.9047C68.5176 14.3619 65.7751 18.4662 63.904 22.9833C62.0329 27.5003 61.0698 32.3417 61.0698 37.2309V390.135C61.0698 395.024 62.0329 399.866 63.9039 404.383C65.775 408.9 68.5175 413.004 71.9748 416.461C75.4322 419.918 79.5366 422.661 84.0538 424.532C88.571 426.403 93.4125 427.366 98.3019 427.366H234.592C244.467 427.366 253.937 423.443 260.919 416.461C267.902 409.479 271.824 400.009 271.825 390.135V147.347H274.173L274.173 101.558Z" fill="#E6E6E6"/>
<path d="M236.095 9.68628H218.304C219.122 11.692 219.435 13.8682 219.214 16.023C218.993 18.1779 218.245 20.2453 217.037 22.0432C215.828 23.8411 214.196 25.3142 212.285 26.3328C210.373 27.3515 208.24 27.8844 206.074 27.8845H127.995C125.828 27.8844 123.695 27.3515 121.784 26.3329C119.872 25.3142 118.24 23.8411 117.032 22.0432C115.823 20.2453 115.076 18.1779 114.855 16.023C114.634 13.8682 114.946 11.692 115.764 9.68628H99.1478C91.7736 9.68627 84.7014 12.6156 79.487 17.8297C74.2727 23.0439 71.3433 30.1159 71.3433 37.4898V389.876C71.3433 393.527 72.0624 397.143 73.4597 400.516C74.8571 403.889 76.9051 406.955 79.487 409.536C82.0689 412.118 85.1341 414.166 88.5075 415.563C91.8809 416.961 95.4964 417.68 99.1478 417.68H236.095C239.746 417.68 243.362 416.961 246.735 415.563C250.108 414.166 253.174 412.118 255.755 409.536C258.337 406.955 260.385 403.889 261.783 400.516C263.18 397.143 263.899 393.527 263.899 389.876V37.4898C263.899 33.8386 263.18 30.2231 261.783 26.8498C260.385 23.4766 258.337 20.4115 255.755 17.8297C253.174 15.2479 250.108 13.1999 246.735 11.8027C243.362 10.4054 239.746 9.68628 236.095 9.68628V9.68628Z" fill="white"/>
<path d="M450.413 428H0.58724C0.431494 428 0.282127 427.938 0.171998 427.828C0.0618693 427.718 0 427.569 0 427.413C0 427.257 0.0618693 427.108 0.171998 426.998C0.282127 426.888 0.431494 426.826 0.58724 426.826H450.413C450.568 426.826 450.718 426.888 450.828 426.998C450.938 427.108 451 427.257 451 427.413C451 427.569 450.938 427.718 450.828 427.828C450.718 427.938 450.568 428 450.413 428Z" fill="#3F3D56"/>
<path d="M250.646 107.17H84.5308C83.7152 107.169 82.9333 106.845 82.3567 106.268C81.78 105.691 81.4555 104.909 81.4546 104.094V62.8893C81.4555 62.0738 81.78 61.2919 82.3567 60.7153C82.9333 60.1386 83.7152 59.8142 84.5308 59.8132H250.646C251.461 59.8142 252.243 60.1386 252.82 60.7153C253.396 61.2919 253.721 62.0738 253.722 62.8893V104.094C253.721 104.91 253.396 105.691 252.82 106.268C252.243 106.845 251.461 107.169 250.646 107.17ZM84.5308 61.0436C84.0414 61.0442 83.5723 61.2388 83.2262 61.5848C82.8802 61.9308 82.6856 62.4 82.6851 62.8893V104.094C82.6856 104.583 82.8802 105.052 83.2262 105.398C83.5723 105.744 84.0414 105.939 84.5308 105.94H250.646C251.135 105.939 251.604 105.744 251.95 105.398C252.296 105.052 252.491 104.583 252.491 104.094V62.8893C252.491 62.4 252.296 61.9308 251.95 61.5848C251.604 61.2388 251.135 61.0442 250.646 61.0436H84.5308Z" fill="#CCCCCC"/>
<path d="M250.646 270.203H84.5308C83.7152 270.202 82.9333 269.877 82.3566 269.301C81.78 268.724 81.4556 267.942 81.4546 267.127V190.855C81.4555 190.039 81.78 189.257 82.3566 188.681C82.9333 188.104 83.7152 187.78 84.5308 187.779H250.646C251.461 187.78 252.243 188.104 252.82 188.681C253.396 189.257 253.721 190.039 253.722 190.855V267.127C253.721 267.942 253.396 268.724 252.82 269.301C252.243 269.877 251.461 270.202 250.646 270.203ZM84.5308 189.009C84.0414 189.01 83.5723 189.204 83.2262 189.55C82.8802 189.896 82.6856 190.365 82.6851 190.855V267.127C82.6856 267.616 82.8802 268.085 83.2262 268.431C83.5723 268.777 84.0414 268.972 84.5308 268.972H250.646C251.135 268.972 251.604 268.777 251.95 268.431C252.296 268.085 252.491 267.616 252.491 267.127V190.855C252.491 190.365 252.296 189.896 251.95 189.55C251.604 189.204 251.135 189.01 250.646 189.009L84.5308 189.009Z" fill="#CCCCCC"/>
<path d="M249.415 171.153H175.586C174.771 171.152 173.989 170.827 173.412 170.251C172.836 169.674 172.511 168.892 172.51 168.077V126.872C172.511 126.056 172.836 125.275 173.412 124.698C173.989 124.121 174.771 123.797 175.586 123.796H249.415C250.231 123.797 251.013 124.121 251.59 124.698C252.166 125.275 252.491 126.056 252.492 126.872V168.077C252.491 168.892 252.166 169.674 251.59 170.251C251.013 170.827 250.231 171.152 249.415 171.153ZM175.586 125.026C175.097 125.027 174.628 125.221 174.282 125.567C173.936 125.914 173.741 126.383 173.741 126.872V168.077C173.741 168.566 173.936 169.035 174.282 169.381C174.628 169.727 175.097 169.922 175.586 169.922H249.415C249.905 169.922 250.374 169.727 250.72 169.381C251.066 169.035 251.261 168.566 251.261 168.077V126.872C251.261 126.383 251.066 125.913 250.72 125.567C250.374 125.221 249.905 125.027 249.415 125.026L175.586 125.026Z" fill="#E7ECF0"/>
<path d="M158.36 369.868H84.5308C83.7152 369.867 82.9333 369.543 82.3566 368.966C81.78 368.389 81.4555 367.608 81.4546 366.792V289.905C81.4556 289.089 81.78 288.307 82.3567 287.731C82.9334 287.154 83.7152 286.83 84.5308 286.829H158.36C159.175 286.83 159.957 287.154 160.534 287.731C161.111 288.307 161.435 289.089 161.436 289.905V366.792C161.435 367.608 161.111 368.389 160.534 368.966C159.957 369.543 159.175 369.867 158.36 369.868ZM84.5308 288.059C84.0414 288.06 83.5723 288.254 83.2262 288.6C82.8802 288.946 82.6856 289.415 82.6851 289.905V366.792C82.6856 367.281 82.8802 367.751 83.2262 368.097C83.5723 368.443 84.0414 368.637 84.5308 368.638H158.36C158.849 368.637 159.318 368.443 159.664 368.097C160.01 367.751 160.205 367.281 160.205 366.792V289.905C160.205 289.415 160.01 288.946 159.664 288.6C159.318 288.254 158.849 288.06 158.36 288.059H84.5308Z" fill="#E7ECF0"/>
<path d="M249.415 369.868H175.586C174.771 369.867 173.989 369.543 173.412 368.966C172.836 368.389 172.511 367.608 172.51 366.792V289.905C172.511 289.089 172.836 288.307 173.412 287.731C173.989 287.154 174.771 286.83 175.586 286.829H249.415C250.231 286.83 251.013 287.154 251.59 287.731C252.166 288.307 252.491 289.089 252.492 289.905V366.792C252.491 367.608 252.166 368.389 251.59 368.966C251.013 369.543 250.231 369.867 249.415 369.868ZM175.586 288.059C175.097 288.06 174.628 288.254 174.282 288.6C173.936 288.946 173.741 289.415 173.741 289.905V366.792C173.741 367.281 173.936 367.751 174.282 368.097C174.628 368.443 175.097 368.637 175.586 368.638H249.415C249.905 368.637 250.374 368.443 250.72 368.097C251.066 367.751 251.261 367.281 251.261 366.792V289.905C251.261 289.415 251.066 288.946 250.72 288.6C250.374 288.254 249.905 288.06 249.415 288.059H175.586Z" fill="#E7ECF0"/>
<path d="M109.111 227.328C116.032 227.328 121.642 221.718 121.642 214.798C121.642 207.877 116.032 202.267 109.111 202.267C102.191 202.267 96.5806 207.877 96.5806 214.798C96.5806 221.718 102.191 227.328 109.111 227.328Z" fill="#0D3B66"/>
<path d="M138.051 206.444C137.497 206.444 136.966 206.664 136.575 207.056C136.183 207.447 135.963 207.979 135.963 208.532C135.963 209.086 136.183 209.618 136.575 210.009C136.966 210.401 137.497 210.621 138.051 210.621H236.508C237.061 210.62 237.591 210.399 237.981 210.007C238.372 209.616 238.591 209.085 238.591 208.532C238.591 207.979 238.372 207.449 237.981 207.058C237.591 206.666 237.061 206.445 236.508 206.444H138.051Z" fill="#0D3B66"/>
<path d="M138.051 218.974C137.777 218.974 137.505 219.027 137.252 219.132C136.998 219.236 136.768 219.39 136.573 219.583C136.379 219.777 136.225 220.006 136.119 220.26C136.014 220.513 135.959 220.784 135.959 221.058C135.958 221.333 136.011 221.604 136.116 221.858C136.22 222.112 136.374 222.342 136.567 222.536C136.761 222.731 136.991 222.885 137.244 222.991C137.497 223.096 137.768 223.151 138.043 223.151H180.417C180.692 223.152 180.964 223.098 181.218 222.993C181.471 222.889 181.702 222.735 181.896 222.541C182.091 222.347 182.245 222.116 182.35 221.863C182.455 221.609 182.509 221.337 182.509 221.063C182.509 220.788 182.455 220.516 182.35 220.263C182.245 220.009 182.091 219.779 181.896 219.585C181.702 219.391 181.471 219.237 181.218 219.132C180.964 219.028 180.692 218.974 180.417 218.974H138.051Z" fill="#0D3B66"/>
<path d="M99.5001 239.007C97.9114 239.007 96.6187 239.944 96.6187 241.095C96.6187 242.247 97.9114 243.184 99.5001 243.184H235.339C236.928 243.184 238.221 242.247 238.221 241.095C238.221 239.944 236.928 239.007 235.339 239.007H99.5001Z" fill="#E7ECF0"/>
<path d="M99.5001 251.537C97.9114 251.537 96.6187 252.474 96.6187 253.626C96.6187 254.777 97.9114 255.714 99.5001 255.714H235.339C236.928 255.714 238.221 254.777 238.221 253.626C238.221 252.474 236.928 251.537 235.339 251.537H99.5001Z" fill="#E7ECF0"/>
<path d="M110.342 94.4409C117.262 94.4409 122.873 88.8308 122.873 81.9105C122.873 74.9902 117.262 69.3801 110.342 69.3801C103.421 69.3801 97.811 74.9902 97.811 81.9105C97.811 88.8308 103.421 94.4409 110.342 94.4409Z" fill="#0D3B66"/>
<path d="M139.282 73.557C138.729 73.5583 138.199 73.7789 137.808 74.1704C137.418 74.5619 137.198 75.0924 137.198 75.6454C137.198 76.1984 137.418 76.7289 137.808 77.1204C138.199 77.5119 138.729 77.7325 139.282 77.7338H237.738C238.012 77.7347 238.284 77.6814 238.538 77.5772C238.792 77.4729 239.023 77.3196 239.218 77.126C239.412 76.9325 239.567 76.7025 239.672 76.4492C239.778 76.1959 239.833 75.9242 239.833 75.6498C239.834 75.3754 239.78 75.1035 239.676 74.8498C239.571 74.596 239.418 74.3654 239.224 74.171C239.03 73.9766 238.8 73.8224 238.546 73.717C238.293 73.6117 238.021 73.5573 237.747 73.557C237.744 73.557 237.741 73.557 237.738 73.557H139.282Z" fill="#0D3B66"/>
<path d="M139.282 86.0873C138.729 86.0886 138.199 86.3092 137.808 86.7007C137.418 87.0922 137.198 87.6226 137.198 88.1757C137.198 88.7287 137.418 89.2591 137.808 89.6506C138.199 90.0421 138.729 90.2627 139.282 90.2641H181.648C181.922 90.2649 182.194 90.2117 182.448 90.1074C182.702 90.0031 182.933 89.8498 183.127 89.6563C183.322 89.4628 183.476 89.2328 183.582 88.9795C183.688 88.7262 183.742 88.4545 183.743 88.1801C183.743 87.9056 183.69 87.6338 183.585 87.38C183.481 87.1263 183.327 86.8956 183.134 86.7013C182.94 86.5069 182.71 86.3526 182.456 86.2473C182.203 86.1419 181.931 86.0876 181.657 86.0873C181.654 86.0873 181.651 86.0873 181.648 86.0873H139.282Z" fill="#0D3B66"/>
<path d="M158.295 171.16H89.0366L105.335 142.93C105.627 142.424 106.048 142.004 106.554 141.712C107.06 141.42 107.633 141.266 108.218 141.266C108.802 141.266 109.376 141.42 109.882 141.712C110.388 142.004 110.808 142.424 111.1 142.93L118.063 154.99L129.902 134.485C130.267 133.852 130.793 133.326 131.427 132.96C132.06 132.594 132.779 132.401 133.51 132.401C134.242 132.401 134.96 132.594 135.594 132.96C136.227 133.326 136.754 133.852 137.119 134.485L158.295 171.16ZM91.1677 169.93H156.163L136.053 135.1C135.796 134.654 135.425 134.283 134.979 134.025C134.532 133.768 134.026 133.632 133.511 133.632C132.995 133.632 132.489 133.768 132.042 134.025C131.596 134.283 131.225 134.654 130.968 135.1L118.063 157.451L110.034 143.546C109.85 143.227 109.586 142.962 109.267 142.778C108.948 142.594 108.586 142.497 108.218 142.497C107.85 142.497 107.488 142.594 107.169 142.778C106.85 142.962 106.585 143.227 106.401 143.546L91.1677 169.93Z" fill="#E7ECF0"/>
<path d="M246.889 171.16H177.631L193.93 142.93C194.222 142.424 194.642 142.004 195.148 141.712C195.654 141.42 196.228 141.266 196.812 141.266C197.396 141.266 197.97 141.42 198.476 141.712C198.982 142.004 199.402 142.424 199.694 142.93L206.657 154.99L218.496 134.485C218.862 133.852 219.388 133.326 220.021 132.96C220.655 132.594 221.373 132.401 222.105 132.401C222.836 132.401 223.555 132.594 224.188 132.96C224.822 133.326 225.348 133.852 225.713 134.485L246.889 171.16ZM179.762 169.93H244.758L224.648 135.1C224.39 134.654 224.019 134.283 223.573 134.025C223.127 133.768 222.62 133.632 222.105 133.632C221.589 133.632 221.083 133.768 220.636 134.025C220.19 134.283 219.819 134.654 219.562 135.1L206.657 157.451L198.629 143.546C198.444 143.227 198.18 142.962 197.861 142.778C197.542 142.594 197.18 142.497 196.812 142.497C196.444 142.497 196.082 142.594 195.763 142.778C195.444 142.962 195.179 143.227 194.995 143.546L179.762 169.93Z" fill="#E7ECF0"/>
<path d="M158.36 171.153H84.5308C83.7152 171.152 82.9333 170.827 82.3566 170.251C81.78 169.674 81.4555 168.892 81.4546 168.077V126.872C81.4555 126.056 81.78 125.275 82.3566 124.698C82.9333 124.121 83.7152 123.797 84.5308 123.796H158.36C159.175 123.797 159.957 124.121 160.534 124.698C161.111 125.275 161.435 126.056 161.436 126.872V168.077C161.435 168.892 161.111 169.674 160.534 170.251C159.957 170.827 159.175 171.152 158.36 171.153ZM84.5308 125.026C84.0414 125.027 83.5722 125.221 83.2262 125.567C82.8802 125.914 82.6856 126.383 82.685 126.872V168.077C82.6856 168.566 82.8802 169.035 83.2262 169.381C83.5722 169.727 84.0414 169.922 84.5308 169.922H158.36C158.849 169.922 159.318 169.727 159.664 169.381C160.01 169.035 160.205 168.566 160.205 168.077V126.872C160.205 126.383 160.01 125.913 159.664 125.567C159.318 125.221 158.849 125.027 158.36 125.026L84.5308 125.026Z" fill="#E7ECF0"/>
<path d="M100.262 302.684C99.9878 302.684 99.7159 302.738 99.4621 302.842C99.2083 302.947 98.9777 303.101 98.7833 303.295C98.589 303.489 98.4349 303.719 98.3297 303.973C98.2246 304.226 98.1704 304.498 98.1704 304.773C98.1704 305.047 98.2246 305.319 98.3297 305.573C98.4349 305.826 98.589 306.057 98.7833 306.251C98.9777 306.445 99.2083 306.598 99.4621 306.703C99.7159 306.808 99.9878 306.862 100.262 306.861H142.628C143.182 306.861 143.713 306.641 144.105 306.249C144.497 305.858 144.717 305.327 144.717 304.773C144.717 304.219 144.497 303.688 144.105 303.296C143.713 302.904 143.182 302.684 142.628 302.684H100.262Z" fill="#E7ECF0"/>
<path d="M100.262 314.989C99.9878 314.988 99.7159 315.042 99.4621 315.147C99.2083 315.251 98.9777 315.405 98.7833 315.599C98.589 315.793 98.4349 316.023 98.3297 316.277C98.2246 316.531 98.1704 316.803 98.1704 317.077C98.1704 317.352 98.2246 317.623 98.3297 317.877C98.4349 318.131 98.589 318.361 98.7833 318.555C98.9777 318.749 99.2083 318.903 99.4621 319.008C99.7159 319.112 99.9878 319.166 100.262 319.165H142.628C143.182 319.165 143.712 318.944 144.103 318.553C144.494 318.161 144.713 317.63 144.713 317.077C144.713 316.524 144.494 315.993 144.103 315.602C143.712 315.21 143.182 314.99 142.628 314.989H100.262Z" fill="#E7ECF0"/>
<path d="M121.446 354.013C118.846 354.013 116.304 353.242 114.142 351.797C111.98 350.353 110.295 348.3 109.3 345.898C108.306 343.496 108.045 340.853 108.552 338.303C109.06 335.753 110.312 333.41 112.15 331.572C113.989 329.733 116.331 328.481 118.881 327.974C121.431 327.467 124.074 327.727 126.477 328.722C128.879 329.717 130.932 331.402 132.376 333.564C133.821 335.726 134.592 338.267 134.592 340.867C134.588 344.352 133.201 347.694 130.737 350.158C128.272 352.623 124.931 354.009 121.446 354.013ZM121.446 328.952C119.089 328.952 116.785 329.651 114.826 330.96C112.866 332.269 111.339 334.13 110.437 336.308C109.535 338.485 109.299 340.88 109.759 343.192C110.219 345.503 111.354 347.626 113.02 349.292C114.687 350.959 116.81 352.094 119.121 352.553C121.433 353.013 123.828 352.777 126.006 351.875C128.183 350.973 130.044 349.446 131.353 347.487C132.662 345.527 133.361 343.224 133.361 340.867C133.358 337.708 132.101 334.68 129.867 332.446C127.633 330.212 124.605 328.956 121.446 328.952V328.952Z" fill="#E7ECF0"/>
<path d="M233.684 354.013C233.959 354.013 234.23 353.959 234.484 353.855C234.738 353.75 234.969 353.596 235.163 353.402C235.357 353.208 235.511 352.978 235.617 352.724C235.722 352.471 235.776 352.199 235.776 351.924C235.776 351.65 235.722 351.378 235.617 351.124C235.511 350.871 235.357 350.64 235.163 350.446C234.969 350.252 234.738 350.099 234.484 349.994C234.23 349.889 233.959 349.835 233.684 349.836H191.318C190.764 349.836 190.233 350.056 189.841 350.448C189.45 350.839 189.229 351.37 189.229 351.924C189.229 352.478 189.45 353.009 189.841 353.401C190.233 353.793 190.764 354.013 191.318 354.013H233.684Z" fill="#E7ECF0"/>
<path d="M233.684 341.708C233.959 341.709 234.23 341.655 234.484 341.55C234.738 341.446 234.969 341.292 235.163 341.098C235.357 340.904 235.511 340.674 235.617 340.42C235.722 340.166 235.776 339.894 235.776 339.62C235.776 339.345 235.722 339.073 235.617 338.82C235.511 338.566 235.357 338.336 235.163 338.142C234.969 337.948 234.738 337.794 234.484 337.689C234.23 337.585 233.959 337.531 233.684 337.531H191.318C190.764 337.531 190.233 337.752 189.841 338.143C189.45 338.535 189.229 339.066 189.229 339.62C189.229 340.174 189.45 340.705 189.841 341.097C190.233 341.488 190.764 341.708 191.318 341.708H233.684Z" fill="#E7ECF0"/>
<path d="M212.5 302.684C215.1 302.684 217.642 303.455 219.804 304.9C221.966 306.344 223.651 308.397 224.646 310.799C225.641 313.201 225.901 315.844 225.394 318.394C224.887 320.944 223.635 323.287 221.796 325.125C219.958 326.964 217.615 328.216 215.065 328.723C212.515 329.23 209.872 328.97 207.47 327.975C205.068 326.98 203.014 325.295 201.57 323.133C200.125 320.971 199.354 318.43 199.354 315.83V315.83C199.358 312.345 200.745 309.003 203.209 306.539C205.674 304.074 209.015 302.688 212.5 302.684ZM212.5 327.745C214.857 327.745 217.161 327.046 219.12 325.737C221.08 324.428 222.607 322.567 223.509 320.39C224.411 318.212 224.647 315.817 224.187 313.505C223.727 311.194 222.592 309.071 220.926 307.405C219.26 305.738 217.136 304.603 214.825 304.144C212.514 303.684 210.118 303.92 207.941 304.822C205.763 305.724 203.902 307.251 202.593 309.21C201.284 311.17 200.585 313.473 200.585 315.83V315.83C200.589 318.989 201.845 322.017 204.079 324.251C206.313 326.485 209.341 327.741 212.5 327.745V327.745Z" fill="#E7ECF0"/>
<path d="M346.464 419.114H336.958L332.437 382.452L346.466 382.453L346.464 419.114Z" fill="#FFB8B8"/>
<path d="M327.369 416.398H348.5V427.94H318.626V425.14C318.626 422.822 319.548 420.598 321.187 418.959C322.826 417.319 325.05 416.398 327.369 416.398Z" fill="#2F2E41"/>
<path d="M384.455 419.114H374.95L370.427 382.452L384.456 382.453L384.455 419.114Z" fill="#FFB8B8"/>
<path d="M365.36 416.398H386.492V427.94H356.618V425.14C356.618 422.822 357.539 420.598 359.178 418.959C360.818 417.319 363.041 416.398 365.36 416.398Z" fill="#2F2E41"/>
<path d="M329.903 313.425C330.678 312.698 331.285 311.809 331.68 310.823C332.074 309.836 332.248 308.775 332.188 307.713C332.129 306.652 331.837 305.617 331.334 304.681C330.831 303.745 330.128 302.93 329.277 302.295L333.349 286.188L324.164 281.326L318.733 304.152C317.76 305.654 317.372 307.461 317.642 309.23C317.913 310.999 318.823 312.607 320.199 313.75C321.576 314.893 323.325 315.491 325.113 315.431C326.902 315.371 328.606 314.657 329.903 313.425Z" fill="#FFB8B8"/>
<path d="M387.835 285.293L387.06 339.564L386.285 410.892L369.228 409.341L360.699 310.878L349.845 409.341H332.234L330.461 310.103L336.664 288.394L387.835 285.293Z" fill="#2F2E41"/>
<path d="M334.963 288.725L334.714 288.613L344.435 222.123L339.493 202.027C339.236 200.981 339.372 199.878 339.874 198.926C340.376 197.973 341.211 197.238 342.219 196.86L351.111 193.526L354.252 184.887L379.037 187.558L379.647 194.309C382.333 195.171 404.45 202.536 402.924 210.929C401.418 219.213 392.524 245.275 392.073 246.595L390.515 283.971L390.324 284.067C390.093 284.183 373.01 292.582 354.45 292.581C347.914 292.58 341.192 291.538 334.963 288.725Z" fill="#3F3D56"/>
<path d="M318.412 295.704L326.226 245.696C326.272 245.401 330.896 216.126 332.429 206.928C334.012 197.431 341.364 197.321 341.438 197.321H345.484L350.216 218.616L340.894 261.344L332.292 296.752L318.412 295.704Z" fill="#3F3D56"/>
<path d="M369.097 290.769C369.147 289.707 369.43 288.669 369.925 287.729C370.419 286.788 371.114 285.967 371.96 285.324C372.807 284.681 373.784 284.231 374.823 284.007C375.861 283.782 376.937 283.788 377.973 284.024L387.587 270.475L397.246 274.31L383.4 293.252C382.889 294.967 381.765 296.434 380.244 297.376C378.723 298.318 376.909 298.67 375.145 298.363C373.382 298.057 371.793 297.115 370.678 295.715C369.563 294.315 369.001 292.555 369.097 290.769Z" fill="#FFB8B8"/>
<path d="M379.644 279.117L396.738 250.368L389.774 231.797L399.259 206.503L399.609 206.653C399.838 206.752 405.228 209.156 406.026 217.769L416.927 252.026L387.835 289.765L379.644 279.117Z" fill="#3F3D56"/>
<path d="M381.332 171.327C386.06 162.679 382.881 151.836 374.233 147.109C365.585 142.382 354.742 145.56 350.015 154.208C345.287 162.855 348.466 173.698 357.114 178.425C365.762 183.152 376.605 179.974 381.332 171.327Z" fill="#FFB8B8"/>
<path d="M353.692 154.075C355.539 156.261 358.666 156.878 361.55 157.131C367.406 157.645 375.923 156.812 381.647 155.49C382.055 159.449 380.941 163.718 383.274 166.975C384.367 163.032 385.002 158.977 385.168 154.888C385.239 153.135 385.211 151.321 384.498 149.711C383.786 148.102 382.232 146.735 380.442 146.721C381.772 145.713 383.329 145.047 384.977 144.783L379.31 141.935L380.766 140.441L370.507 139.814L373.478 137.926C369.006 137.312 364.482 137.169 359.98 137.5C357.89 137.654 355.704 137.948 354.01 139.159C352.316 140.371 351.338 142.778 352.389 144.556C351.073 144.772 349.833 145.321 348.788 146.15C347.743 146.979 346.927 148.062 346.417 149.294C345.662 151.209 345.731 153.335 345.964 155.375C346.351 158.637 347.109 161.845 348.224 164.935" fill="#2F2E41"/>
</g>
<defs>
<clipPath id="clip0">
<rect width="451" height="428" fill="white" transform="translate(0 0.00012207)"/>
</clipPath>
</defs>
</svg>
