<svg width="312" height="312" viewBox="0 0 312 312" fill="none" xmlns="http://www.w3.org/2000/svg">
<circle cx="156" cy="156" r="156" fill="#F7F7F7"/>
<g filter="url(#filter0_b)">
<path d="M79.25 216.35C72.75 216.35 66.85 215.4 61.55 213.5C56.35 211.6 52.2 209.25 49.1 206.45C46.1 203.55 44.6 200.65 44.6 197.75C44.6 196.35 44.95 194.85 45.65 193.25C46.45 191.55 47.5 190.15 48.8 189.05C50.1 187.85 51.55 187.25 53.15 187.25C54.75 187.25 56.25 187.85 57.65 189.05C59.05 190.15 60.65 191.5 62.45 193.1C64.25 194.6 66.45 195.95 69.05 197.15C71.65 198.25 74.85 198.8 78.65 198.8C81.65 198.8 84.4 198.35 86.9 197.45C89.5 196.45 91.55 195 93.05 193.1C94.65 191.2 95.45 188.75 95.45 185.75C95.45 182.55 94.6 179.85 92.9 177.65C91.2 175.45 88.9 173.55 86 171.95C83.1 170.35 79.95 168.8 76.55 167.3C73.15 165.8 69.7 164.2 66.2 162.5C62.8 160.8 59.65 158.75 56.75 156.35C53.95 153.95 51.65 151 49.85 147.5C48.15 144 47.3 139.7 47.3 134.6C47.3 129 48.35 124.3 50.45 120.5C52.65 116.7 55.5 113.65 59 111.35C62.6 108.95 66.55 107.25 70.85 106.25C75.15 105.15 79.45 104.6 83.75 104.6C86.05 104.6 88.75 104.8 91.85 105.2C95.05 105.5 98.2 106.1 101.3 107C104.5 107.9 107.1 109.15 109.1 110.75C111.2 112.25 112.25 114.2 112.25 116.6C112.25 117.8 111.95 119.2 111.35 120.8C110.85 122.4 110 123.85 108.8 125.15C107.7 126.35 106.25 126.95 104.45 126.95C102.85 126.95 101.25 126.5 99.65 125.6C98.15 124.6 96.15 123.65 93.65 122.75C91.25 121.75 87.95 121.25 83.75 121.25C80.25 121.25 77.2 121.75 74.6 122.75C72 123.65 70.05 124.95 68.75 126.65C67.45 128.25 66.8 130.3 66.8 132.8C66.8 135.4 67.65 137.6 69.35 139.4C71.15 141.2 73.45 142.8 76.25 144.2C79.15 145.6 82.3 147 85.7 148.4C89.1 149.8 92.5 151.45 95.9 153.35C99.4 155.15 102.6 157.35 105.5 159.95C108.4 162.55 110.7 165.8 112.4 169.7C114.1 173.5 114.95 178.2 114.95 183.8C114.95 190.9 113.4 196.9 110.3 201.8C107.2 206.6 102.95 210.25 97.55 212.75C92.25 215.15 86.15 216.35 79.25 216.35ZM157.619 216.35C151.119 216.35 145.219 215.4 139.919 213.5C134.719 211.6 130.569 209.25 127.469 206.45C124.469 203.55 122.969 200.65 122.969 197.75C122.969 196.35 123.319 194.85 124.019 193.25C124.819 191.55 125.869 190.15 127.169 189.05C128.469 187.85 129.919 187.25 131.519 187.25C133.119 187.25 134.619 187.85 136.019 189.05C137.419 190.15 139.019 191.5 140.819 193.1C142.619 194.6 144.819 195.95 147.419 197.15C150.019 198.25 153.219 198.8 157.019 198.8C160.019 198.8 162.769 198.35 165.269 197.45C167.869 196.45 169.919 195 171.419 193.1C173.019 191.2 173.819 188.75 173.819 185.75C173.819 182.55 172.969 179.85 171.269 177.65C169.569 175.45 167.269 173.55 164.369 171.95C161.469 170.35 158.319 168.8 154.919 167.3C151.519 165.8 148.069 164.2 144.569 162.5C141.169 160.8 138.019 158.75 135.119 156.35C132.319 153.95 130.019 151 128.219 147.5C126.519 144 125.669 139.7 125.669 134.6C125.669 129 126.719 124.3 128.819 120.5C131.019 116.7 133.869 113.65 137.369 111.35C140.969 108.95 144.919 107.25 149.219 106.25C153.519 105.15 157.819 104.6 162.119 104.6C164.419 104.6 167.119 104.8 170.219 105.2C173.419 105.5 176.569 106.1 179.669 107C182.869 107.9 185.469 109.15 187.469 110.75C189.569 112.25 190.619 114.2 190.619 116.6C190.619 117.8 190.319 119.2 189.719 120.8C189.219 122.4 188.369 123.85 187.169 125.15C186.069 126.35 184.619 126.95 182.819 126.95C181.219 126.95 179.619 126.5 178.019 125.6C176.519 124.6 174.519 123.65 172.019 122.75C169.619 121.75 166.319 121.25 162.119 121.25C158.619 121.25 155.569 121.75 152.969 122.75C150.369 123.65 148.419 124.95 147.119 126.65C145.819 128.25 145.169 130.3 145.169 132.8C145.169 135.4 146.019 137.6 147.719 139.4C149.519 141.2 151.819 142.8 154.619 144.2C157.519 145.6 160.669 147 164.069 148.4C167.469 149.8 170.869 151.45 174.269 153.35C177.769 155.15 180.969 157.35 183.869 159.95C186.769 162.55 189.069 165.8 190.769 169.7C192.469 173.5 193.319 178.2 193.319 183.8C193.319 190.9 191.769 196.9 188.669 201.8C185.569 206.6 181.319 210.25 175.919 212.75C170.619 215.15 164.519 216.35 157.619 216.35ZM215.288 215C213.188 215 211.238 214.5 209.438 213.5C207.638 212.4 206.738 210.85 206.738 208.85V111.35C206.738 109.25 207.738 107.75 209.738 106.85C211.838 105.85 214.088 105.35 216.488 105.35C218.988 105.35 221.238 105.85 223.238 106.85C225.238 107.75 226.238 109.25 226.238 111.35V197.9H262.988C264.888 197.9 266.288 198.8 267.188 200.6C268.188 202.3 268.688 204.25 268.688 206.45C268.688 208.55 268.188 210.5 267.188 212.3C266.288 214.1 264.888 215 262.988 215H215.288Z" fill="url(#paint0_linear)"/>
<path d="M61.55 213.5L61.2068 214.439L61.2125 214.441L61.55 213.5ZM49.1 206.45L48.405 207.169L48.4172 207.181L48.4297 207.192L49.1 206.45ZM45.65 193.25L44.7452 192.824L44.7393 192.837L44.7338 192.849L45.65 193.25ZM48.8 189.05L49.4459 189.813L49.4624 189.799L49.4783 189.785L48.8 189.05ZM57.65 189.05L56.9992 189.809L57.0154 189.823L57.0322 189.836L57.65 189.05ZM62.45 193.1L61.7856 193.847L61.7976 193.858L61.8098 193.868L62.45 193.1ZM69.05 197.15L68.6309 198.058L68.6455 198.065L68.6604 198.071L69.05 197.15ZM86.9 197.45L87.2387 198.391L87.2489 198.387L87.259 198.383L86.9 197.45ZM93.05 193.1L92.2851 192.456L92.2749 192.468L92.2651 192.48L93.05 193.1ZM92.9 177.65L92.1087 178.261L92.9 177.65ZM86 171.95L85.5169 172.826L86 171.95ZM76.55 167.3L76.9536 166.385L76.55 167.3ZM66.2 162.5L65.7528 163.394L65.7631 163.4L66.2 162.5ZM56.75 156.35L56.0992 157.109L56.1058 157.115L56.1124 157.12L56.75 156.35ZM49.85 147.5L48.9505 147.937L48.9555 147.947L48.9607 147.957L49.85 147.5ZM50.45 120.5L49.5846 119.999L49.5796 120.008L49.5748 120.016L50.45 120.5ZM59 111.35L59.5492 112.186L59.5547 112.182L59 111.35ZM70.85 106.25L71.0765 107.224L71.0872 107.222L71.0978 107.219L70.85 106.25ZM91.85 105.2L91.722 106.192L91.7393 106.194L91.7567 106.196L91.85 105.2ZM101.3 107L101.021 107.96L101.029 107.963L101.3 107ZM109.1 110.75L108.475 111.531L108.497 111.548L108.519 111.564L109.1 110.75ZM111.35 120.8L110.414 120.449L110.404 120.475L110.396 120.502L111.35 120.8ZM108.8 125.15L108.065 124.472L108.063 124.474L108.8 125.15ZM99.65 125.6L99.0953 126.432L99.1268 126.453L99.1597 126.472L99.65 125.6ZM93.65 122.75L93.2654 123.673L93.2881 123.683L93.3113 123.691L93.65 122.75ZM74.6 122.75L74.9271 123.695L74.9431 123.689L74.959 123.683L74.6 122.75ZM68.75 126.65L69.5261 127.281L69.5354 127.269L69.5444 127.257L68.75 126.65ZM69.35 139.4L68.623 140.087L68.6328 140.097L68.6429 140.107L69.35 139.4ZM76.25 144.2L75.8027 145.095L75.8153 145.101L76.25 144.2ZM85.7 148.4L86.0808 147.475H86.0807L85.7 148.4ZM95.9 153.35L95.4122 154.223L95.4273 154.231L95.4427 154.239L95.9 153.35ZM105.5 159.95L104.832 160.695L105.5 159.95ZM112.4 169.7L111.483 170.1L111.487 170.108L112.4 169.7ZM110.3 201.8L111.14 202.343L111.145 202.335L110.3 201.8ZM97.55 212.75L97.9625 213.661L97.9701 213.657L97.55 212.75ZM79.25 215.35C72.8476 215.35 67.0639 214.414 61.8875 212.559L61.2125 214.441C66.6361 216.386 72.6524 217.35 79.25 217.35V215.35ZM61.8932 212.561C56.7767 210.691 52.7494 208.399 49.7703 205.708L48.4297 207.192C51.6506 210.101 55.9233 212.509 61.2068 214.439L61.8932 212.561ZM49.795 205.731C46.9036 202.936 45.6 200.279 45.6 197.75H43.6C43.6 201.021 45.2964 204.164 48.405 207.169L49.795 205.731ZM45.6 197.75C45.6 196.518 45.9082 195.155 46.5662 193.651L44.7338 192.849C43.9918 194.545 43.6 196.182 43.6 197.75H45.6ZM46.5548 193.676C47.3001 192.092 48.2663 190.812 49.4459 189.813L48.1541 188.287C46.7337 189.488 45.5999 191.008 44.7452 192.824L46.5548 193.676ZM49.4783 189.785C50.6147 188.736 51.8288 188.25 53.15 188.25V186.25C51.2712 186.25 49.5853 186.964 48.1217 188.315L49.4783 189.785ZM53.15 188.25C54.4754 188.25 55.7512 188.74 56.9992 189.809L58.3008 188.291C56.7488 186.96 55.0246 186.25 53.15 186.25V188.25ZM57.0322 189.836C58.4119 190.92 59.9959 192.257 61.7856 193.847L63.1144 192.353C61.3041 190.743 59.6881 189.38 58.2678 188.264L57.0322 189.836ZM61.8098 193.868C63.69 195.435 65.9683 196.829 68.6309 198.058L69.4691 196.242C66.9317 195.071 64.81 193.765 63.0902 192.332L61.8098 193.868ZM68.6604 198.071C71.4183 199.238 74.7598 199.8 78.65 199.8V197.8C74.9402 197.8 71.8817 197.262 69.4396 196.229L68.6604 198.071ZM78.65 199.8C81.7507 199.8 84.617 199.335 87.2387 198.391L86.5613 196.509C84.183 197.365 81.5493 197.8 78.65 197.8V199.8ZM87.259 198.383C90.0009 197.329 92.2078 195.781 93.8349 193.72L92.2651 192.48C90.8922 194.219 88.9991 195.571 86.541 196.517L87.259 198.383ZM93.8149 193.744C95.5966 191.628 96.45 188.935 96.45 185.75H94.45C94.45 188.565 93.7034 190.772 92.2851 192.456L93.8149 193.744ZM96.45 185.75C96.45 182.364 95.5465 179.439 93.6913 177.039L92.1087 178.261C93.6535 180.261 94.45 182.736 94.45 185.75H96.45ZM93.6913 177.039C91.8933 174.712 89.4803 172.728 86.4831 171.074L85.5169 172.826C88.3197 174.372 90.5067 176.188 92.1087 178.261L93.6913 177.039ZM86.4831 171.074C83.5543 169.459 80.3775 167.896 76.9536 166.385L76.1464 168.215C79.5225 169.704 82.6457 171.241 85.5169 172.826L86.4831 171.074ZM76.9536 166.385C73.5653 164.89 70.1264 163.295 66.6369 161.6L65.7631 163.4C69.2736 165.105 72.7347 166.71 76.1464 168.215L76.9536 166.385ZM66.6472 161.606C63.3145 159.939 60.2285 157.931 57.3876 155.58L56.1124 157.12C59.0715 159.569 62.2855 161.661 65.7528 163.394L66.6472 161.606ZM57.4008 155.591C54.7056 153.281 52.4841 150.435 50.7393 147.043L48.9607 147.957C50.8159 151.565 53.1944 154.619 56.0992 157.109L57.4008 155.591ZM50.7495 147.063C49.1329 143.735 48.3 139.594 48.3 134.6H46.3C46.3 139.806 47.1671 144.265 48.9505 147.937L50.7495 147.063ZM48.3 134.6C48.3 129.121 49.3274 124.599 51.3252 120.984L49.5748 120.016C47.3726 124.001 46.3 128.879 46.3 134.6H48.3ZM51.3154 121.001C53.4414 117.329 56.1855 114.396 59.5492 112.186L58.4508 110.514C54.8145 112.904 51.8586 116.071 49.5846 119.999L51.3154 121.001ZM59.5547 112.182C63.0527 109.85 66.8911 108.197 71.0765 107.224L70.6235 105.276C66.2089 106.303 62.1473 108.05 58.4453 110.518L59.5547 112.182ZM71.0978 107.219C75.3195 106.139 79.5363 105.6 83.75 105.6V103.6C79.3638 103.6 74.9805 104.161 70.6022 105.281L71.0978 107.219ZM83.75 105.6C85.9951 105.6 88.6505 105.795 91.722 106.192L91.978 104.208C88.8495 103.805 86.1049 103.6 83.75 103.6V105.6ZM91.7567 106.196C94.8936 106.49 97.9815 107.078 101.021 107.96L101.579 106.04C98.4185 105.122 95.2064 104.51 91.9433 104.204L91.7567 106.196ZM101.029 107.963C104.137 108.837 106.606 110.035 108.475 111.531L109.725 109.969C107.594 108.265 104.863 106.963 101.571 106.037L101.029 107.963ZM108.519 111.564C110.379 112.893 111.25 114.55 111.25 116.6H113.25C113.25 113.85 112.021 111.607 109.681 109.936L108.519 111.564ZM111.25 116.6C111.25 117.641 110.988 118.917 110.414 120.449L112.286 121.151C112.912 119.483 113.25 117.959 113.25 116.6H111.25ZM110.396 120.502C109.942 121.953 109.17 123.274 108.065 124.472L109.535 125.828C110.83 124.426 111.758 122.847 112.304 121.098L110.396 120.502ZM108.063 124.474C107.173 125.445 106.003 125.95 104.45 125.95V127.95C106.497 127.95 108.227 127.255 109.537 125.826L108.063 124.474ZM104.45 125.95C103.046 125.95 101.613 125.557 100.14 124.728L99.1597 126.472C100.887 127.443 102.654 127.95 104.45 127.95V125.95ZM100.205 124.768C98.6138 123.707 96.5325 122.725 93.9887 121.809L93.3113 123.691C95.7675 124.575 97.6862 125.493 99.0953 126.432L100.205 124.768ZM94.0346 121.827C91.4607 120.754 88.0106 120.25 83.75 120.25V122.25C87.8894 122.25 91.0393 122.746 93.2654 123.673L94.0346 121.827ZM83.75 120.25C80.1575 120.25 76.9808 120.763 74.241 121.817L74.959 123.683C77.4192 122.737 80.3425 122.25 83.75 122.25V120.25ZM74.2729 121.805C71.5399 122.751 69.4047 124.148 67.9556 126.043L69.5444 127.257C70.6953 125.752 72.4601 124.549 74.9271 123.695L74.2729 121.805ZM67.9739 126.019C66.5001 127.833 65.8 130.121 65.8 132.8H67.8C67.8 130.479 68.3999 128.667 69.5261 127.281L67.9739 126.019ZM65.8 132.8C65.8 135.641 66.7382 138.091 68.623 140.087L70.077 138.713C68.5618 137.109 67.8 135.159 67.8 132.8H65.8ZM68.6429 140.107C70.534 141.998 72.9279 143.657 75.8028 145.094L76.6972 143.306C73.9721 141.943 71.766 140.402 70.0571 138.693L68.6429 140.107ZM75.8153 145.101C78.7353 146.51 81.9035 147.918 85.3193 149.325L86.0807 147.475C82.6965 146.082 79.5647 144.69 76.6847 143.299L75.8153 145.101ZM85.3193 149.325C88.6805 150.709 92.0448 152.341 95.4122 154.223L96.3878 152.477C92.9552 150.559 89.5195 148.891 86.0808 147.475L85.3193 149.325ZM95.4427 154.239C98.8675 156.001 101.997 158.152 104.832 160.695L106.168 159.205C103.203 156.548 99.9325 154.299 96.3574 152.461L95.4427 154.239ZM104.832 160.695C107.616 163.19 109.835 166.319 111.483 170.1L113.317 169.3C111.565 165.281 109.184 161.91 106.168 159.205L104.832 160.695ZM111.487 170.108C113.114 173.744 113.95 178.295 113.95 183.8H115.95C115.95 178.105 115.086 173.256 113.313 169.292L111.487 170.108ZM113.95 183.8C113.95 190.753 112.433 196.558 109.455 201.265L111.145 202.335C114.367 197.242 115.95 191.047 115.95 183.8H113.95ZM109.46 201.257C106.467 205.892 102.366 209.419 97.1299 211.843L97.9701 213.657C103.534 211.081 107.933 207.308 111.14 202.343L109.46 201.257ZM97.1375 211.839C91.9889 214.17 86.0338 215.35 79.25 215.35V217.35C86.2662 217.35 92.5111 216.13 97.9625 213.661L97.1375 211.839ZM139.919 213.5L139.576 214.439L139.582 214.441L139.919 213.5ZM127.469 206.45L126.774 207.169L126.786 207.181L126.799 207.192L127.469 206.45ZM124.019 193.25L123.114 192.824L123.108 192.837L123.103 192.849L124.019 193.25ZM127.169 189.05L127.815 189.813L127.832 189.799L127.847 189.785L127.169 189.05ZM136.019 189.05L135.368 189.809L135.385 189.823L135.401 189.836L136.019 189.05ZM140.819 193.1L140.155 193.847L140.167 193.858L140.179 193.868L140.819 193.1ZM147.419 197.15L147 198.058L147.015 198.065L147.03 198.071L147.419 197.15ZM165.269 197.45L165.608 198.391L165.618 198.387L165.628 198.383L165.269 197.45ZM171.419 193.1L170.654 192.456L170.644 192.468L170.634 192.48L171.419 193.1ZM171.269 177.65L170.478 178.261L171.269 177.65ZM164.369 171.95L163.886 172.826L164.369 171.95ZM154.919 167.3L155.323 166.385L154.919 167.3ZM144.569 162.5L144.122 163.394L144.132 163.4L144.569 162.5ZM135.119 156.35L134.468 157.109L134.475 157.115L134.482 157.12L135.119 156.35ZM128.219 147.5L127.32 147.937L127.325 147.947L127.33 147.957L128.219 147.5ZM128.819 120.5L127.954 119.999L127.949 120.008L127.944 120.016L128.819 120.5ZM137.369 111.35L137.918 112.186L137.924 112.182L137.369 111.35ZM149.219 106.25L149.446 107.224L149.456 107.222L149.467 107.219L149.219 106.25ZM170.219 105.2L170.091 106.192L170.108 106.194L170.126 106.196L170.219 105.2ZM179.669 107L179.39 107.96L179.398 107.963L179.669 107ZM187.469 110.75L186.844 111.531L186.866 111.548L186.888 111.564L187.469 110.75ZM189.719 120.8L188.783 120.449L188.773 120.475L188.765 120.502L189.719 120.8ZM187.169 125.15L186.434 124.472L186.432 124.474L187.169 125.15ZM178.019 125.6L177.464 126.432L177.496 126.453L177.529 126.472L178.019 125.6ZM172.019 122.75L171.635 123.673L171.657 123.683L171.68 123.691L172.019 122.75ZM152.969 122.75L153.296 123.695L153.312 123.689L153.328 123.683L152.969 122.75ZM147.119 126.65L147.895 127.281L147.905 127.269L147.913 127.257L147.119 126.65ZM147.719 139.4L146.992 140.087L147.002 140.097L147.012 140.107L147.719 139.4ZM154.619 144.2L154.172 145.095L154.184 145.101L154.619 144.2ZM164.069 148.4L164.45 147.475L164.069 148.4ZM174.269 153.35L173.781 154.223L173.796 154.231L173.812 154.239L174.269 153.35ZM183.869 159.95L183.202 160.695L183.869 159.95ZM190.769 169.7L189.852 170.1L189.856 170.108L190.769 169.7ZM188.669 201.8L189.509 202.343L189.514 202.335L188.669 201.8ZM175.919 212.75L176.332 213.661L176.339 213.657L175.919 212.75ZM157.619 215.35C151.217 215.35 145.433 214.414 140.257 212.559L139.582 214.441C145.005 216.386 151.022 217.35 157.619 217.35V215.35ZM140.262 212.561C135.146 210.691 131.119 208.399 128.139 205.708L126.799 207.192C130.02 210.101 134.292 212.509 139.576 214.439L140.262 212.561ZM128.164 205.731C125.273 202.936 123.969 200.279 123.969 197.75H121.969C121.969 201.021 123.666 204.164 126.774 207.169L128.164 205.731ZM123.969 197.75C123.969 196.518 124.277 195.155 124.935 193.651L123.103 192.849C122.361 194.545 121.969 196.182 121.969 197.75H123.969ZM124.924 193.676C125.669 192.092 126.635 190.812 127.815 189.813L126.523 188.287C125.103 189.488 123.969 191.008 123.114 192.824L124.924 193.676ZM127.847 189.785C128.984 188.736 130.198 188.25 131.519 188.25V186.25C129.64 186.25 127.954 186.964 126.491 188.315L127.847 189.785ZM131.519 188.25C132.845 188.25 134.12 188.74 135.368 189.809L136.67 188.291C135.118 186.96 133.394 186.25 131.519 186.25V188.25ZM135.401 189.836C136.781 190.92 138.365 192.257 140.155 193.847L141.484 192.353C139.673 190.743 138.057 189.38 136.637 188.264L135.401 189.836ZM140.179 193.868C142.059 195.435 144.337 196.829 147 198.058L147.838 196.242C145.301 195.071 143.179 193.765 141.459 192.332L140.179 193.868ZM147.03 198.071C149.787 199.238 153.129 199.8 157.019 199.8V197.8C153.309 197.8 150.251 197.262 147.809 196.229L147.03 198.071ZM157.019 199.8C160.12 199.8 162.986 199.335 165.608 198.391L164.93 196.509C162.552 197.365 159.918 197.8 157.019 197.8V199.8ZM165.628 198.383C168.37 197.329 170.577 195.781 172.204 193.72L170.634 192.48C169.261 194.219 167.368 195.571 164.91 196.517L165.628 198.383ZM172.184 193.744C173.966 191.628 174.819 188.935 174.819 185.75H172.819C172.819 188.565 172.072 190.772 170.654 192.456L172.184 193.744ZM174.819 185.75C174.819 182.364 173.916 179.439 172.06 177.039L170.478 178.261C172.023 180.261 172.819 182.736 172.819 185.75H174.819ZM172.06 177.039C170.262 174.712 167.849 172.728 164.852 171.074L163.886 172.826C166.689 174.372 168.876 176.188 170.478 178.261L172.06 177.039ZM164.852 171.074C161.923 169.459 158.747 167.896 155.323 166.385L154.516 168.215C157.892 169.704 161.015 171.241 163.886 172.826L164.852 171.074ZM155.323 166.385C151.934 164.89 148.496 163.295 145.006 161.6L144.132 163.4C147.643 165.105 151.104 166.71 154.516 168.215L155.323 166.385ZM145.016 161.606C141.684 159.939 138.598 157.931 135.757 155.58L134.482 157.12C137.441 159.569 140.655 161.661 144.122 163.394L145.016 161.606ZM135.77 155.591C133.075 153.281 130.853 150.435 129.108 147.043L127.33 147.957C129.185 151.565 131.564 154.619 134.468 157.109L135.77 155.591ZM129.119 147.063C127.502 143.735 126.669 139.594 126.669 134.6H124.669C124.669 139.806 125.536 144.265 127.32 147.937L129.119 147.063ZM126.669 134.6C126.669 129.121 127.697 124.599 129.694 120.984L127.944 120.016C125.742 124.001 124.669 128.879 124.669 134.6H126.669ZM129.685 121.001C131.811 117.329 134.555 114.396 137.918 112.186L136.82 110.514C133.184 112.904 130.228 116.071 127.954 119.999L129.685 121.001ZM137.924 112.182C141.422 109.85 145.26 108.197 149.446 107.224L148.993 105.276C144.578 106.303 140.516 108.05 136.814 110.518L137.924 112.182ZM149.467 107.219C153.689 106.139 157.905 105.6 162.119 105.6V103.6C157.733 103.6 153.35 104.161 148.971 105.281L149.467 107.219ZM162.119 105.6C164.364 105.6 167.02 105.795 170.091 106.192L170.347 104.208C167.219 103.805 164.474 103.6 162.119 103.6V105.6ZM170.126 106.196C173.263 106.49 176.351 107.078 179.39 107.96L179.948 106.04C176.788 105.122 173.576 104.51 170.312 104.204L170.126 106.196ZM179.398 107.963C182.506 108.837 184.975 110.035 186.844 111.531L188.094 109.969C185.963 108.265 183.232 106.963 179.94 106.037L179.398 107.963ZM186.888 111.564C188.748 112.893 189.619 114.55 189.619 116.6H191.619C191.619 113.85 190.39 111.607 188.05 109.936L186.888 111.564ZM189.619 116.6C189.619 117.641 189.357 118.917 188.783 120.449L190.655 121.151C191.281 119.483 191.619 117.959 191.619 116.6H189.619ZM188.765 120.502C188.311 121.953 187.54 123.274 186.434 124.472L187.904 125.828C189.199 124.426 190.127 122.847 190.674 121.098L188.765 120.502ZM186.432 124.474C185.543 125.445 184.372 125.95 182.819 125.95V127.95C184.866 127.95 186.596 127.255 187.906 125.826L186.432 124.474ZM182.819 125.95C181.415 125.95 179.982 125.557 178.509 124.728L177.529 126.472C179.256 127.443 181.023 127.95 182.819 127.95V125.95ZM178.574 124.768C176.983 123.707 174.902 122.725 172.358 121.809L171.68 123.691C174.137 124.575 176.055 125.493 177.464 126.432L178.574 124.768ZM172.404 121.827C169.83 120.754 166.38 120.25 162.119 120.25V122.25C166.259 122.25 169.408 122.746 171.635 123.673L172.404 121.827ZM162.119 120.25C158.527 120.25 155.35 120.763 152.61 121.817L153.328 123.683C155.788 122.737 158.712 122.25 162.119 122.25V120.25ZM152.642 121.805C149.909 122.751 147.774 124.148 146.325 126.043L147.913 127.257C149.064 125.752 150.829 124.549 153.296 123.695L152.642 121.805ZM146.343 126.019C144.869 127.833 144.169 130.121 144.169 132.8H146.169C146.169 130.479 146.769 128.667 147.895 127.281L146.343 126.019ZM144.169 132.8C144.169 135.641 145.107 138.091 146.992 140.087L148.446 138.713C146.931 137.109 146.169 135.159 146.169 132.8H144.169ZM147.012 140.107C148.903 141.998 151.297 143.657 154.172 145.094L155.066 143.306C152.341 141.943 150.135 140.402 148.426 138.693L147.012 140.107ZM154.184 145.101C157.104 146.51 160.273 147.918 163.688 149.325L164.45 147.475C161.066 146.082 157.934 144.69 155.054 143.299L154.184 145.101ZM163.688 149.325C167.05 150.709 170.414 152.341 173.781 154.223L174.757 152.477C171.324 150.559 167.889 148.891 164.45 147.475L163.688 149.325ZM173.812 154.239C177.237 156.001 180.366 158.152 183.202 160.695L184.537 159.205C181.572 156.548 178.302 154.299 174.726 152.461L173.812 154.239ZM183.202 160.695C185.985 163.19 188.204 166.319 189.852 170.1L191.686 169.3C189.934 165.281 187.553 161.91 184.537 159.205L183.202 160.695ZM189.856 170.108C191.483 173.744 192.319 178.295 192.319 183.8H194.319C194.319 178.105 193.456 173.256 191.682 169.292L189.856 170.108ZM192.319 183.8C192.319 190.753 190.802 196.558 187.824 201.265L189.514 202.335C192.736 197.242 194.319 191.047 194.319 183.8H192.319ZM187.829 201.257C184.836 205.892 180.735 209.419 175.499 211.843L176.339 213.657C181.903 211.081 186.302 207.308 189.509 202.343L187.829 201.257ZM175.507 211.839C170.358 214.17 164.403 215.35 157.619 215.35V217.35C164.635 217.35 170.88 216.13 176.332 213.661L175.507 211.839ZM209.438 213.5L208.917 214.353L208.935 214.364L208.953 214.374L209.438 213.5ZM209.738 106.85L210.149 107.762L210.158 107.757L210.168 107.753L209.738 106.85ZM223.238 106.85L222.791 107.744L222.809 107.754L222.828 107.762L223.238 106.85ZM226.238 197.9H225.238V198.9H226.238V197.9ZM267.188 200.6L266.294 201.047L266.309 201.078L266.326 201.107L267.188 200.6ZM267.188 212.3L266.314 211.814L266.304 211.833L266.294 211.853L267.188 212.3ZM215.288 214C213.355 214 211.572 213.542 209.924 212.626L208.953 214.374C210.904 215.458 213.022 216 215.288 216V214ZM209.96 212.647C208.437 211.716 207.738 210.479 207.738 208.85H205.738C205.738 211.221 206.839 213.084 208.917 214.353L209.96 212.647ZM207.738 208.85V111.35H205.738V208.85H207.738ZM207.738 111.35C207.738 110.464 207.947 109.765 208.32 109.205C208.696 108.642 209.283 108.152 210.149 107.762L209.328 105.938C208.194 106.448 207.281 107.158 206.656 108.095C206.03 109.035 205.738 110.136 205.738 111.35H207.738ZM210.168 107.753C212.13 106.819 214.232 106.35 216.488 106.35V104.35C213.944 104.35 211.547 104.881 209.308 105.947L210.168 107.753ZM216.488 106.35C218.852 106.35 220.946 106.822 222.791 107.744L223.686 105.956C221.531 104.878 219.125 104.35 216.488 104.35V106.35ZM222.828 107.762C223.694 108.152 224.281 108.642 224.656 109.205C225.03 109.765 225.238 110.464 225.238 111.35H227.238C227.238 110.136 226.947 109.035 226.32 108.095C225.696 107.158 224.783 106.448 223.649 105.938L222.828 107.762ZM225.238 111.35V197.9H227.238V111.35H225.238ZM226.238 198.9H262.988V196.9H226.238V198.9ZM262.988 198.9C263.774 198.9 264.406 199.084 264.923 199.416C265.443 199.751 265.907 200.274 266.294 201.047L268.083 200.153C267.569 199.126 266.884 198.299 266.004 197.734C265.121 197.166 264.102 196.9 262.988 196.9V198.9ZM266.326 201.107C267.226 202.636 267.688 204.407 267.688 206.45H269.688C269.688 204.093 269.151 201.964 268.05 200.093L266.326 201.107ZM267.688 206.45C267.688 208.384 267.23 210.166 266.314 211.814L268.062 212.786C269.147 210.834 269.688 208.716 269.688 206.45H267.688ZM266.294 211.853C265.907 212.626 265.443 213.149 264.923 213.484C264.406 213.816 263.774 214 262.988 214V216C264.102 216 265.121 215.734 266.004 215.166C266.884 214.601 267.569 213.774 268.083 212.747L266.294 211.853ZM262.988 214H215.288V216H262.988V214Z" fill="white" fill-opacity="0.3" style="mix-blend-mode:overlay"/>
</g>
<defs>
<filter id="filter0_b" x="32.6" y="92.6" width="248.088" height="135.75" filterUnits="userSpaceOnUse" color-interpolation-filters="sRGB">
<feFlood flood-opacity="0" result="BackgroundImageFix"/>
<feGaussianBlur in="BackgroundImage" stdDeviation="6"/>
<feComposite in2="SourceAlpha" operator="in" result="effect1_backgroundBlur"/>
<feBlend mode="normal" in="SourceGraphic" in2="effect1_backgroundBlur" result="shape"/>
</filter>
<linearGradient id="paint0_linear" x1="41" y1="83" x2="269.52" y2="231.281" gradientUnits="userSpaceOnUse">
<stop stop-color="#3E7CB7"/>
<stop offset="1" stop-color="#0D3B66"/>
</linearGradient>
</defs>
</svg>
