<svg width="683" height="375" viewBox="0 0 683 375" fill="none" xmlns="http://www.w3.org/2000/svg">
<g clip-path="url(#clip0)">
<path d="M680.12 0.305695H140.368V345.647H680.12V0.305695Z" fill="#E6E6E6"/>
<path d="M382.954 46.6794H188.097V246.71H382.954V46.6794Z" fill="white"/>
<path d="M650.691 50.5585H455.834V293.508H650.691V50.5585Z" fill="white"/>
<path d="M648.094 370.756C667.372 370.756 683 368.525 683 365.774C683 363.023 667.372 360.792 648.094 360.792C628.817 360.792 613.189 363.023 613.189 365.774C613.189 368.525 628.817 370.756 648.094 370.756Z" fill="#E6E6E6"/>
<path d="M299.114 370.867C318.391 370.867 334.019 368.637 334.019 365.886C334.019 363.134 318.391 360.904 299.114 360.904C279.836 360.904 264.208 363.134 264.208 365.886C264.208 368.637 279.836 370.867 299.114 370.867Z" fill="#E6E6E6"/>
<path d="M80.1102 364.736C124.354 364.736 160.22 363.02 160.22 360.904C160.22 358.788 124.354 357.072 80.1102 357.072C35.8666 357.072 0 358.788 0 360.904C0 363.02 35.8666 364.736 80.1102 364.736Z" fill="#E6E6E6"/>
<path d="M679.89 0H140.138V22.9081H679.89V0Z" fill="#0D3B66"/>
<path d="M157.178 15.9577C159.525 15.9577 161.428 14.0568 161.428 11.7118C161.428 9.36693 159.525 7.466 157.178 7.466C154.831 7.466 152.928 9.36693 152.928 11.7118C152.928 14.0568 154.831 15.9577 157.178 15.9577Z" fill="#E6E6E6"/>
<path d="M173.31 15.9577C175.657 15.9577 177.56 14.0568 177.56 11.7118C177.56 9.36693 175.657 7.466 173.31 7.466C170.963 7.466 169.06 9.36693 169.06 11.7118C169.06 14.0568 170.963 15.9577 173.31 15.9577Z" fill="#E6E6E6"/>
<path d="M189.442 15.9577C191.789 15.9577 193.692 14.0568 193.692 11.7118C193.692 9.36693 191.789 7.466 189.442 7.466C187.095 7.466 185.192 9.36693 185.192 11.7118C185.192 14.0568 187.095 15.9577 189.442 15.9577Z" fill="#E6E6E6"/>
<path d="M607.731 115.726H606.55V83.4214C606.55 80.9661 606.066 78.5348 605.126 76.2664C604.185 73.998 602.807 71.9368 601.069 70.2007C599.331 68.4645 597.268 67.0873 594.997 66.1477C592.726 65.2081 590.293 64.7245 587.835 64.7245H519.327C516.869 64.7245 514.435 65.2081 512.165 66.1477C509.894 67.0873 507.831 68.4645 506.093 70.2007C504.355 71.9368 502.977 73.998 502.036 76.2664C501.096 78.5348 500.612 80.9661 500.612 83.4214V260.645C500.612 263.1 501.096 265.532 502.036 267.8C502.977 270.068 504.355 272.13 506.093 273.866C507.831 275.602 509.894 276.979 512.165 277.919C514.435 278.858 516.869 279.342 519.327 279.342H587.835C590.293 279.342 592.726 278.858 594.997 277.919C597.268 276.979 599.331 275.602 601.069 273.866C602.807 272.13 604.185 270.068 605.126 267.8C606.066 265.532 606.55 263.1 606.55 260.645V138.72H607.731V115.726Z" fill="#3F3D56"/>
<path d="M587.823 69.5888H578.881C579.292 70.596 579.449 71.6889 579.338 72.771C579.227 73.8531 578.851 74.8914 578.243 75.7942C577.636 76.6971 576.816 77.4369 575.855 77.9485C574.894 78.46 573.822 78.7276 572.733 78.7277H533.485C532.396 78.7276 531.324 78.46 530.363 77.9484C529.402 77.4369 528.582 76.6971 527.975 75.7942C527.367 74.8914 526.991 73.8531 526.88 72.771C526.769 71.6889 526.926 70.596 527.337 69.5888H518.985C517.15 69.5888 515.332 69.9499 513.636 70.6516C511.941 71.3533 510.4 72.3818 509.102 73.6783C507.804 74.9749 506.775 76.5141 506.073 78.2081C505.37 79.9021 505.009 81.7177 505.009 83.5513V260.515C505.009 262.349 505.37 264.164 506.073 265.858C506.775 267.552 507.804 269.091 509.102 270.388C510.4 271.685 511.941 272.713 513.636 273.415C515.332 274.116 517.15 274.478 518.985 274.478H587.823C589.659 274.478 591.476 274.116 593.172 273.415C594.867 272.713 596.408 271.685 597.706 270.388C599.004 269.091 600.033 267.552 600.736 265.858C601.438 264.164 601.8 262.349 601.8 260.515V83.5513C601.8 79.8482 600.327 76.2968 597.706 73.6783C595.085 71.0598 591.53 69.5888 587.823 69.5888Z" fill="white"/>
<path d="M353.378 173.035H217.941V179.206H353.378V173.035Z" fill="#E6E6E6"/>
<path d="M353.378 192.961H217.941V199.133H353.378V192.961Z" fill="#0D3B66"/>
<path d="M353.378 212.888H217.941V219.059H353.378V212.888Z" fill="#E6E6E6"/>
<path d="M593.704 186.5H514.638V192.672H593.704V186.5Z" fill="#E6E6E6"/>
<path d="M593.704 205.66H514.638V211.832H593.704V205.66Z" fill="#E6E6E6"/>
<path d="M593.704 224.82H514.638V230.992H593.704V224.82Z" fill="#E6E6E6"/>
<path d="M601.971 320.655V307.49H588.793V320.655H601.971Z" fill="#3F3D56"/>
<path d="M580.74 320.655V307.49H567.562V320.655H580.74Z" fill="#0D3B66"/>
<path d="M559.51 320.655V307.49H546.332V320.655H559.51Z" fill="#3F3D56"/>
<path d="M538.279 320.655V307.49H525.101V320.655H538.279Z" fill="#3F3D56"/>
<path d="M517.048 320.655V307.49H503.87V320.655H517.048Z" fill="#3F3D56"/>
<path d="M575.367 106.522H531.441V150.405H575.367V106.522Z" fill="#0D3B66"/>
<path d="M268.202 211.215L267.633 212.351L265.927 203.831C265.927 203.831 263.653 194.743 268.202 194.743C272.75 194.743 271.613 203.831 271.613 203.831V210.079L268.202 211.215Z" fill="#A0616A"/>
<path d="M342.801 210.052L343.369 211.188L345.075 202.667C345.075 202.667 347.349 193.579 342.801 193.579C338.252 193.579 339.389 202.667 339.389 202.667V208.916L342.801 210.052Z" fill="#A0616A"/>
<path d="M293.218 275.092L286.396 317.125L289.807 358.021L297.767 354.613L296.63 323.94L304.59 299.516L306.295 328.484L302.885 358.588L313.118 359.725L320.51 297.812L319.942 276.796L293.218 275.092Z" fill="#2F2E41"/>
<path d="M293.218 352.909L289.239 359.157V373.118C289.239 373.52 289.382 373.909 289.643 374.215C289.904 374.521 290.265 374.725 290.663 374.789C292.613 375.109 296.01 375.336 297.198 373.357C298.904 370.517 297.767 364.269 297.767 364.269C297.767 364.269 300.041 359.725 298.904 356.317C297.767 352.909 296.63 352.341 296.63 352.341L293.218 352.909Z" fill="#2F2E41"/>
<path d="M310.276 358.589L311.413 360.293C311.413 360.293 313.118 361.997 311.981 363.133C311.147 364.016 310.386 364.966 309.707 365.973C309.707 365.973 303.453 367.677 303.453 365.405V358.021L310.276 358.589Z" fill="#2F2E41"/>
<path d="M308.226 228.862C312.389 228.862 315.763 225.491 315.763 221.333C315.763 217.175 312.389 213.804 308.226 213.804C304.064 213.804 300.69 217.175 300.69 221.333C300.69 225.491 304.064 228.862 308.226 228.862Z" fill="#A0616A"/>
<path d="M303.168 223.687L302.6 234.48L312.834 235.048L312.265 224.255L303.168 223.687Z" fill="#A0616A"/>
<path d="M314.256 235.331L312.642 231.392C312.642 231.392 305.158 228.515 302.884 231.355L301.747 234.763L292.65 232.491L287.533 243.852L292.081 276.228C292.081 276.228 304.021 291.564 319.941 276.796L324.49 246.124L321.078 234.195L314.256 235.331Z" fill="#575A89"/>
<path d="M319.942 236.468L321.078 234.195L332.45 227.379L339.39 206.857L344.76 209.156L338.704 233.627L322.215 248.963L319.942 236.468Z" fill="#575A89"/>
<path d="M293.787 233.627L292.65 232.492L280.71 225.107L272.181 208.067L265.359 210.339L272.75 231.355L290.945 246.124L293.787 233.627Z" fill="#575A89"/>
<path d="M313.82 209.803L315.052 209.187L313.204 208.572V207.956C313.204 207.956 303.962 204.263 302.73 210.418C301.139 212.553 300.281 215.143 300.281 217.805C300.281 220.466 301.139 223.056 302.73 225.191V227.037L312.588 228.269L313.82 224.575C313.82 224.575 319.982 213.496 313.82 209.803Z" fill="#2F2E41"/>
<path d="M88.2917 275.759L86.1011 276.853C86.1011 276.853 77.3389 280.865 79.8946 283.053C82.4502 285.242 89.387 280.865 89.387 280.865L90.8473 279.041L88.2917 275.759Z" fill="#FFB8B8"/>
<path d="M152.382 275.214L145.612 320.621L135.388 352.352L129.912 349.799L135.023 306.397L120.42 293.995L121.515 275.759L152.382 275.214Z" fill="#2F2E41"/>
<path d="M129.182 350.894C129.182 350.894 135.389 347.611 135.754 352.353L135.024 357.094C135.024 357.094 137.214 365.483 129.912 363.659C122.61 361.836 127.722 356.365 127.722 356.365L129.182 350.894Z" fill="#2F2E41"/>
<path d="M125.166 289.983L120.42 293.995C120.42 293.995 120.42 318.797 123.706 322.444C126.992 326.092 147.802 344.693 148.532 345.423C149.262 346.152 152.548 338.128 152.548 338.128L132.833 315.15L134.293 300.925L125.166 289.983Z" fill="#2F2E41"/>
<path d="M150.357 337.034C150.357 337.034 156.199 335.939 156.199 339.952C156.272 343.123 156.515 346.289 156.929 349.435C156.929 349.435 158.39 362.2 153.643 360.377C148.897 358.553 147.072 345.787 147.072 345.787C147.513 344.726 148.28 343.832 149.262 343.234C150.723 342.505 150.357 337.034 150.357 337.034Z" fill="#2F2E41"/>
<path d="M132.103 221.049L133.198 234.544L130.278 239.65L122.245 231.99L121.515 221.778L132.103 221.049Z" fill="#FFB8B8"/>
<path d="M125.531 225.426C130.37 225.426 134.293 221.506 134.293 216.672C134.293 211.837 130.37 207.918 125.531 207.918C120.692 207.918 116.769 211.837 116.769 216.672C116.769 221.506 120.692 225.426 125.531 225.426Z" fill="#FFB8B8"/>
<path d="M129.182 234.179L132.833 223.602L139.405 230.897L151.453 277.217L142.325 282.689L138.31 276.853L137.579 284.512L119.689 280.865L118.229 231.99L121.878 226.856L129.182 234.179Z" fill="#D0CDE1"/>
<path d="M124.071 285.971L121.88 226.885L117.134 230.532L108.371 236.367L114.213 257.158L116.038 279.041L124.071 285.971Z" fill="#2F2E41"/>
<path d="M110.928 236.732L108.371 236.367L101.07 257.886L86.4661 276.124L91.9428 281.959L108.737 265.546L114.944 252.051L110.928 236.732Z" fill="#2F2E41"/>
<path d="M150.798 276.092L150.3 278.488C150.3 278.488 148.021 287.844 151.324 287.197C154.627 286.55 155.488 278.399 155.488 278.399L154.961 276.123L150.798 276.092Z" fill="#FFB8B8"/>
<path d="M132.262 223.01L150.357 230.167L148.167 252.051L152.548 276.124L148.167 280.865L131.968 226.11L132.262 223.01Z" fill="#2F2E41"/>
<path d="M125.99 201.97L128.562 200.685V201.97L130.277 201.114V203.255C130.277 203.255 136.707 207.965 135.421 213.533C134.135 219.1 134.135 219.528 134.135 219.528C134.135 219.528 132.509 208.941 126.079 210.654C119.649 212.367 119.131 212.676 117.417 217.387L116.952 219.407C116.952 219.407 109.701 202.827 125.99 201.97Z" fill="#2F2E41"/>
<path d="M147.802 230.167H150.722L155.469 255.698V277.947L149.628 276.853L144.881 243.297L147.802 230.167Z" fill="#2F2E41"/>
<path d="M110.36 284.16H2.71179V358.893H110.36V284.16Z" fill="#0D3B66"/>
<path d="M56.5359 298.742C52.0252 298.742 47.6157 300.078 43.8651 302.582C40.1146 305.085 37.1914 308.644 35.4652 312.807C33.739 316.97 33.2874 321.551 34.1674 325.971C35.0474 330.391 37.2195 334.451 40.4091 337.637C43.5987 340.824 47.6624 342.994 52.0865 343.873C56.5106 344.752 61.0963 344.301 65.2637 342.576C69.4311 340.852 72.993 337.931 75.499 334.184C78.0051 330.438 79.3427 326.033 79.3427 321.526C79.325 315.489 76.9165 309.704 72.6432 305.435C68.3699 301.166 62.5792 298.76 56.5359 298.742ZM56.5359 305.577C57.8891 305.577 59.212 305.978 60.3371 306.729C61.4623 307.48 62.3393 308.548 62.8571 309.797C63.375 311.046 63.5105 312.42 63.2465 313.746C62.9825 315.072 62.3308 316.29 61.374 317.246C60.4171 318.202 59.198 318.853 57.8707 319.116C56.5435 319.38 55.1678 319.245 53.9176 318.727C52.6674 318.21 51.5988 317.334 50.847 316.21C50.0951 315.086 49.6939 313.764 49.6939 312.412C49.6999 310.601 50.4227 308.866 51.7045 307.586C52.9864 306.305 54.7231 305.583 56.5359 305.577ZM56.5359 338.483C53.833 338.471 51.174 337.8 48.7894 336.529C46.4048 335.257 44.3667 333.424 42.8518 331.188C42.9615 326.631 51.9745 324.122 56.5359 324.122C61.0973 324.122 70.1103 326.631 70.22 331.188C68.7034 333.422 66.6649 335.254 64.2807 336.525C61.8965 337.796 59.2383 338.468 56.5359 338.483Z" fill="white"/>
<path d="M353.035 69.6714H218.016V147.078H353.035V69.6714Z" fill="#E6E6E6"/>
<path d="M620.017 223.202L620.642 219.171C620.642 219.171 624.289 210.89 621.406 210.443C618.524 209.997 616.12 217.88 616.12 217.88L617.175 226.3L620.017 223.202Z" fill="#FFB8B8"/>
<path d="M649.528 246.054L623.766 240.885L620.772 222.139L613.189 221.554L613.559 245.79L635.943 257.514L649.528 246.054Z" fill="#575A89"/>
<path opacity="0.2" d="M649.528 246.054L623.766 240.885L620.772 222.139L613.189 221.554L613.559 245.79L635.943 257.514L649.528 246.054Z" fill="black"/>
<path d="M579.443 218.244H658.509V212.072H579.443V218.244Z" fill="#0D3B66"/>
<path d="M614.984 221.82L614.989 217.74C614.989 217.74 617.333 209.002 614.416 208.998C611.5 208.995 610.323 217.152 610.323 217.152L612.646 225.313L614.984 221.82Z" fill="#FFB8B8"/>
<path d="M648.517 233.503L652.052 232.642C653.401 232.644 654.733 232.346 655.953 231.77C657.172 231.194 658.248 230.355 659.103 229.313C659.957 228.27 660.57 227.051 660.895 225.743C661.22 224.436 661.25 223.072 660.983 221.751C660.985 220.191 660.679 218.645 660.083 217.203C659.487 215.76 658.613 214.449 657.51 213.345C656.407 212.24 655.097 211.363 653.654 210.764C652.212 210.165 650.666 209.856 649.104 209.854C647.542 209.852 645.995 210.157 644.551 210.753C643.107 211.348 641.795 212.222 640.689 213.324C639.583 214.426 638.705 215.734 638.106 217.175C637.506 218.616 637.197 220.161 637.195 221.721C636.738 223.311 636.706 224.992 637.104 226.598C637.502 228.203 638.314 229.676 639.461 230.869C640.607 232.062 642.047 232.933 643.637 233.395C645.226 233.858 646.909 233.895 648.517 233.503Z" fill="#2F2E41"/>
<path d="M627.728 292.35L630.606 323.823L635.816 354.716L644.566 354.727L643.438 324.422L638.817 287.702L627.728 292.35Z" fill="#2F2E41"/>
<path d="M636.986 352.969L631.148 356.458C631.148 356.458 621.813 357.612 623.559 360.528C625.306 363.444 645.725 361.721 645.726 360.556C645.727 359.39 645.152 352.979 643.986 352.978L636.986 352.969Z" fill="#2F2E41"/>
<path d="M653.557 289.631C653.557 289.631 653.393 294.13 649.301 301.119L649.857 322.681L670.823 349.515L663.232 355.916L637.602 326.745L631.229 291.772L639.406 283.623L653.557 289.631Z" fill="#2F2E41"/>
<path d="M669.073 349.513C669.073 349.513 676.072 350.687 674.902 353.599C673.731 356.512 670.798 369.912 663.217 368.154C663.217 368.154 659.717 368.149 660.886 365.82C661.589 364.419 662.37 363.058 663.225 361.743L663.234 354.167L669.073 349.513Z" fill="#2F2E41"/>
<path d="M644.729 234.095C649.562 234.095 653.479 230.181 653.479 225.354C653.479 220.526 649.562 216.612 644.729 216.612C639.897 216.612 635.979 220.526 635.979 225.354C635.979 230.181 639.897 234.095 644.729 234.095Z" fill="#FFB8B8"/>
<path d="M648.805 231.186L648.793 241.093L639.459 241.081L640.639 231.177L648.805 231.186Z" fill="#FFB8B8"/>
<path d="M637.13 237.582L639.959 236.888L648.797 237.597C648.797 237.597 653.458 242.265 652.873 243.43C652.288 244.594 649.336 273.146 649.336 273.146L654.56 293.549L635.892 294.691L626.56 293.514L628.356 256.802C628.356 256.802 624.285 246.89 629.539 243.983C632.506 242.428 635.097 240.243 637.13 237.582Z" fill="#575A89"/>
<path d="M647.627 239.927L621.379 238.728L615.569 220.655L607.985 221.228L612.038 245.127L635.944 253.316L647.627 239.927Z" fill="#575A89"/>
<path d="M661.62 218.914C664.738 218.914 667.265 216.388 667.265 213.274C667.265 210.159 664.738 207.634 661.62 207.634C658.502 207.634 655.974 210.159 655.974 213.274C655.974 216.388 658.502 218.914 661.62 218.914Z" fill="#2F2E41"/>
<path d="M656.411 210.242C656.412 209.408 656.598 208.584 656.955 207.83C657.313 207.076 657.834 206.411 658.481 205.883C659.127 205.355 659.883 204.977 660.693 204.775C661.504 204.574 662.349 204.555 663.167 204.72C662.445 204.379 661.658 204.195 660.86 204.181C660.061 204.166 659.268 204.321 658.534 204.635C657.799 204.95 657.14 205.416 656.6 206.004C656.06 206.592 655.651 207.288 655.4 208.046C655.149 208.803 655.061 209.606 655.144 210.4C655.227 211.193 655.477 211.961 655.879 212.651C656.28 213.341 656.824 213.937 657.474 214.402C658.123 214.866 658.864 215.187 659.648 215.344C658.679 214.888 657.86 214.166 657.287 213.263C656.714 212.359 656.41 211.312 656.411 210.242Z" fill="#2F2E41"/>
<path d="M651.568 213.44L643.957 212.04L638.104 215.705C636.665 216.606 635.515 217.901 634.79 219.435C634.065 220.969 633.796 222.679 634.014 224.361L639.876 222.877L641.189 219.589L642.752 222.149L649.094 233.226L655.515 229.738L659.607 223.333L651.568 213.44Z" fill="#2F2E41"/>
<path d="M218.397 69.0068L217.634 70.336L352.653 147.743L353.417 146.413L218.397 69.0068Z" fill="white"/>
<path d="M352.656 69.012L217.631 146.408L218.394 147.737L353.42 70.3413L352.656 69.012Z" fill="white"/>
<path d="M532.325 105.917L531.24 107.001L574.968 150.685L576.053 149.602L532.325 105.917Z" fill="white"/>
<path d="M574.968 105.917L531.24 149.602L532.325 150.685L576.053 107.001L574.968 105.917Z" fill="white"/>
</g>
<defs>
<clipPath id="clip0">
<rect width="683" height="375" fill="white"/>
</clipPath>
</defs>
</svg>
