<svg width="328" height="353" viewBox="0 0 328 353" fill="none" xmlns="http://www.w3.org/2000/svg">
<path d="M250.966 250.802C250.966 250.802 297.51 253.216 286.669 267.915C275.828 282.614 247.341 259.292 247.341 259.292L250.966 250.802Z" fill="#FFB8B8"/>
<path d="M165.193 110.793L174.667 113.169C174.667 113.169 180.193 129.802 184.141 144.851C188.088 159.899 195.983 205.045 195.983 205.045L257.189 248.079L249.889 264.462L168.351 232.223L150.193 160.691L165.193 110.793Z" fill="#575A89"/>
<path opacity="0.2" d="M174.107 140.317L170.576 214.498L177.944 236.553L156.361 220.674L174.107 140.317Z" fill="black"/>
<path d="M186.904 271.972C186.904 271.972 197.167 299.693 198.746 318.702C200.325 337.711 201.904 352.759 201.904 352.759H153.746L144.272 338.503V352.759H88.2189C88.2189 352.759 72.4293 301.277 78.7452 294.941C85.061 288.605 145.062 261.676 145.062 261.676L186.904 271.972Z" fill="#2F2E41"/>
<path d="M278.667 352.037H0V353H278.667V352.037Z" fill="#3F3D56"/>
<path d="M126.509 80.6961C143.077 80.6961 156.509 67.2211 156.509 50.5988C156.509 33.9766 143.077 20.5016 126.509 20.5016C109.94 20.5016 96.5085 33.9766 96.5085 50.5988C96.5085 67.2211 109.94 80.6961 126.509 80.6961Z" fill="#FFB8B8"/>
<path d="M103.614 63.2714L101.245 98.1208L131.246 138.514L146.246 100.497C146.246 100.497 132.825 91.7845 140.719 73.5678L103.614 63.2714Z" fill="#FFB8B8"/>
<path d="M191.244 278.704C191.244 285.835 171.507 296.921 171.507 296.921V300.881L163.613 304.842L146.245 269.994L141.511 308.008C141.511 308.008 106.771 313.556 95.7204 308.008C84.6649 302.464 79.1395 304.842 63.35 299.298C47.5604 293.755 69.6667 219.301 69.6667 219.301L53.8772 104.457L88.3724 87.1538L90.1903 86.2395L94.9338 85.3638L102.205 84.0165L126.508 100.497L128.465 110.794L129.669 117.132L135.981 110L140.748 94.2705L174.668 113.171L165.195 189.203C165.195 189.203 191.244 271.577 191.244 278.704Z" fill="#575A89"/>
<path d="M75.1924 303.257C75.1924 303.257 111.509 332.563 94.14 338.107C76.7714 343.651 67.2976 308.01 67.2976 308.01L75.1924 303.257Z" fill="#FFB8B8"/>
<path d="M61.7714 106.041L53.8766 104.457C53.8766 104.457 42.0344 110.793 41.2449 123.466C40.4554 136.138 30.1921 224.846 30.1921 224.846L63.3503 314.346L90.1927 304.049L64.1398 220.094L83.8768 147.227L61.7714 106.041Z" fill="#575A89"/>
<path d="M129.981 130.212C131.57 130.212 132.858 128.919 132.858 127.324C132.858 125.73 131.57 124.437 129.981 124.437C128.391 124.437 127.103 125.73 127.103 127.324C127.103 128.919 128.391 130.212 129.981 130.212Z" fill="#2F2E41"/>
<path d="M129.981 148.978C131.57 148.978 132.858 147.685 132.858 146.091C132.858 144.496 131.57 143.204 129.981 143.204C128.391 143.204 127.103 144.496 127.103 146.091C127.103 147.685 128.391 148.978 129.981 148.978Z" fill="#2F2E41"/>
<path d="M146.288 272.642C147.878 272.642 149.166 271.35 149.166 269.755C149.166 268.161 147.878 266.868 146.288 266.868C144.699 266.868 143.41 268.161 143.41 269.755C143.41 271.35 144.699 272.642 146.288 272.642Z" fill="#2F2E41"/>
<path d="M101.18 19.7656L95.6341 17.5382C95.6341 17.5382 107.23 4.7309 123.363 5.84461L118.825 0.83301C118.825 0.83301 129.917 -3.62167 140 8.07195C145.3 14.219 151.433 21.4446 155.256 29.5841H161.195L158.716 35.0597L167.392 40.5352L158.487 39.5517C159.018 42.5502 159.099 45.6113 158.729 48.634C158.347 51.6575 156.809 54.4139 154.44 56.3214C154.44 56.3214 147.562 42.0392 147.562 39.8118V45.3802C147.562 45.3802 142.016 40.3687 142.016 37.0276L138.991 40.9255H118.825L121.85 35.914L110.255 37.5845L114.792 31.4592L96.8389 56.7526C96.8389 56.7526 86.5593 28.1182 101.18 19.7656Z" fill="#2F2E41"/>
<g filter="url(#filter0_b)">
<path d="M279.577 232.674C306.067 232.674 327.541 211.131 327.541 184.556C327.541 157.981 306.067 136.437 279.577 136.437C253.088 136.437 231.614 157.981 231.614 184.556C231.614 211.131 253.088 232.674 279.577 232.674Z" fill="url(#paint0_linear)"/>
<path d="M327.041 184.556C327.041 210.856 305.789 232.174 279.577 232.174C253.366 232.174 232.114 210.856 232.114 184.556C232.114 158.255 253.366 136.937 279.577 136.937C305.789 136.937 327.041 158.255 327.041 184.556Z" stroke="white" stroke-opacity="0.3" style="mix-blend-mode:overlay"/>
</g>
<path d="M277.601 208.975V202.952C274.566 202.893 271.426 201.819 269.595 200.328L270.851 196.333C273.027 197.969 275.666 198.867 278.386 198.897C282.101 198.897 284.612 196.452 284.612 193.053C284.612 189.773 282.572 187.745 278.7 185.956C273.362 183.571 270.066 180.828 270.066 175.64C270.066 170.69 273.153 166.933 277.967 166.039V160.016H281.211V165.8C283.63 165.833 285.99 166.557 288.014 167.887L286.705 171.823C284.764 170.49 282.464 169.783 280.112 169.796C276.084 169.796 274.566 172.539 274.566 174.924C274.566 178.025 276.502 179.575 281.054 181.722C286.444 184.227 289.165 187.328 289.165 192.635C289.165 197.346 286.287 201.76 280.897 202.773V208.975H277.601Z" fill="white"/>
<path opacity="0.2" d="M71.228 242.935L90.411 303.051L75.0627 240.497L71.228 242.935Z" fill="black"/>
<defs>
<filter id="filter0_b" x="219.614" y="124.437" width="119.927" height="120.237" filterUnits="userSpaceOnUse" color-interpolation-filters="sRGB">
<feFlood flood-opacity="0" result="BackgroundImageFix"/>
<feGaussianBlur in="BackgroundImage" stdDeviation="6"/>
<feComposite in2="SourceAlpha" operator="in" result="effect1_backgroundBlur"/>
<feBlend mode="normal" in="SourceGraphic" in2="effect1_backgroundBlur" result="shape"/>
</filter>
<linearGradient id="paint0_linear" x1="231.614" y1="136.437" x2="347.515" y2="184.023" gradientUnits="userSpaceOnUse">
<stop stop-color="#3E7CB7"/>
<stop offset="1" stop-color="#0D3B66"/>
</linearGradient>
</defs>
</svg>
