<svg width="406" height="375" viewBox="0 0 406 375" fill="none" xmlns="http://www.w3.org/2000/svg">
<path d="M274.946 89.113H272.885V32.668C272.885 24.0039 269.443 15.6947 263.317 9.56823C257.19 3.44179 248.88 0 240.216 0H120.625C111.961 0 103.651 3.44179 97.5244 9.56823C91.3977 15.6947 87.9558 24.0039 87.9558 32.668V342.331C87.9558 350.995 91.3977 359.304 97.5244 365.43C103.651 371.557 111.961 374.998 120.625 374.998H240.216C248.88 374.998 257.19 371.557 263.317 365.43C269.443 359.304 272.885 350.995 272.885 342.331V129.291H274.946V89.113Z" fill="#E6E6E6"/>
<path d="M241.534 8.49832H225.924C226.642 10.2584 226.916 12.1682 226.722 14.0592C226.529 15.9503 225.873 17.7647 224.812 19.3426C223.752 20.9204 222.32 22.2132 220.642 23.1071C218.964 24.001 217.092 24.4686 215.191 24.4685H146.679C144.779 24.4684 142.907 24.0008 141.229 23.1069C139.552 22.2131 138.12 20.9204 137.06 19.3428C136 17.7652 135.344 15.951 135.15 14.0602C134.956 12.1694 135.23 10.2598 135.948 8.49987H121.365C114.894 8.49987 108.689 11.0702 104.113 15.6455C99.5377 20.2209 96.9673 26.4263 96.9673 32.8968V342.103C96.9673 348.574 99.5377 354.779 104.113 359.354C108.689 363.93 114.894 366.5 121.365 366.5H241.53C248 366.5 254.206 363.93 258.781 359.354C263.357 354.779 265.927 348.574 265.927 342.103V32.8952C265.927 26.4248 263.357 20.2193 258.781 15.644C254.206 11.0687 248 8.49832 241.53 8.49832H241.534Z" fill="white"/>
<path d="M256.016 251.356H111.933C111.225 251.356 110.547 251.074 110.047 250.574C109.547 250.074 109.265 249.396 109.264 248.688V212.949C109.265 212.241 109.547 211.563 110.047 211.063C110.547 210.563 111.225 210.282 111.933 210.281H256.016C256.724 210.282 257.402 210.563 257.902 211.063C258.402 211.563 258.684 212.241 258.684 212.949V248.689C258.683 249.396 258.402 250.074 257.902 250.574C257.402 251.074 256.724 251.356 256.016 251.356ZM111.933 211.348C111.508 211.348 111.101 211.517 110.801 211.817C110.501 212.117 110.332 212.524 110.332 212.949V248.689C110.332 249.113 110.501 249.52 110.801 249.82C111.101 250.121 111.508 250.289 111.933 250.29H256.016C256.441 250.289 256.848 250.121 257.148 249.82C257.448 249.52 257.617 249.113 257.617 248.689V212.949C257.617 212.524 257.448 212.117 257.148 211.817C256.848 211.517 256.441 211.348 256.016 211.348H111.933Z" fill="#CCCCCC"/>
<path d="M130.61 242.024C136.799 242.024 141.816 237.007 141.816 230.818C141.816 224.629 136.799 219.612 130.61 219.612C124.42 219.612 119.403 224.629 119.403 230.818C119.403 237.007 124.42 242.024 130.61 242.024Z" fill="#CCCCCC"/>
<path d="M156.491 223.348C156.243 223.344 155.997 223.389 155.767 223.481C155.537 223.573 155.327 223.71 155.15 223.884C154.974 224.058 154.833 224.265 154.737 224.494C154.642 224.722 154.592 224.968 154.592 225.216C154.592 225.463 154.642 225.709 154.737 225.937C154.833 226.166 154.974 226.373 155.15 226.547C155.327 226.721 155.537 226.858 155.767 226.95C155.997 227.042 156.243 227.087 156.491 227.083H244.545C244.79 227.088 245.035 227.044 245.263 226.954C245.492 226.864 245.701 226.73 245.877 226.56C246.054 226.389 246.196 226.185 246.294 225.96C246.391 225.734 246.444 225.492 246.448 225.246C246.452 225.001 246.407 224.757 246.317 224.528C246.227 224.3 246.092 224.091 245.921 223.915C245.75 223.739 245.546 223.598 245.32 223.5C245.094 223.403 244.852 223.351 244.606 223.348H156.492H156.491Z" fill="#E6E6E6"/>
<path d="M156.491 234.554C155.996 234.554 155.521 234.751 155.17 235.101C154.82 235.451 154.623 235.926 154.623 236.422C154.623 236.917 154.82 237.392 155.17 237.743C155.521 238.093 155.996 238.29 156.491 238.29H244.545C244.79 238.294 245.035 238.25 245.263 238.161C245.492 238.071 245.701 237.937 245.877 237.766C246.054 237.595 246.196 237.392 246.293 237.166C246.391 236.941 246.444 236.698 246.448 236.453C246.452 236.207 246.407 235.963 246.317 235.735C246.227 235.506 246.092 235.298 245.921 235.122C245.75 234.945 245.546 234.804 245.32 234.707C245.094 234.61 244.852 234.558 244.606 234.554H156.492L156.491 234.554Z" fill="#E6E6E6"/>
<path d="M256.016 311.122H111.933C111.225 311.121 110.547 310.84 110.047 310.34C109.547 309.84 109.265 309.162 109.264 308.454V272.715C109.265 272.007 109.547 271.329 110.047 270.829C110.547 270.329 111.225 270.047 111.933 270.047H256.016C256.724 270.047 257.402 270.329 257.902 270.829C258.402 271.329 258.684 272.007 258.684 272.715V308.455C258.683 309.162 258.402 309.84 257.902 310.34C257.402 310.84 256.724 311.121 256.016 311.122ZM111.933 271.114C111.508 271.114 111.101 271.283 110.801 271.583C110.501 271.883 110.332 272.29 110.332 272.715V308.455C110.332 308.879 110.501 309.286 110.801 309.586C111.101 309.886 111.508 310.055 111.933 310.056H256.016C256.441 310.055 256.848 309.886 257.148 309.586C257.448 309.286 257.617 308.879 257.617 308.455V272.715C257.617 272.29 257.448 271.883 257.148 271.583C256.848 271.283 256.441 271.114 256.016 271.114H111.933Z" fill="#CCCCCC"/>
<path d="M130.61 301.79C136.799 301.79 141.816 296.773 141.816 290.584C141.816 284.395 136.799 279.378 130.61 279.378C124.42 279.378 119.403 284.395 119.403 290.584C119.403 296.773 124.42 301.79 130.61 301.79Z" fill="#CCCCCC"/>
<path d="M156.491 283.114C155.996 283.114 155.521 283.311 155.17 283.661C154.82 284.011 154.623 284.486 154.623 284.982C154.623 285.477 154.82 285.952 155.17 286.302C155.521 286.653 155.996 286.85 156.491 286.85H244.545C244.79 286.854 245.035 286.81 245.263 286.72C245.492 286.631 245.701 286.497 245.877 286.326C246.054 286.155 246.196 285.951 246.293 285.726C246.391 285.501 246.444 285.258 246.448 285.013C246.452 284.767 246.407 284.523 246.317 284.295C246.227 284.066 246.092 283.858 245.921 283.681C245.75 283.505 245.546 283.364 245.32 283.267C245.094 283.17 244.852 283.118 244.606 283.114H156.492L156.491 283.114Z" fill="#E6E6E6"/>
<path d="M156.491 294.32C155.996 294.32 155.521 294.517 155.17 294.867C154.82 295.217 154.623 295.692 154.623 296.188C154.623 296.683 154.82 297.158 155.17 297.509C155.521 297.859 155.996 298.056 156.491 298.056H244.545C244.79 298.06 245.035 298.016 245.263 297.927C245.492 297.837 245.701 297.703 245.877 297.532C246.054 297.361 246.196 297.158 246.293 296.932C246.391 296.707 246.444 296.464 246.448 296.219C246.452 295.973 246.407 295.729 246.317 295.501C246.227 295.272 246.092 295.064 245.921 294.887C245.75 294.711 245.546 294.57 245.32 294.473C245.094 294.376 244.852 294.324 244.606 294.32H156.492L156.491 294.32Z" fill="#E6E6E6"/>
<path d="M180.942 177.191C167.502 177.197 154.611 171.864 145.104 162.365C135.596 152.866 130.252 139.98 130.246 126.54V126.498C130.246 126.392 130.246 126.28 130.252 126.174C130.407 98.412 153.147 75.8036 180.942 75.8036C194.387 75.8028 207.282 81.1431 216.79 90.6495C226.298 100.156 231.64 113.05 231.641 126.495C231.641 139.94 226.301 152.834 216.794 162.342C207.287 171.849 194.393 177.191 180.948 177.192H180.942V177.191ZM180.942 76.8686C167.839 76.898 155.278 82.0963 145.986 91.3343C136.695 100.572 131.424 113.103 131.32 126.205C131.314 126.318 131.314 126.411 131.314 126.496C131.313 136.312 134.223 145.909 139.676 154.072C145.129 162.235 152.881 168.598 161.95 172.355C171.02 176.113 181 177.096 190.629 175.182C200.257 173.268 209.102 168.541 216.044 161.6C222.986 154.659 227.714 145.815 229.63 136.187C231.546 126.559 230.563 116.579 226.806 107.509C223.05 98.4398 216.688 90.6878 208.525 85.2338C200.363 79.7797 190.766 76.8686 180.949 76.8686H180.942Z" fill="#CCCCCC"/>
<path d="M207.211 147.962H155.882C155.817 147.962 155.753 147.957 155.69 147.946L179.966 105.9C180.114 105.639 180.329 105.421 180.589 105.27C180.849 105.118 181.145 105.038 181.445 105.038C181.746 105.038 182.042 105.118 182.302 105.27C182.561 105.421 182.777 105.639 182.925 105.9L199.217 134.118L199.998 135.468L207.211 147.962Z" fill="#0D3B66"/>
<path d="M328.885 80.6332C328.885 81.1296 328.835 81.6247 328.736 82.111C327.379 82.6865 325.92 82.983 324.446 82.983C322.972 82.983 321.513 82.6865 320.156 82.111C320.057 81.6247 320.007 81.1296 320.007 80.6332C320.007 78.0538 321.321 75.8737 323.13 75.1451C322.408 74.8413 321.813 74.2969 321.446 73.6043C321.079 72.9117 320.964 72.1135 321.119 71.3453C321.274 70.5771 321.69 69.8862 322.296 69.3899C322.902 68.8936 323.662 68.6224 324.446 68.6224C325.229 68.6224 325.989 68.8936 326.595 69.3899C327.202 69.8862 327.618 70.5771 327.773 71.3453C327.928 72.1135 327.812 72.9117 327.446 73.6043C327.079 74.2969 326.484 74.8413 325.762 75.1451C327.571 75.8737 328.885 78.0538 328.885 80.6332Z" fill="#0D3B66"/>
<path d="M38.9459 191.106L81.2617 233.754H101.239V234.424H80.9819L80.8834 234.325L38.4692 191.577L38.9459 191.106Z" fill="#CCCCCC"/>
<path d="M24.936 198.965C22.5512 198.966 20.1895 198.497 17.9859 197.586C15.7822 196.674 13.7797 195.337 12.0927 193.652C10.4057 191.966 9.06722 189.965 8.1537 187.762C7.24018 185.559 6.7695 183.198 6.76855 180.813V180.798C6.76855 180.76 6.76855 180.72 6.76855 180.682C6.79145 177.094 7.8764 173.593 9.88653 170.621C11.8967 167.649 14.742 165.338 18.0636 163.981C21.3852 162.624 25.0344 162.281 28.5508 162.995C32.0673 163.709 35.2936 165.448 37.8227 167.993C40.3519 170.538 42.0707 173.776 42.7624 177.296C43.454 180.817 43.0875 184.464 41.7091 187.777C40.3307 191.09 38.0022 193.92 35.0171 195.911C32.0321 197.902 28.5242 198.965 24.936 198.965ZM24.936 163.013C20.2406 163.024 15.739 164.887 12.4093 168.197C9.07967 171.508 7.19093 175.998 7.15348 180.694C7.15348 180.734 7.15348 180.767 7.15348 180.797C7.15307 184.315 8.19592 187.754 10.1501 190.679C12.1044 193.604 14.8822 195.884 18.1324 197.231C21.3825 198.577 24.959 198.93 28.4095 198.244C31.86 197.558 35.0295 195.864 37.5173 193.376C40.0051 190.889 41.6994 187.72 42.3859 184.269C43.0723 180.819 42.7202 177.243 41.374 173.993C40.0278 170.742 37.748 167.964 34.8228 166.01C31.8977 164.055 28.4587 163.012 24.9406 163.012L24.936 163.013Z" fill="#3F3D56"/>
<path d="M38.9459 254.578L81.2617 297.226H101.239V297.896H80.9819L80.8834 297.796L38.4692 255.049L38.9459 254.578Z" fill="#CCCCCC"/>
<path d="M24.936 225.63C22.5512 225.628 20.1895 226.097 17.9859 227.009C15.7822 227.921 13.7797 229.257 12.0927 230.943C10.4057 232.628 9.06722 234.63 8.1537 236.833C7.24018 239.035 6.7695 241.397 6.76855 243.781V243.796C6.76855 243.834 6.76855 243.875 6.76855 243.912C6.79145 247.5 7.8764 251.001 9.88653 253.973C11.8967 256.946 14.742 259.256 18.0636 260.613C21.3852 261.971 25.0344 262.314 28.5508 261.6C32.0673 260.886 35.2936 259.146 37.8227 256.601C40.3519 254.056 42.0707 250.819 42.7624 247.298C43.454 243.777 43.0875 240.13 41.7091 236.818C40.3307 233.505 38.0022 230.674 35.0171 228.683C32.0321 226.692 28.5242 225.63 24.936 225.63ZM24.936 261.581C20.2406 261.571 15.739 259.708 12.4093 256.397C9.07967 253.087 7.19093 248.596 7.15348 243.901C7.15348 243.86 7.15348 243.827 7.15348 243.798C7.15297 240.28 8.1958 236.841 10.1501 233.915C12.1043 230.99 14.8822 228.71 18.1325 227.363C21.3827 226.017 24.9593 225.664 28.4099 226.35C31.8605 227.037 35.0301 228.731 37.5179 231.218C40.0056 233.706 41.6998 236.875 42.3861 240.326C43.0724 243.776 42.72 247.353 41.3735 250.603C40.027 253.853 37.7468 256.631 34.8214 258.585C31.896 260.539 28.4567 261.582 24.9386 261.582L24.936 261.581Z" fill="#3F3D56"/>
<path d="M30.5674 189.169V179.509H28.6309V189.169H30.5674Z" fill="#CCCCCC"/>
<path d="M25.9053 189.17V172.428H23.9688V189.17H25.9053Z" fill="#0D3B66"/>
<path d="M21.2437 189.17V176.599H19.3072V189.17H21.2437Z" fill="#0D3B66"/>
<path opacity="0.8" d="M19.2103 245.824C20.3304 245.824 21.2385 244.916 21.2385 243.796C21.2385 242.676 20.3304 241.768 19.2103 241.768C18.0902 241.768 17.1821 242.676 17.1821 243.796C17.1821 244.916 18.0902 245.824 19.2103 245.824Z" fill="#0D3B66"/>
<path opacity="0.4" d="M30.6639 245.824C31.784 245.824 32.6921 244.916 32.6921 243.796C32.6921 242.676 31.784 241.768 30.6639 241.768C29.5438 241.768 28.6357 242.676 28.6357 243.796C28.6357 244.916 29.5438 245.824 30.6639 245.824Z" fill="#0D3B66"/>
<path d="M320.484 268.595C320.312 268.671 320.178 268.813 320.11 268.988C320.043 269.164 320.048 269.359 320.124 269.53L323.49 277.087C323.566 277.259 323.708 277.393 323.883 277.461C324.059 277.528 324.254 277.523 324.426 277.447L337.597 271.582C337.768 271.505 337.902 271.364 337.97 271.188C338.037 271.013 338.032 270.818 337.956 270.646L334.591 263.089C334.514 262.918 334.372 262.783 334.197 262.716C334.021 262.649 333.826 262.654 333.655 262.73L320.484 268.595Z" fill="#0D3B66"/>
<path d="M333.55 266.269L323.185 270.884C323.128 270.91 323.063 270.912 323.004 270.889C322.946 270.867 322.899 270.822 322.873 270.765C322.848 270.707 322.846 270.642 322.868 270.584C322.891 270.525 322.936 270.478 322.993 270.452L333.357 265.837C333.414 265.812 333.479 265.81 333.538 265.833C333.596 265.855 333.644 265.9 333.669 265.957C333.695 266.015 333.696 266.08 333.674 266.138C333.651 266.197 333.607 266.244 333.549 266.269L333.55 266.269Z" fill="white"/>
<path d="M334.319 267.997L323.954 272.612C323.897 272.637 323.832 272.639 323.773 272.617C323.715 272.594 323.668 272.549 323.642 272.492C323.617 272.435 323.615 272.37 323.637 272.311C323.66 272.253 323.705 272.205 323.762 272.18L334.126 267.565C334.183 267.539 334.248 267.538 334.307 267.56C334.365 267.583 334.413 267.628 334.438 267.685C334.464 267.742 334.465 267.807 334.443 267.866C334.42 267.924 334.376 267.971 334.318 267.997L334.319 267.997Z" fill="white"/>
<path d="M335.088 269.724L324.724 274.339C324.666 274.364 324.601 274.366 324.543 274.343C324.484 274.321 324.437 274.276 324.412 274.219C324.386 274.162 324.384 274.097 324.407 274.038C324.429 273.979 324.474 273.932 324.531 273.907L334.896 269.292C334.953 269.266 335.018 269.265 335.076 269.287C335.135 269.309 335.182 269.354 335.208 269.412C335.233 269.469 335.235 269.534 335.212 269.592C335.19 269.651 335.145 269.698 335.088 269.724Z" fill="white"/>
<path opacity="0.6" d="M24.9373 245.824C26.0575 245.824 26.9655 244.916 26.9655 243.796C26.9655 242.676 26.0575 241.768 24.9373 241.768C23.8172 241.768 22.9092 242.676 22.9092 243.796C22.9092 244.916 23.8172 245.824 24.9373 245.824Z" fill="#0D3B66"/>
<path d="M391.022 264.212C390.719 263.594 390.555 262.917 390.541 262.229C390.528 261.541 390.665 260.858 390.944 260.228C391.223 259.599 391.637 259.039 392.156 258.586C392.675 258.134 393.287 257.801 393.948 257.611L394.853 240.904L401.841 246.074L399.909 261.147C400.155 262.28 399.977 263.464 399.409 264.474C398.841 265.484 397.921 266.25 396.826 266.628C395.73 267.005 394.533 266.968 393.463 266.522C392.394 266.077 391.524 265.254 391.02 264.21L391.022 264.212Z" fill="#FFB7B7"/>
<path d="M336.876 267.319C337.271 266.756 337.538 266.112 337.657 265.434C337.776 264.756 337.746 264.06 337.567 263.396C337.389 262.731 337.066 262.113 336.623 261.587C336.18 261.06 335.627 260.637 335.002 260.347L336.684 243.699L328.981 247.732L328.565 262.923C328.147 264.004 328.141 265.201 328.547 266.287C328.952 267.373 329.743 268.272 330.767 268.814C331.792 269.356 332.98 269.503 334.106 269.228C335.232 268.952 336.217 268.273 336.876 267.319Z" fill="#FFB7B7"/>
<path d="M377.985 369.664H372.482L369.863 348.435H377.986L377.985 369.664Z" fill="#FFB7B7"/>
<path d="M379.389 367.867H368.55C366.719 367.868 364.963 368.595 363.669 369.89C362.374 371.185 361.646 372.941 361.646 374.772V374.996H379.391L379.389 367.867Z" fill="#2F2E41"/>
<path d="M350.189 366.359L344.807 367.512L337.799 347.304L345.742 345.603L350.189 366.359Z" fill="#FFB7B7"/>
<path d="M351.185 364.308L340.587 366.578C339.7 366.768 338.859 367.131 338.112 367.646C337.365 368.161 336.727 368.818 336.234 369.58C335.742 370.341 335.404 371.192 335.24 372.085C335.076 372.977 335.089 373.892 335.279 374.779L335.326 374.999L352.678 371.281L351.185 364.308Z" fill="#2F2E41"/>
<path d="M387.908 248.184C387.908 248.184 393.764 266.28 388.03 286.743L382.193 311.256L380.744 365.494L368.925 361.7L364.11 278.971L341.932 316.614L353.605 361.7L340.181 362.138L325.685 313.38L338.43 267.882L340.764 256.792L387.908 248.184Z" fill="#2F2E41"/>
<path d="M340.057 188.088L351.813 181.389L372.151 180.214L386.257 187.62L380.524 226.948C380.524 226.948 391.459 242.64 387.472 253.095C382.552 265.999 339.527 272.731 340.368 260.138C341.696 240.264 343.747 241.634 345.251 231.888C346.9 221.195 335.354 207.484 335.354 207.484L340.057 188.088Z" fill="#E6E6E6"/>
<path d="M381.908 191.497L383.218 185.817C383.218 185.817 388.809 186.539 392.683 197.362C396.558 208.185 403.444 230.995 403.444 230.995L403.084 239.282C403.084 239.282 405.738 242.348 403.908 243.748C402.078 245.149 407.216 247.046 404.614 249.038C403.471 249.913 402.606 251.1 402.122 252.456C401.638 253.812 401.556 255.278 401.886 256.679L393.892 254.21L394.48 241.162L391.313 230.876L382.849 205.132L381.908 191.497Z" fill="#E6E6E6"/>
<path d="M344.364 192.465L342.583 186.957C342.583 186.957 339.304 185.617 336.883 193.177C334.462 200.737 333.313 219.876 333.313 219.876L328.611 242.687C328.611 242.687 326.853 245.592 327.786 246.425C328.719 247.257 323.683 248.428 326.611 249.971C329.539 251.513 326.358 249.638 327.452 253.156C328.17 255.466 327.434 256.68 327.434 256.68L336.486 254.859L338.954 243.166L344.554 221.426L344.364 192.465Z" fill="#E6E6E6"/>
<path d="M361.938 175.267C370.56 175.267 377.55 168.277 377.55 159.655C377.55 151.033 370.56 144.044 361.938 144.044C353.315 144.044 346.325 151.033 346.325 159.655C346.325 168.277 353.315 175.267 361.938 175.267Z" fill="#2F2E41"/>
<path d="M363.541 149.939C366.9 146.533 370.966 143.904 375.451 142.238C378.33 141.171 381.463 140.512 384.473 141.118C387.483 141.724 390.329 143.806 391.169 146.759C391.855 149.174 391.147 151.774 390.081 154.047C389.016 156.32 387.593 158.427 386.732 160.786C385.853 163.191 385.589 165.779 385.963 168.312C386.337 170.846 387.338 173.247 388.876 175.295C390.413 177.344 392.438 178.977 394.766 180.044C397.094 181.112 399.652 181.582 402.208 181.411C399.25 181.808 396.524 183.197 393.634 183.936C390.743 184.674 387.331 184.625 385.183 182.554C382.91 180.363 382.864 176.801 382.975 173.646L383.465 159.576C383.548 157.184 383.619 154.716 382.757 152.483C381.894 150.251 379.844 148.296 377.449 148.316C375.635 148.332 374.03 149.43 372.576 150.514C371.121 151.597 369.581 152.754 367.775 152.914C365.968 153.075 363.905 151.739 364.04 149.93L363.541 149.939Z" fill="#2F2E41"/>
<path d="M370.452 159.882C367.407 154.313 360.425 152.266 354.856 155.31C349.287 158.354 347.24 165.337 350.284 170.906C353.329 176.474 360.311 178.521 365.88 175.477C371.449 172.433 373.496 165.45 370.452 159.882Z" fill="#FFB7B7"/>
<path d="M344.205 164.523H360.797L360.967 162.141L361.818 164.523H364.373L364.71 159.802L366.397 164.523H371.344V164.289C371.34 161.002 370.032 157.851 367.708 155.526C365.383 153.202 362.232 151.894 358.944 151.891H356.605C353.318 151.894 350.166 153.202 347.841 155.526C345.517 157.851 344.209 161.002 344.206 164.289L344.205 164.523Z" fill="#2F2E41"/>
<path d="M368.837 173.087L374.897 167.021L375.919 153.593H362.542L362.873 153.923C367.481 158.525 372.455 165.277 368.837 173.087Z" fill="#2F2E41"/>
<path d="M396.501 375H0.515286C0.378623 375 0.247558 374.946 0.150923 374.849C0.0542885 374.752 0 374.621 0 374.485C0 374.348 0.0542885 374.217 0.150923 374.12C0.247558 374.024 0.378623 373.969 0.515286 373.969H396.501C396.637 373.969 396.768 374.024 396.865 374.12C396.961 374.217 397.016 374.348 397.016 374.485C397.016 374.621 396.961 374.752 396.865 374.849C396.768 374.946 396.637 375 396.501 375Z" fill="#E6E6E6"/>
<path d="M40.2128 360.354C41.2817 360.729 42.4294 360.824 43.5454 360.627C44.6613 360.431 45.7077 359.95 46.5838 359.231C48.815 357.358 49.5147 354.273 50.0841 351.416L51.7681 342.965L48.243 345.393C45.7078 347.138 43.1159 348.94 41.3609 351.468C39.6058 353.996 38.8396 357.445 40.2499 360.183" fill="#E6E6E6"/>
<path d="M40.7563 371.172C40.3127 367.94 39.8561 364.666 40.1673 361.399C40.3697 358.486 41.3978 355.69 43.1313 353.34C44.0878 352.109 45.2518 351.054 46.5708 350.223C46.915 350.006 47.2314 350.552 46.8887 350.767C44.6063 352.21 42.841 354.34 41.8472 356.85C40.7496 359.642 40.5734 362.685 40.7625 365.65C40.8769 367.444 41.1191 369.225 41.3638 371.005C41.383 371.085 41.371 371.17 41.3301 371.242C41.2893 371.314 41.2227 371.367 41.1438 371.392C41.0633 371.414 40.9774 371.403 40.9049 371.362C40.8323 371.32 40.7789 371.252 40.7563 371.172Z" fill="#F2F2F2"/>
<path d="M43.9502 365.986C44.4087 366.683 45.0388 367.249 45.78 367.632C46.5211 368.014 47.3482 368.2 48.1817 368.17C50.3238 368.067 52.1097 366.572 53.7174 365.154L58.4725 360.956L55.3256 360.805C53.0625 360.697 50.7396 360.596 48.5857 361.294C46.4318 361.992 44.4423 363.671 44.0481 365.902" fill="#E6E6E6"/>
<path d="M39.5024 373.03C41.6382 369.251 44.1157 365.051 48.5425 363.708C49.7734 363.336 51.064 363.203 52.3448 363.315C52.7483 363.35 52.6478 363.972 52.2449 363.938C50.0978 363.76 47.9549 364.327 46.1769 365.543C44.5054 366.756 43.0883 368.285 42.0061 370.044C41.3157 371.096 40.6968 372.192 40.0779 373.287C39.8806 373.637 39.3024 373.385 39.5024 373.03Z" fill="#F2F2F2"/>
<path d="M324.499 93.9688C322.114 93.9699 319.753 93.5012 317.549 92.5895C315.345 91.6778 313.343 90.341 311.656 88.6555C309.969 86.9699 308.63 84.9686 307.717 82.7657C306.803 80.5629 306.333 78.2017 306.332 75.817V75.8021C306.332 75.7639 306.332 75.7237 306.332 75.6861C306.355 72.0981 307.44 68.5972 309.45 65.625C311.46 62.6528 314.305 60.3423 317.627 58.9851C320.948 57.6278 324.598 57.2846 328.114 57.9986C331.631 58.7126 334.857 60.4519 337.386 62.9971C339.915 65.5423 341.634 68.7795 342.326 72.3003C343.017 75.8211 342.651 79.4679 341.272 82.7807C339.894 86.0935 337.565 88.9239 334.58 90.9151C331.595 92.9062 328.087 93.9688 324.499 93.9688ZM324.499 58.0171C319.804 58.0276 315.302 59.8906 311.973 63.2011C308.643 66.5117 306.754 71.0023 306.717 75.6975C306.717 75.7382 306.717 75.7711 306.717 75.8005C306.716 79.3184 307.759 82.7575 309.713 85.6827C311.668 88.608 314.445 90.888 317.696 92.2346C320.946 93.5811 324.522 93.9337 327.973 93.2476C331.423 92.5615 334.593 90.8677 337.081 88.3803C339.568 85.8929 341.263 82.7236 341.949 79.2733C342.636 75.823 342.283 72.2466 340.937 68.9964C339.591 65.7463 337.311 62.9683 334.386 61.0138C331.461 59.0593 328.022 58.016 324.504 58.016L324.499 58.0171Z" fill="#3F3D56"/>
<path d="M305.854 83.1776L263.538 125.826H243.561V126.496H263.818L263.917 126.396L306.331 83.6486L305.854 83.1776Z" fill="#CCCCCC"/>
</svg>
