<svg width="341" height="375" viewBox="0 0 341 375" fill="none" xmlns="http://www.w3.org/2000/svg">
<path opacity="0.1" d="M59.2649 125.731C59.5577 125.314 59.719 124.819 59.728 124.31C59.728 121.214 53.4227 118.71 45.6474 118.71C37.8722 118.71 31.5777 121.235 31.5777 124.31C31.5885 124.897 31.7908 125.464 32.1538 125.925C23.5009 126.889 17.6694 128.703 17.6694 130.771C17.6694 133.861 30.5923 136.365 46.5036 136.365C62.4148 136.365 75.3377 133.861 75.3377 130.771C75.3323 128.553 68.7848 126.647 59.2649 125.731Z" fill="#0D3B66" fill-opacity="0.5"/>
<path opacity="0.1" d="M282.679 12.1508C283.144 11.485 283.401 10.696 283.417 9.88399C283.417 4.97895 273.413 1 261.071 1C248.73 1 238.725 4.97895 238.725 9.88399C238.748 10.8038 239.071 11.6909 239.646 12.4092C225.905 13.9437 216.649 16.8189 216.649 20.114C216.649 25.0191 237.11 28.998 262.417 28.998C287.725 28.998 308.186 25.0191 308.186 20.114C308.186 16.6197 297.788 13.5991 282.679 12.1508Z" fill="#0D3B66" fill-opacity="0.5"/>
<path opacity="0.1" d="M103.375 12.1508C103.84 11.485 104.097 10.696 104.113 9.88399C104.113 4.97895 94.1081 1 81.7668 1C69.4255 1 59.421 4.97895 59.421 9.88399C59.4434 10.8038 59.7669 11.6909 60.3418 12.4092C46.6005 13.9437 37.3445 16.8189 37.3445 20.114C37.3445 25.0191 57.8326 28.998 83.1129 28.998C108.393 28.998 128.881 25.0191 128.881 20.114C128.881 16.6197 118.484 13.5991 103.375 12.1508Z" fill="#0D3B66" fill-opacity="0.5"/>
<path opacity="0.1" d="M46.7244 58.5305C47.9843 57.8037 49.6751 58.4982 50.5366 59.6666C51.3981 60.835 51.6458 62.3587 51.8612 63.7748C52.3404 66.9569 52.685 70.6128 50.542 73.0141C54.0473 62.3695 64.1433 54.2124 75.3108 53.0225" stroke="#0D3B66" stroke-opacity="0.5" stroke-width="3" stroke-miterlimit="10"/>
<path opacity="0.1" d="M187.513 5.75429C188.321 5.28586 189.414 5.75429 189.969 6.48117C190.462 7.28033 190.752 8.18788 190.814 9.12483C191.121 11.1708 191.352 13.5184 189.969 15.0475C191.151 11.6303 193.269 8.61385 196.083 6.34164C198.896 4.06943 202.29 2.63278 205.88 2.19531" stroke="#0D3B66" stroke-opacity="0.5" stroke-width="3" stroke-miterlimit="10"/>
<path opacity="0.1" d="M280.127 105.363C280.935 104.894 282.028 105.363 282.582 106.09C283.075 106.889 283.366 107.796 283.428 108.733C283.735 110.779 283.966 113.127 282.582 114.656C283.765 111.239 285.883 108.222 288.696 105.95C291.509 103.678 294.904 102.241 298.494 101.804" stroke="#0D3B66" stroke-opacity="0.5" stroke-width="3" stroke-miterlimit="10"/>
<path d="M148.094 35.9922C145.789 37.9198 144.163 40.3912 141.632 42.1303C138.585 44.2301 134.584 45.027 130.863 46.1523C127.142 47.2776 123.325 49.0436 121.828 52.1073C120.557 54.7294 121.289 57.7715 120.213 60.4528C119.055 63.3011 116.05 65.2987 113.751 67.5977C109.207 72.1313 107.187 78.3662 108.367 84.1812C109.18 88.2032 111.403 91.9183 112.723 95.8434C114.338 100.646 114.564 105.68 114.79 110.661C115.21 120.013 115.625 129.457 113.52 138.659C112.981 140.969 111.527 176.09 108.711 176.02C116.185 175.379 123.702 175.309 131.213 175.234L243.75 174.157C238.564 167.373 235.253 127.282 234.154 119.286C232.259 105.503 236.847 91.703 237.385 77.8278C237.461 76.0402 237.461 74.2042 236.723 72.5243C235.947 70.7637 234.397 69.2615 233.88 67.4362C233.137 64.8248 234.628 62.1489 234.677 59.4675C234.774 54.0833 229.292 49.9536 224.947 45.9639C220.758 42.1249 217.274 37.7637 212.95 34.0216C208.626 30.2796 203.193 27.1082 197.012 26.5321C191.934 26.0637 186.889 27.3828 182.027 28.6858C176.228 30.2365 170.719 32.1964 164.565 32.0994C157.775 31.981 153.591 32.5463 148.094 35.9922Z" fill="#2F2E41"/>
<g opacity="0.1">
<path opacity="0.1" d="M225.609 57.2007C225.765 57.7897 225.993 58.3575 226.287 58.8914C226.215 57.6799 225.921 56.4919 225.42 55.3862C225.397 55.9969 225.46 56.6079 225.609 57.2007Z" fill="black"/>
<path opacity="0.1" d="M116.47 143.656L115.845 143.709C116.055 143.714 116.264 143.696 116.47 143.656Z" fill="black"/>
</g>
<path d="M233.33 337.682C232.644 338.214 231.824 338.547 230.961 338.646C217.193 341.472 203.301 343.884 189.263 344.649C176.879 345.327 164.457 344.719 152.067 344.111C139.677 343.502 127.298 342.888 115.205 340.385C120.215 330.296 123.371 319.388 124.52 308.182C125.028 303.263 125.153 298.313 124.891 293.375C124.851 292.781 124.78 292.19 124.676 291.603C124.1 288.061 122.678 282.929 123.971 280.367C125.629 277.071 131.999 276.964 135.111 276.35C140.399 275.311 145.713 274.444 151.049 273.717C172.227 270.836 193.619 270.18 214.958 269.539C217.823 269.453 221.237 269.647 222.728 272.096C223.563 273.469 223.52 275.181 223.477 276.791C223.38 280.277 223.414 283.762 223.579 287.248C224.327 302.702 227.635 317.926 233.368 332.298C234.079 334.058 234.73 336.363 233.33 337.682Z" fill="#FBBEBE"/>
<path d="M149.547 145.944C147.296 148.717 144.125 150.58 140.932 152.216C137.118 154.187 133.189 155.927 129.167 157.428C128.354 158.661 129 160.298 129.705 161.612C136.021 173.877 144.475 186.067 157.225 191.338C163.768 194.03 170.945 194.703 177.999 195.333C180.196 195.527 182.436 195.721 184.579 195.193C186.722 194.666 188.714 193.39 190.502 192.038C202.184 183.198 209.877 170.081 211.889 155.571C212.061 154.284 212.061 152.706 210.958 152.017C210.285 151.603 209.428 151.683 208.637 151.689C203.473 151.743 198.896 147.92 196.511 143.349C194.126 138.777 193.49 133.506 192.903 128.375C192.903 128.262 162.545 127.621 159.805 127.6C155.529 127.562 154.119 128.063 153.704 132.445C153.268 137.28 152.729 142.002 149.547 145.944Z" fill="#FBBEBE"/>
<path opacity="0.1" d="M149.547 145.944C147.296 148.717 144.125 150.58 140.932 152.216C137.118 154.187 133.189 155.927 129.167 157.428C128.354 158.661 129 160.298 129.705 161.612C136.021 173.877 144.475 186.067 157.225 191.338C163.768 194.03 170.945 194.703 177.999 195.333C180.196 195.527 182.436 195.721 184.579 195.193C186.722 194.666 188.714 193.39 190.502 192.038C202.184 183.198 209.877 170.081 211.889 155.571C212.061 154.284 212.061 152.706 210.958 152.017C210.285 151.603 209.428 151.683 208.637 151.689C203.473 151.743 198.896 147.92 196.511 143.349C194.126 138.777 193.49 133.506 192.903 128.375C192.903 128.262 162.545 127.621 159.805 127.6C155.529 127.562 154.119 128.063 153.704 132.445C153.268 137.28 152.729 142.002 149.547 145.944Z" fill="black"/>
<path d="M173.675 140.21C196.573 140.21 215.136 121.648 215.136 98.7509C215.136 75.8539 196.573 57.2922 173.675 57.2922C150.777 57.2922 132.214 75.8539 132.214 98.7509C132.214 121.648 150.777 140.21 173.675 140.21Z" fill="#FBBEBE"/>
<path d="M204.081 147.904C204.539 153.719 142.041 159.162 139.683 151.99C138.283 153.643 135.714 153.778 133.668 153.067C131.622 152.356 129.899 150.989 127.96 149.982C124.73 148.297 121.09 147.672 117.509 147.064C111.678 146.078 104.904 145.357 100.585 149.4C99.094 150.795 98.0763 152.631 96.5794 154.031C93.9625 156.465 90.2634 157.224 86.8873 158.338C82.0143 159.954 77.5236 162.538 72.9198 164.799C62.1702 170.092 50.709 173.795 38.895 175.794C36.3804 176.219 33.8497 176.564 31.3567 177.162C27.8567 178.001 24.3568 179.439 21.9714 182.137C24.7606 185.701 28.7667 187.645 33.0689 189.05L74.5836 202.618C80.8297 204.659 87.1726 206.743 92.6379 210.398C101.743 216.472 107.666 226.454 110.908 236.905C114.149 247.356 114.984 258.383 115.791 269.297C116.141 274.04 116.459 278.988 114.596 283.382C124.266 284.521 134.045 284.36 143.672 282.903C152.939 281.492 162.104 278.875 171.478 278.961C181.709 279.064 191.622 282.38 201.707 284.173C211.792 285.966 222.922 286.02 231.419 280.297C229.609 277.858 229.335 274.374 229.265 271.348L229.049 257.01C228.953 255.279 229.069 253.543 229.394 251.841C230.116 248.772 232.146 246.198 233.443 243.328C235.947 237.788 235.597 231.456 235.737 225.377C235.877 219.299 236.728 212.768 240.836 208.32C243.528 205.418 247.298 203.77 251.121 202.753C257.657 201.008 264.496 200.895 271.248 200.416C293.262 198.838 314.798 193.23 334.785 183.87C333.59 181.345 330.812 179.913 328.275 178.739C322.277 175.966 315.923 173.123 309.343 173.743C306.161 174.044 303.011 175.153 299.84 174.749C296.835 174.362 294.175 172.66 291.257 171.847C289.044 171.233 286.728 171.142 284.456 170.797C279.212 169.995 274.29 167.836 269.439 165.698L257.184 160.314C253.953 158.887 250.588 157.364 248.369 154.607C247.648 153.708 247.066 152.696 246.28 151.85C244.928 150.402 243.049 149.546 241.17 148.948C238.809 148.127 236.292 147.85 233.809 148.14C232.106 148.479 230.425 148.919 228.775 149.46C220.677 151.646 212.32 149.373 204.081 147.904Z" fill="#0D3B66"/>
<path d="M251.503 364.754C229.433 370.059 206.953 373.481 184.304 374.984H184.266H127.4H127.368C117.191 374.291 107.162 373.232 97.2793 371.807C100.195 363.127 104.215 354.857 109.238 347.201C110.042 346.118 110.671 344.915 111.101 343.637C111.338 342.447 111.459 341.237 111.462 340.024C111.724 336.308 113.165 332.774 115.576 329.934C116.696 330.544 117.827 331.131 118.968 331.695C131.901 338.118 145.985 341.898 160.397 342.813C167.978 343.202 175.576 343.049 183.136 342.355C200.183 340.982 217.909 337.816 231.639 327.764C232.215 327.344 232.786 326.908 233.352 326.461C240.023 332.384 243.884 341.462 246.646 349.947C248.288 354.911 249.807 359.865 251.503 364.754Z" fill="#2F2E41"/>
<path opacity="0.1" d="M173.449 330.499C173.18 331.369 173.115 332.288 173.256 333.187C173.398 334.085 173.744 334.94 174.267 335.684C174.617 334.906 174.721 334.039 174.565 333.201C174.409 332.362 174.001 331.59 173.395 330.989L173.449 330.499Z" fill="black"/>
<path d="M149.892 156.448C151.981 155.307 154.237 154.295 156.617 154.262C160.193 154.23 163.391 156.416 166.04 158.828C168.489 161.04 170.705 163.497 172.652 166.161C173.622 167.481 174.548 168.929 174.693 170.56C174.838 172.192 173.945 174.028 172.351 174.416C171.344 174.585 170.31 174.376 169.449 173.829C165.766 171.804 163.036 167.168 158.857 167.621C155.993 167.928 154.054 170.593 152.487 173.005C151.093 175.159 149.682 177.371 149.057 179.859C148.433 182.347 148.734 185.243 150.468 187.117C151.814 188.587 153.78 189.271 155.616 190.035C159.677 191.716 163.395 194.129 166.584 197.153C168.129 198.628 169.599 200.384 169.815 202.537C170.03 204.691 168.399 207.06 166.266 206.909C165.305 206.759 164.398 206.364 163.633 205.763C159.778 203.216 155.842 200.545 151.319 199.608C146.715 198.655 141.961 199.608 137.319 200.319C132.229 201.08 127.114 201.622 121.973 201.945C120.448 202.12 118.903 202.02 117.413 201.649C112.33 200.077 110.849 193.61 111.441 188.937C112.071 183.94 115.749 182.804 119.593 180.322C130.405 173.247 138.428 162.694 149.892 156.448Z" fill="#FBBEBE"/>
<path d="M189.721 156.448C187.627 155.307 185.376 154.295 182.991 154.262C179.415 154.23 176.217 156.416 173.568 158.828C171.121 161.04 168.907 163.498 166.961 166.161C165.997 167.481 165.071 168.929 164.926 170.56C164.78 172.192 165.669 174.028 167.262 174.416C168.271 174.585 169.306 174.376 170.17 173.829C173.853 171.804 176.583 167.168 180.756 167.621C183.626 167.928 185.564 170.593 187.126 173.005C188.521 175.159 189.937 177.371 190.556 179.859C191.175 182.347 190.879 185.243 189.145 187.117C187.804 188.587 185.834 189.271 183.998 190.035C179.935 191.717 176.216 194.129 173.024 197.153C171.479 198.628 170.014 200.384 169.793 202.537C169.572 204.691 171.209 207.06 173.342 206.909C174.303 206.76 175.21 206.365 175.975 205.763C179.83 203.216 183.766 200.545 188.289 199.608C192.893 198.655 197.647 199.608 202.289 200.319C207.366 201.116 212.487 201.671 217.619 201.977C219.146 202.152 220.692 202.052 222.185 201.681C227.262 200.109 228.743 193.643 228.156 188.969C227.521 183.973 223.848 182.836 219.998 180.354C209.208 173.247 201.19 162.694 189.721 156.448Z" fill="#FBBEBE"/>
<path d="M145.008 83.7719C147.42 79.9599 150.285 75.8248 154.199 75.3833C159.664 74.7641 163.934 81.5967 169.373 82.4797C176.373 83.6211 183.254 74.6618 189.834 77.9354C193.065 79.5507 195.477 84.0303 198.988 83.9442C201.416 83.8904 203.392 81.6128 205.002 79.3784C207.719 75.611 210.123 71.6277 212.191 67.4684C205.508 59.8067 195.789 58.0568 186.716 56.6623L171.462 54.3201C167.79 53.7548 164.053 53.1948 160.402 53.9755C157.101 54.6809 154.021 56.4577 151.033 58.326C147.469 60.5658 139.085 64.1625 136.899 68.3299C135.375 71.2212 137.469 72.5673 139.435 75.4802C141.284 78.2441 143.141 81.008 145.008 83.7719Z" fill="#2F2E41"/>
<path opacity="0.1" d="M121.903 177.35C115.286 178.671 108.529 179.152 101.792 178.782C99.1481 178.642 96.4935 178.368 93.8605 178.615C90.6836 178.917 87.6306 179.967 84.5345 180.731C68.494 184.678 51.732 180.823 35.3576 178.658C32.4661 178.276 29.51 177.948 26.6455 178.508C24.0232 179.019 21.6002 180.247 19.2794 181.566C15.5193 183.704 11.9201 186.114 8.51039 188.775C4.94045 191.564 1.33821 195.118 1.09052 199.635C0.875139 203.523 3.24432 207.103 6.11427 209.747C13.868 216.924 25.3801 219.083 35.7615 217.14C39.7083 216.402 43.5583 215.131 47.5482 214.69C51.635 214.237 55.765 214.69 59.8734 214.496C68.2194 214.124 76.21 211.222 84.3137 209.203C96.9685 206.052 110.059 205.026 123.05 206.166C122.937 206.215 122.815 206.239 122.691 206.235C122.568 206.231 122.448 206.2 122.338 206.144C122.228 206.087 122.133 206.008 122.057 205.91C121.982 205.813 121.929 205.7 121.903 205.58C120.95 202.952 120.902 200.093 120.918 197.299C120.961 190.52 121.278 184.102 121.903 177.35Z" fill="black"/>
<path d="M120.826 177.888C114.209 179.21 107.452 179.691 100.715 179.321C98.0712 179.181 95.4166 178.906 92.7836 179.154C89.6067 179.455 86.5537 180.505 83.4576 181.27C67.4171 185.216 50.6551 181.361 34.2807 179.197C31.3892 178.815 28.4331 178.486 25.5686 179.046C22.9463 179.558 20.5233 180.785 18.2025 182.104C14.4424 184.243 10.8432 186.652 7.43349 189.314C3.86355 192.103 0.261304 195.656 0.013616 200.174C-0.201765 204.061 2.16742 207.642 5.03737 210.285C12.7911 217.463 24.3032 219.622 34.6846 217.678C38.6314 216.94 42.4814 215.67 46.4713 215.228C50.5582 214.776 54.6881 215.228 58.7965 215.034C67.1425 214.663 75.1331 211.761 83.2368 209.742C95.8916 206.591 108.982 205.565 121.973 206.705C121.86 206.754 121.738 206.777 121.615 206.773C121.492 206.769 121.371 206.738 121.261 206.682C121.152 206.626 121.056 206.546 120.981 206.449C120.905 206.351 120.853 206.238 120.826 206.118C119.873 203.49 119.825 200.631 119.841 197.837C119.884 191.058 120.202 184.64 120.826 177.888Z" fill="#0D3B66"/>
<path opacity="0.1" d="M218.959 174.469C227.165 176.338 246.915 177.161 255.326 176.882C259.165 176.763 262.994 176.418 266.833 176.429C273.413 176.429 279.982 177.506 286.546 177.07C295.026 176.488 303.356 173.371 311.815 174.173C315.972 174.572 319.973 175.896 323.936 177.221C327.899 178.545 332.217 180.042 335.006 183.262C337.591 186.245 338.533 190.261 339.389 194.116C339.868 196.27 340.348 198.494 339.928 200.653C339.125 204.75 335.351 207.523 331.727 209.591C327.419 212.046 322.692 214.157 317.727 214.044C314.782 213.979 311.917 213.128 309.112 212.245C301.073 209.72 292.856 206.861 284.456 207.491C278.582 207.943 272.713 210.108 266.935 208.939C263.537 208.25 260.474 206.452 257.243 205.256C249.371 202.376 229.389 203.14 221.043 203.937C221.527 199.248 221.468 194.52 221.953 189.825C222.33 186.234 222.69 182.513 221.538 179.089C220.817 177.038 220.574 175.923 218.959 174.469Z" fill="black"/>
<path d="M219.498 175.546C227.704 177.415 247.454 178.238 255.865 177.958C259.704 177.84 263.532 177.495 267.371 177.506C273.951 177.506 280.52 178.583 287.084 178.147C295.565 177.565 303.895 174.448 312.354 175.25C316.511 175.649 320.511 176.973 324.474 178.298C328.437 179.622 332.756 181.119 335.545 184.339C338.129 187.322 339.072 191.338 339.928 195.193C340.407 197.347 340.886 199.571 340.466 201.73C339.664 205.827 335.889 208.6 332.266 210.668C327.958 213.123 323.23 215.233 318.266 215.12C315.321 215.056 312.456 214.205 309.651 213.322C301.612 210.797 293.395 207.938 284.995 208.568C279.12 209.02 273.251 211.185 267.474 210.016C264.076 209.327 261.012 207.529 257.782 206.333C249.909 203.453 229.927 204.217 221.581 205.014C222.066 200.325 222.007 195.597 222.491 190.902C222.868 187.311 223.229 183.59 222.077 180.166C221.355 178.115 221.113 177 219.498 175.546Z" fill="#0D3B66"/>
<path d="M133.943 93.5551C132.683 93.2266 132.198 91.6329 131.062 90.9922C129.926 90.3514 128.504 90.8576 127.686 91.8106C126.926 92.8191 126.514 94.0473 126.512 95.3103C126.411 98.0338 127.153 100.722 128.637 103.008C130.121 105.294 132.275 107.066 134.804 108.082C133.678 103.181 133.243 98.146 133.512 93.1243L133.943 93.5551Z" fill="#FBBEBE"/>
<path d="M213.402 93.5551C214.662 93.2266 215.141 91.6329 216.277 90.9922C217.414 90.3514 218.835 90.8576 219.654 91.8106C220.416 92.8178 220.829 94.0469 220.827 95.3103C220.928 98.0338 220.186 100.722 218.702 103.008C217.218 105.294 215.064 107.066 212.535 108.082C213.661 103.181 214.096 98.146 213.827 93.1243L213.402 93.5551Z" fill="#FBBEBE"/>
<g opacity="0.1">
<path opacity="0.1" d="M161.792 212.951C162.818 216.704 163.317 220.582 163.272 224.473C163.272 231.241 161.942 237.147 159.961 240.319C159.794 241.826 159.605 243.323 159.422 244.793C162.217 242.639 164.268 235.564 164.268 227.165C164.247 221.425 163.289 216.305 161.792 212.951Z" fill="black"/>
</g>
<g opacity="0.1">
<path opacity="0.1" d="M176.96 212.951C175.931 216.704 175.431 220.582 175.474 224.473C175.474 231.241 176.809 237.147 178.791 240.319C178.957 241.826 179.14 243.323 179.329 244.793C176.534 242.639 174.483 235.564 174.483 227.165C174.478 221.425 175.436 216.305 176.96 212.951Z" fill="black"/>
</g>
<path opacity="0.1" d="M204.959 76.6862C203.344 78.9207 201.373 81.1982 198.945 81.2521C195.428 81.3382 193.022 76.8693 189.791 75.2433C183.238 71.9697 176.373 80.929 169.33 79.7876C163.891 78.9046 159.637 72.072 154.156 72.6911C150.241 73.1326 147.377 77.2677 144.965 81.0798C143.098 78.3195 141.233 75.5556 139.37 72.7881C138.293 71.1728 137.125 70.0152 136.602 68.8199C135.558 71.3828 137.518 72.7396 139.37 75.4802C141.222 78.2208 143.096 81.0098 144.965 83.7719C147.377 79.9599 150.241 75.8248 154.156 75.3833C159.621 74.7641 163.891 81.5967 169.33 82.4797C176.33 83.6211 183.211 74.6618 189.791 77.9354C193.022 79.5507 195.434 84.0303 198.945 83.9442C201.373 83.8904 203.349 81.6128 204.959 79.3784C207.676 75.611 210.08 71.6277 212.147 67.4684C211.857 67.1346 211.555 66.8116 211.248 66.4993C209.391 70.037 207.29 73.4409 204.959 76.6862Z" fill="black"/>
</svg>
