<svg width="467" height="373" viewBox="0 0 467 373" fill="none" xmlns="http://www.w3.org/2000/svg">
<path d="M447.54 0.00230625H307.657C300.907 0.00197587 294.357 2.29687 289.085 6.50972C283.813 10.7226 280.132 16.6027 278.647 23.1834L207.968 336.487C207.197 339.905 207.184 343.449 207.929 346.872C208.673 350.296 210.158 353.514 212.279 356.303C214.401 359.092 217.107 361.384 220.208 363.017C223.309 364.65 226.73 365.586 230.231 365.758L374.032 372.839C381.732 373.218 389.307 370.784 395.344 365.992C401.38 361.2 405.466 354.376 406.838 346.795L446.934 125.286L449.917 126.138L457.591 84.1532L454.521 83.3863L465.712 21.5549C466.192 18.9065 466.081 16.1849 465.387 13.5843C464.694 10.9836 463.434 8.56789 461.699 6.50938C459.964 4.45086 457.796 2.80023 455.349 1.67517C452.903 0.550104 450.238 -0.0216857 447.545 0.000564266L447.54 0.00230625Z" fill="#3F3D56"/>
<path d="M326.07 6.75623H309.743C305.054 6.75627 300.506 8.35896 296.854 11.2982C293.202 14.2375 290.665 18.3366 289.665 22.915L221.821 333.663C221.43 335.452 221.431 337.304 221.822 339.093C222.213 340.882 222.987 342.566 224.089 344.029C225.191 345.492 226.596 346.7 228.208 347.57C229.82 348.441 231.602 348.953 233.43 349.073L376.764 358.461C380.808 358.726 384.808 357.494 388 355C391.193 352.505 393.354 348.923 394.073 344.938L451.964 23.7499C452.339 21.6711 452.252 19.5354 451.711 17.4936C451.17 15.4518 450.186 13.5536 448.831 11.933C447.475 10.3124 445.78 9.00885 443.865 8.11437C441.95 7.21989 439.863 6.75627 437.749 6.75623H422.26C420.761 6.75618 419.303 7.25005 418.113 8.16138C416.923 9.07271 416.067 10.3507 415.677 11.7974C415.333 13.075 414.577 14.2036 413.526 15.0083C412.475 15.8129 411.188 16.2488 409.864 16.2483H336.329C333.737 16.2482 331.241 15.2706 329.339 13.5108C327.437 11.7511 326.269 9.33883 326.07 6.75623Z" fill="white"/>
<path d="M405.305 223.995C405.584 224.005 405.857 223.914 406.074 223.739C406.291 223.565 406.439 223.318 406.489 223.044L438.186 48.2167C438.216 48.0505 438.21 47.8798 438.169 47.7161C438.127 47.5525 438.05 47.3998 437.944 47.2685C437.839 47.1382 437.706 47.0327 437.555 46.9595C437.404 46.8863 437.239 46.8472 437.072 46.845L292.861 45.1427H292.848C292.586 45.1449 292.333 45.2359 292.13 45.4008C291.926 45.5656 291.785 45.7946 291.729 46.0502L254.362 215.203C254.325 215.368 254.325 215.539 254.36 215.704C254.396 215.869 254.467 216.025 254.569 216.16C254.669 216.294 254.798 216.405 254.946 216.484C255.094 216.562 255.257 216.608 255.425 216.616L405.305 223.995Z" fill="#E6E6E6"/>
<path d="M280.16 235.299C280.029 235.299 279.902 235.343 279.799 235.425C279.696 235.506 279.624 235.62 279.594 235.748L278.244 241.532C278.225 241.614 278.223 241.699 278.24 241.781C278.257 241.863 278.292 241.941 278.341 242.008C278.391 242.076 278.455 242.132 278.528 242.173C278.602 242.213 278.683 242.238 278.767 242.244L355.058 247.663C355.2 247.672 355.34 247.629 355.452 247.543C355.565 247.457 355.642 247.333 355.671 247.194L356.969 240.501C356.985 240.42 356.983 240.337 356.964 240.256C356.945 240.176 356.908 240.1 356.858 240.035C356.807 239.97 356.743 239.916 356.67 239.877C356.596 239.839 356.516 239.816 356.433 239.811L280.195 235.3L280.16 235.299Z" fill="#E6E6E6"/>
<path d="M372.849 269.148C372.987 269.159 373.124 269.121 373.236 269.04C373.348 268.959 373.427 268.841 373.46 268.707L375.114 262.001C375.134 261.919 375.136 261.833 375.12 261.75C375.103 261.667 375.069 261.589 375.019 261.52C374.97 261.452 374.905 261.395 374.831 261.354C374.757 261.313 374.675 261.289 374.59 261.283L277.162 254.473C277.03 254.462 276.898 254.498 276.789 254.573C276.68 254.649 276.6 254.76 276.564 254.887L274.846 260.682C274.821 260.765 274.815 260.852 274.829 260.938C274.842 261.023 274.875 261.104 274.924 261.176C274.973 261.247 275.037 261.306 275.112 261.35C275.186 261.393 275.27 261.419 275.356 261.426L372.849 269.148Z" fill="#E6E6E6"/>
<path d="M367.617 290.644C367.755 290.655 367.892 290.617 368.004 290.536C368.116 290.455 368.195 290.338 368.228 290.204L369.882 283.497C369.902 283.415 369.904 283.33 369.888 283.247C369.872 283.163 369.837 283.085 369.787 283.016C369.738 282.948 369.673 282.891 369.599 282.85C369.525 282.809 369.443 282.785 369.359 282.779L271.93 275.969C271.798 275.959 271.666 275.994 271.557 276.07C271.448 276.145 271.368 276.256 271.332 276.383L269.614 282.179C269.589 282.261 269.583 282.349 269.597 282.434C269.611 282.519 269.643 282.601 269.692 282.672C269.741 282.743 269.805 282.803 269.88 282.846C269.954 282.889 270.038 282.915 270.124 282.922L367.617 290.644Z" fill="#E6E6E6"/>
<path d="M198.695 347.321C198.695 352.184 154.16 352.701 99.3473 356.125C44.5836 359.545 0 352.184 0 347.321C0 342.459 44.7917 332.677 99.3473 338.518C154.16 344.387 198.695 342.459 198.695 347.321Z" fill="#E6E6E6"/>
<path d="M322.745 327.392C322.884 327.407 323.023 327.37 323.137 327.29C323.251 327.209 323.332 327.09 323.364 326.954L326.86 312.981C326.88 312.899 326.883 312.814 326.867 312.731C326.851 312.649 326.818 312.57 326.769 312.502C326.72 312.433 326.656 312.376 326.583 312.335C326.51 312.293 326.429 312.268 326.345 312.261L266.514 307.232C266.374 307.222 266.235 307.262 266.123 307.345C266.01 307.428 265.93 307.548 265.898 307.684L262.916 321.095C262.898 321.175 262.897 321.259 262.914 321.34C262.931 321.42 262.965 321.497 263.013 321.563C263.062 321.63 263.124 321.685 263.196 321.726C263.267 321.767 263.347 321.792 263.429 321.8L322.745 327.392Z" fill="#0D3B66"/>
<path d="M81.1624 270.452C81.9158 269.936 82.5468 269.261 83.0109 268.475C83.475 267.689 83.761 266.811 83.8487 265.903C83.9364 264.994 83.8237 264.078 83.5184 263.217C83.2132 262.357 82.7229 261.574 82.0821 260.924L84.5046 206.882L72.1711 208.266L72.8879 261.126C71.8651 262.274 71.2993 263.756 71.2976 265.293C71.296 266.83 71.8587 268.314 72.879 269.463C73.8994 270.613 75.3065 271.349 76.8334 271.53C78.3603 271.712 79.9009 271.328 81.163 270.45L81.1624 270.452Z" fill="#A0616A"/>
<path d="M103.663 342.933L110.682 344.166L117.62 317.694L108.423 315.874L103.663 342.933Z" fill="#A0616A"/>
<path d="M123.077 353.058L101.015 349.182L102.513 340.664L116.051 343.043C118.312 343.44 120.322 344.718 121.64 346.597C122.957 348.475 123.474 350.799 123.077 353.059L123.077 353.058Z" fill="#2F2E41"/>
<path d="M84.3954 346.444H91.5229L94.9133 318.971H84.3943L84.3954 346.444Z" fill="#A0616A"/>
<path d="M105.266 353.059L82.8657 353.06L82.8652 344.411L96.6108 344.41C98.9061 344.41 101.108 345.321 102.731 346.943C104.354 348.565 105.266 350.765 105.266 353.059Z" fill="#2F2E41"/>
<path d="M114.131 355.597C114.02 355.597 113.909 355.59 113.799 355.577L105.41 354.887C105.028 354.842 104.659 354.72 104.325 354.529C103.992 354.337 103.701 354.079 103.471 353.772C103.24 353.464 103.074 353.113 102.983 352.74C102.893 352.366 102.879 351.978 102.943 351.599L111.271 310.535L106.039 282.954C105.996 282.729 105.874 282.528 105.694 282.387C105.515 282.246 105.29 282.175 105.062 282.186C104.834 282.197 104.618 282.291 104.454 282.449C104.289 282.607 104.187 282.819 104.167 283.047L96.4578 353.128C96.3859 353.867 96.0298 354.548 95.4647 355.029C94.8997 355.51 94.1698 355.753 93.429 355.706L85.5255 355.412C84.8329 355.363 84.1823 355.062 83.6965 354.567C83.2106 354.071 82.9232 353.415 82.8884 352.722L83.5198 268.033L124.494 262.915L127.357 307.093L127.345 307.14L116.886 353.43C116.736 354.047 116.382 354.596 115.883 354.989C115.383 355.381 114.767 355.595 114.131 355.597Z" fill="#2F2E41"/>
<path d="M97.0323 171.865C104.918 171.865 111.311 165.476 111.311 157.596C111.311 149.715 104.918 143.326 97.0323 143.326C89.1464 143.326 82.7537 149.715 82.7537 157.596C82.7537 165.476 89.1464 171.865 97.0323 171.865Z" fill="#A0616A"/>
<path d="M110.486 274.478C108.253 274.492 106.063 273.865 104.174 272.674C97.2561 268.354 89.4014 270.07 85.3342 271.479C84.9306 271.62 84.5002 271.668 84.0753 271.62C83.6503 271.571 83.2418 271.428 82.8803 271.199C82.523 270.975 82.2211 270.673 81.9972 270.316C81.7733 269.958 81.6332 269.555 81.5874 269.136L74.192 203.122C72.9525 192.061 79.6195 181.662 90.0444 178.395C90.4362 178.272 90.8344 178.156 91.2391 178.047C94.4832 177.168 97.8806 177.01 101.192 177.584C104.504 178.159 107.65 179.452 110.408 181.372C113.217 183.313 115.566 185.846 117.291 188.792C119.015 191.738 120.072 195.026 120.388 198.425L126.615 264.882C126.657 265.312 126.599 265.746 126.445 266.15C126.291 266.554 126.045 266.917 125.727 267.21C123.543 269.227 117.208 274.478 110.486 274.478Z" fill="#0D3B66"/>
<path d="M87.9637 217.278L71.2788 215.444C70.804 215.392 70.346 215.238 69.9361 214.993C69.5261 214.748 69.1739 214.418 68.9032 214.025C68.6326 213.631 68.45 213.184 68.3679 212.714C68.2857 212.244 68.306 211.761 68.4272 211.3L72.6746 195.122C72.7997 193.909 73.1641 192.733 73.7466 191.662C74.3291 190.591 75.1183 189.646 76.0684 188.882C77.0186 188.117 78.1109 187.549 79.2823 187.209C80.4537 186.869 81.6809 186.764 82.893 186.901C84.1051 187.038 85.2781 187.413 86.3441 188.006C87.4101 188.598 88.348 189.396 89.1037 190.353C89.8594 191.31 90.4178 192.407 90.7467 193.581C91.0756 194.754 91.1684 195.982 91.0199 197.192L91.6506 213.851C91.6687 214.328 91.5836 214.804 91.4013 215.245C91.2189 215.686 90.9435 216.083 90.5938 216.408C90.2441 216.734 89.8284 216.98 89.3749 217.13C88.9214 217.28 88.4409 217.331 87.966 217.279L87.9637 217.278Z" fill="#0D3B66"/>
<path d="M126.547 268.138C127.232 267.535 127.777 266.79 128.142 265.954C128.508 265.117 128.686 264.211 128.664 263.299C128.641 262.387 128.419 261.491 128.012 260.674C127.606 259.857 127.025 259.139 126.311 258.571L122.199 204.631L110.113 207.35L117.205 259.879C116.328 261.141 115.945 262.681 116.129 264.207C116.313 265.733 117.05 267.138 118.202 268.156C119.353 269.175 120.839 269.736 122.376 269.732C123.914 269.729 125.397 269.162 126.544 268.138H126.547Z" fill="#A0616A"/>
<path d="M105.48 213.887C105.13 213.562 104.855 213.166 104.673 212.724C104.49 212.283 104.405 211.808 104.423 211.331L105.054 194.671C104.918 193.468 105.021 192.249 105.356 191.085C105.691 189.92 106.253 188.834 107.008 187.886C107.764 186.939 108.699 186.15 109.76 185.564C110.82 184.977 111.986 184.606 113.191 184.47C114.396 184.334 115.615 184.436 116.78 184.771C117.945 185.106 119.032 185.668 119.98 186.423C120.928 187.178 121.718 188.112 122.305 189.172C122.891 190.232 123.263 191.398 123.399 192.601L127.647 208.779C127.768 209.241 127.788 209.723 127.706 210.194C127.624 210.664 127.441 211.111 127.171 211.504C126.9 211.898 126.548 212.228 126.138 212.473C125.728 212.718 125.27 212.872 124.795 212.924L108.11 214.758C107.635 214.81 107.155 214.759 106.701 214.609C106.248 214.458 105.832 214.212 105.483 213.886L105.48 213.887Z" fill="#0D3B66"/>
<path d="M96.1829 172.402C95.9285 172.402 95.6749 172.373 95.4272 172.315L95.3545 172.297C82.8007 170.38 80.0259 163.111 79.4172 160.076C78.787 156.934 79.5044 153.902 81.1264 152.723C80.2422 149.935 80.384 147.459 81.5491 145.367C83.5838 141.719 87.9911 140.487 88.5835 140.333C92.1053 137.737 96.319 139.47 97.0858 139.822C103.899 137.303 106.504 139.399 106.973 139.868C110.019 140.414 111.875 141.59 112.491 143.363C113.649 146.692 109.988 150.834 109.832 151.009L109.751 151.1L104.297 151.359C103.78 151.384 103.274 151.517 102.811 151.75C102.348 151.983 101.94 152.31 101.612 152.711C101.284 153.112 101.044 153.577 100.908 154.077C100.771 154.576 100.742 155.099 100.82 155.61C100.968 156.271 101.154 156.921 101.379 157.56C102.309 160.468 103.006 162.953 102.108 163.897C101.904 164.08 101.652 164.202 101.382 164.249C101.113 164.295 100.835 164.265 100.581 164.162C99.7286 163.934 99.1502 163.982 98.8618 164.304C98.4142 164.803 98.5508 166.067 99.2467 167.863C99.465 168.43 99.5238 169.047 99.4166 169.646C99.3094 170.245 99.0404 170.803 98.6386 171.26C98.336 171.616 97.9597 171.903 97.5356 172.1C97.1115 172.298 96.6496 172.401 96.1818 172.402H96.1829Z" fill="#2F2E41"/>
</svg>
