<svg width="312" height="312" viewBox="0 0 312 312" fill="none" xmlns="http://www.w3.org/2000/svg">
<g filter="url(#filter0_b)">
<circle cx="156" cy="156" r="156" fill="url(#paint0_linear)"/>
<circle cx="156" cy="156" r="155.5" stroke="white" stroke-opacity="0.3" style="mix-blend-mode:overlay"/>
</g>
<path fill-rule="evenodd" clip-rule="evenodd" d="M156.75 68C149.185 68 136.543 70.9055 124.647 74.14C112.476 77.4293 100.207 81.3216 92.9927 83.6789C89.9764 84.675 87.3022 86.5018 85.2774 88.9495C83.2525 91.3971 81.9592 94.3662 81.546 97.5158C75.0113 146.603 90.1749 182.982 108.573 207.049C116.375 217.344 125.678 226.41 136.17 233.944C140.402 236.938 144.327 239.229 147.661 240.797C150.731 242.244 154.031 243.428 156.75 243.428C159.469 243.428 162.758 242.244 165.839 240.797C169.858 238.844 173.702 236.551 177.33 233.944C187.823 226.41 197.125 217.344 204.927 207.049C223.325 182.982 238.489 146.603 231.954 97.5158C231.541 94.3647 230.249 91.3938 228.224 88.9443C226.199 86.4948 223.524 84.666 220.507 83.668C210.034 80.2341 199.48 77.0535 188.853 74.129C176.957 70.9165 164.315 68 156.75 68ZM156.75 122.821C160.634 122.816 164.395 124.185 167.366 126.686C170.337 129.187 172.328 132.659 172.984 136.487C173.641 140.315 172.921 144.252 170.953 147.601C168.986 150.949 165.896 153.493 162.232 154.782L166.453 176.601C166.607 177.395 166.583 178.212 166.384 178.996C166.184 179.779 165.814 180.509 165.299 181.132C164.785 181.756 164.139 182.257 163.408 182.602C162.677 182.947 161.878 183.125 161.07 183.125H152.43C151.623 183.123 150.826 182.944 150.096 182.598C149.366 182.253 148.721 181.751 148.208 181.128C147.695 180.505 147.326 179.776 147.127 178.993C146.928 178.211 146.904 177.394 147.058 176.601L151.268 154.782C147.604 153.493 144.514 150.949 142.547 147.601C140.579 144.252 139.859 140.315 140.516 136.487C141.172 132.659 143.163 129.187 146.134 126.686C149.105 124.185 152.866 122.816 156.75 122.821Z" fill="white"/>
<defs>
<filter id="filter0_b" x="-12" y="-12" width="336" height="336" filterUnits="userSpaceOnUse" color-interpolation-filters="sRGB">
<feFlood flood-opacity="0" result="BackgroundImageFix"/>
<feGaussianBlur in="BackgroundImage" stdDeviation="6"/>
<feComposite in2="SourceAlpha" operator="in" result="effect1_backgroundBlur"/>
<feBlend mode="normal" in="SourceGraphic" in2="effect1_backgroundBlur" result="shape"/>
</filter>
<linearGradient id="paint0_linear" x1="0" y1="0" x2="376.616" y2="155.126" gradientUnits="userSpaceOnUse">
<stop stop-color="#3E7CB7"/>
<stop offset="1" stop-color="#0D3B66"/>
</linearGradient>
</defs>
</svg>
