<svg width="535" height="381" viewBox="0 0 535 381" fill="none" xmlns="http://www.w3.org/2000/svg">
<g clip-path="url(#clip0)">
<path d="M488.514 342.743C493.206 351.027 489.227 379.007 489.227 379.007C489.227 379.007 463.172 367.991 458.48 359.71C456.232 355.732 455.658 351.026 456.883 346.625C458.107 342.225 461.031 338.49 465.011 336.241C468.992 333.993 473.703 333.414 478.11 334.634C482.517 335.853 486.259 338.769 488.514 342.743V342.743Z" fill="#F1F1F1"/>
<path d="M489.605 378.971L489.052 379.087C483.72 353.788 465.102 336.632 464.915 336.462L465.296 336.044C465.484 336.216 484.235 353.488 489.605 378.971Z" fill="white"/>
<path d="M531.148 352.176C524.781 363.712 488.883 379.341 488.883 379.341C488.883 379.341 482.965 340.678 489.328 329.145C492.386 323.606 497.522 319.507 503.605 317.75C509.689 315.993 516.222 316.721 521.768 319.775C527.313 322.83 531.417 327.959 533.176 334.035C534.935 340.112 534.206 346.637 531.148 352.176Z" fill="#F1F1F1"/>
<path d="M489.2 379.759L488.661 379.192C514.637 354.552 521.362 320.186 521.427 319.842L522.196 319.986C522.131 320.333 515.365 354.94 489.2 379.759Z" fill="white"/>
<path d="M125.78 264.82C121.672 264.807 117.582 264.278 113.605 263.247L112.821 263.031L112.094 262.667C85.8092 249.504 63.6337 232.117 46.184 210.99C31.7392 193.398 20.4774 173.425 12.905 151.967C3.8496 126.278 -0.506939 99.171 0.0433639 71.9413C0.054468 71.3697 0.0638655 70.9284 0.0638655 70.6244C0.0638655 57.3878 7.41997 45.7737 18.8044 41.0358C27.5174 37.4097 106.628 4.95481 112.344 2.60986C123.108 -2.77746 134.592 1.7191 136.43 2.50543C140.552 4.18878 213.685 34.0651 229.489 41.5816C245.777 49.3282 250.122 63.2448 250.122 70.2465C250.122 101.945 244.626 131.57 233.785 158.299C225.031 179.934 212.623 199.907 197.101 217.348C167.155 251.008 137.201 262.94 136.912 263.045C133.332 264.276 129.566 264.876 125.78 264.82ZM118.736 247.393C121.333 247.974 127.312 248.846 131.209 247.426C136.16 245.623 161.231 232.638 184.659 206.305C217.028 169.921 233.453 124.184 233.477 70.3634C233.419 69.2731 232.644 61.4961 222.333 56.5922C206.835 49.2212 130.82 18.1759 130.054 17.863L129.844 17.774C128.251 17.1073 123.181 15.7029 119.686 17.532L118.987 17.8578C118.139 18.2054 34.1627 52.6551 25.2065 56.3823C18.9414 58.9896 16.7092 65.4489 16.7092 70.6244C16.7092 71.0026 16.6994 71.5527 16.6856 72.2638C15.9698 109.09 24.5017 199.707 118.736 247.393Z" fill="#3F3D56"/>
<path d="M115.824 10.1683C115.824 10.1683 31.0844 44.9305 22.0051 48.7091C12.9258 52.4876 8.38621 61.556 8.38621 70.6244C8.38621 79.6928 1.57676 198.023 115.824 255.236C115.824 255.236 126.193 258.101 134.06 255.236C141.927 252.37 241.799 204.005 241.799 70.2465C241.799 70.2465 241.799 56.6439 225.911 49.0869C210.022 41.5299 133.202 10.1683 133.202 10.1683C133.202 10.1683 123.769 6.01199 115.824 10.1683Z" fill="#0D3B66"/>
<path opacity="0.1" d="M124.904 37.3735V222.818C124.904 222.818 39.4071 181.712 40.1637 73.6472L124.904 37.3735Z" fill="black"/>
<path opacity="0.1" d="M124.904 37.3735V222.818C124.904 222.818 39.4071 181.712 40.1637 73.6472L124.904 37.3735Z" fill="black"/>
<path d="M113.235 170.655L86 135.678L101.838 123.375L114.734 139.935L158.298 94.0026L172.866 107.788L113.235 170.655Z" fill="white"/>
<path d="M534.347 381H285.485C285.312 381 285.146 380.931 285.024 380.809C284.901 380.687 284.832 380.521 284.832 380.348C284.832 380.175 284.901 380.009 285.024 379.886C285.146 379.764 285.312 379.695 285.485 379.695H534.347C534.52 379.695 534.686 379.764 534.809 379.886C534.931 380.009 535 380.175 535 380.348C535 380.521 534.931 380.687 534.809 380.809C534.686 380.931 534.52 381 534.347 381Z" fill="#CACACA"/>
<path d="M357.424 370.716L367.525 370.716L372.331 331.798L357.422 331.799L357.424 370.716Z" fill="#FFB8B8"/>
<path d="M354.847 367.422L374.741 367.421H374.742C378.104 367.421 381.329 368.756 383.706 371.13C386.084 373.505 387.42 376.726 387.42 380.084V380.496L354.847 380.497L354.847 367.422Z" fill="#2F2E41"/>
<path d="M391.389 370.716L401.49 370.716L406.297 331.798L391.387 331.799L391.389 370.716Z" fill="#FFB8B8"/>
<path d="M388.812 367.422L408.706 367.421H408.707C412.069 367.421 415.294 368.756 417.672 371.13C420.049 373.505 421.385 376.726 421.385 380.084V380.496L388.813 380.497L388.812 367.422Z" fill="#2F2E41"/>
<path d="M373.301 234.048L375.725 357.514L356.122 356.3L342.523 277.658L338.228 224.038L373.301 234.048Z" fill="#2F2E41"/>
<path d="M406.943 213.315L409.69 359.471L386.829 358.818L381.891 271.939L373.301 240.482L338.228 224.039L343.954 184.718L395.49 184.003L406.943 213.315Z" fill="#2F2E41"/>
<path d="M367.528 82.484C377.21 82.484 385.058 74.6448 385.058 64.9748C385.058 55.3047 377.21 47.4656 367.528 47.4656C357.846 47.4656 349.998 55.3047 349.998 64.9748C349.998 74.6448 357.846 82.484 367.528 82.484Z" fill="#FFB8B8"/>
<path d="M382.068 89.8599L384.753 93.923L391.912 113.941L386.185 191.867L352.543 192.582L348.249 103.216L357.245 91.9847L382.068 89.8599Z" fill="#CCCCCC"/>
<path d="M334.649 105.362L328.923 104.647C328.923 104.647 327.491 105.362 326.775 110.366C326.06 115.37 317.47 159.696 317.47 159.696L328.923 214.03L341.807 196.872L333.933 166.845L341.807 136.818L334.649 105.362Z" fill="#2F2E41"/>
<path d="M407.658 104.647H411.953L422.69 162.555L412.669 207.595L402.648 191.152L405.511 173.279L404.08 157.551L399.069 148.257L407.658 104.647Z" fill="#2F2E41"/>
<path d="M377.887 64.9748L374.7 64.1789C374.7 64.1789 372.309 50.6491 366.731 52.2408C361.154 53.8325 346.811 55.4243 346.811 49.0573C346.811 42.6903 360.357 37.1192 368.325 37.9151C376.293 38.711 386.47 41.3513 389.043 53.0366C393.166 71.7689 380.534 76.5004 380.534 76.5004L380.744 75.8184C381.328 73.9246 381.37 71.9056 380.865 69.9894C380.36 68.0732 379.328 66.3362 377.887 64.9748Z" fill="#2F2E41"/>
<path d="M329.639 104.647L352.544 95.3526L357.912 91.4205L374.017 162.555L381.533 89.2757L411.237 104.647L401.217 153.261L399.785 171.849L404.08 186.863C404.08 186.863 419.111 197.587 414.101 209.025C409.09 220.464 403.364 221.179 403.364 221.179C403.364 221.179 379.027 198.301 377.596 192.582C376.164 186.863 374.017 176.854 374.017 176.854C374.017 176.854 361.849 222.609 347.533 221.894C333.218 221.179 333.218 206.166 333.218 206.166L336.796 190.437L342.523 173.994L339.66 146.827L329.639 104.647Z" fill="#2F2E41"/>
</g>
<defs>
<clipPath id="clip0">
<rect width="535" height="381" fill="white"/>
</clipPath>
</defs>
</svg>
