<svg width="478" height="310" viewBox="0 0 478 310" fill="none" xmlns="http://www.w3.org/2000/svg">
<path d="M64.3712 310C99.9225 310 128.742 305.388 128.742 299.699C128.742 294.01 99.9225 289.398 64.3712 289.398C28.82 289.398 0 294.01 0 299.699C0 305.388 28.82 310 64.3712 310Z" fill="#F2F2F2"/>
<path d="M378.399 299.529C433.407 299.529 478 292.393 478 283.59C478 274.787 433.407 267.651 378.399 267.651C323.39 267.651 278.797 274.787 278.797 283.59C278.797 292.393 323.39 299.529 378.399 299.529Z" fill="#F2F2F2"/>
<path d="M356.269 130.386C356.269 130.386 357.117 133.213 352.312 135.757C347.507 138.301 346.093 147.913 351.746 150.74C357.4 153.567 359.096 157.243 356.269 159.787C353.442 162.331 348.355 169.116 355.138 170.812C361.922 172.509 362.77 175.901 360.791 177.315C358.813 178.728 365.314 174.77 365.314 174.77C365.314 174.77 366.445 181.555 372.38 179.859C378.316 178.163 394.993 145.934 386.513 141.411C378.034 136.888 356.269 130.386 356.269 130.386Z" fill="#2F2E41"/>
<path d="M366.514 157.684C366.514 157.684 369.446 167.947 364.315 168.681C361.131 169.177 358.113 170.434 355.519 172.346L365.048 184.809H382.64L393.635 173.812C393.635 173.812 378.975 162.816 381.907 156.217C384.839 149.619 366.514 157.684 366.514 157.684Z" fill="#FFB9B9"/>
<path opacity="0.1" d="M366.514 157.684C366.514 157.684 369.446 167.947 364.315 168.681C361.131 169.177 358.113 170.434 355.519 172.346L365.048 184.809H382.64L393.635 173.812C393.635 173.812 378.975 162.816 381.907 156.217C384.839 149.619 366.514 157.684 366.514 157.684Z" fill="black"/>
<path d="M370.912 285.247L387.771 291.112L399.499 291.845L398.766 281.581L374.577 274.426L370.912 285.247Z" fill="#FFB9B9"/>
<path d="M392.535 283.048C392.535 283.048 392.535 293.311 394.001 293.311C395.467 293.311 415.259 291.112 421.123 293.311C426.987 295.511 435.783 287.446 431.385 283.048C426.987 278.649 419.813 272.051 415.337 273.517C410.86 274.983 392.535 278.649 392.535 278.649V283.048Z" fill="#575A89"/>
<path d="M338.66 273.517C338.66 273.517 329.864 291.112 335.728 292.578C341.592 294.045 348.189 291.845 348.922 291.112C349.655 290.379 359.917 287.446 361.383 288.913C362.849 290.379 362.849 283.048 362.849 283.048L338.66 273.517Z" fill="#575A89"/>
<path d="M345.99 249.324C345.99 249.324 332.063 268.385 342.325 273.517C352.587 278.649 401.698 278.649 405.363 273.517C409.028 268.385 410.494 252.256 405.363 250.79C400.232 249.324 345.99 249.324 345.99 249.324Z" fill="#2F2E41"/>
<path opacity="0.2" d="M345.99 249.324C345.99 249.324 332.063 268.385 342.325 273.517C352.587 278.649 401.698 278.649 405.363 273.517C409.028 268.385 410.494 252.256 405.363 250.79C400.232 249.324 345.99 249.324 345.99 249.324Z" fill="black"/>
<path d="M372.378 162.815C381.689 162.815 389.237 155.266 389.237 145.954C389.237 136.641 381.689 129.092 372.378 129.092C363.067 129.092 355.519 136.641 355.519 145.954C355.519 155.266 363.067 162.815 372.378 162.815Z" fill="#FFB9B9"/>
<path d="M345.99 172.346L360.65 169.414C360.65 169.414 364.315 181.144 376.043 178.944C387.771 176.745 390.703 169.414 390.703 169.414C390.703 169.414 399.499 173.079 400.232 173.079C400.965 173.079 410.494 176.745 410.494 178.944C410.494 181.144 399.499 203.137 399.499 203.137L400.965 242.726L346.723 241.26L350.388 202.404L345.99 172.346Z" fill="#125D98"/>
<path d="M337.927 191.407C337.927 191.407 333.528 230.263 336.461 233.195C339.393 236.128 351.121 244.192 351.121 244.192V235.395L345.257 224.398L351.121 198.738L337.927 191.407Z" fill="#FFB9B9"/>
<path d="M413.793 190.308C413.793 190.308 411.227 230.263 411.227 231.729C411.227 233.195 404.63 238.327 402.431 238.327C400.232 238.327 398.766 234.662 398.766 234.662L403.897 228.797L400.232 198.739L413.793 190.308Z" fill="#FFB9B9"/>
<path d="M406.829 246.392C406.829 246.392 439.814 228.063 440.547 246.392C441.28 264.72 423.688 272.051 423.688 272.051C423.688 272.051 378.242 285.681 376.409 280.699C374.577 275.716 370.912 267.652 373.844 266.919C376.776 266.186 380.441 264.72 381.907 266.186C383.373 267.652 401.698 255.189 401.698 255.189L406.829 246.392Z" fill="#2F2E41"/>
<path opacity="0.2" d="M422.222 244.192C422.222 244.192 415.625 247.125 413.426 249.324C411.227 251.523 401.698 255.189 401.698 255.189" stroke="black" stroke-width="2" stroke-miterlimit="10"/>
<path d="M350.388 173.812L345.99 172.346C345.99 172.346 329.864 189.208 334.995 193.607C340.126 198.005 343.058 199.472 344.524 200.938C345.99 202.404 353.32 203.137 353.32 203.137L350.388 173.812Z" fill="#125D98"/>
<path d="M403.897 177.478L410.494 178.944C410.494 178.944 415.625 189.941 417.091 191.407C418.557 192.874 414.892 192.14 412.693 195.073C410.494 198.005 408.295 203.137 403.897 203.137C399.499 203.137 393.635 195.806 393.635 195.806L403.897 177.478Z" fill="#125D98"/>
<path d="M347.456 252.99C347.456 252.99 319.602 233.195 310.072 247.858C300.543 262.52 351.121 282.315 358.451 285.247C365.781 288.18 372.378 291.112 372.378 291.112C372.378 291.112 378.975 274.983 378.975 272.051C378.975 269.118 373.844 269.118 372.378 269.118C370.912 269.118 364.315 267.652 362.849 265.453C361.383 263.253 347.456 252.99 347.456 252.99Z" fill="#2F2E41"/>
<path opacity="0.2" d="M332.063 247.858C332.063 247.858 339.393 253.723 345.99 255.189C352.587 256.655 354.786 260.321 354.786 260.321" stroke="black" stroke-width="2" stroke-miterlimit="10"/>
<path d="M342.399 220.293L342.985 251.333C343.004 252.359 343.428 253.335 344.164 254.049C344.9 254.763 345.888 255.157 346.913 255.146L404.669 254.497C405.653 254.486 406.596 254.101 407.308 253.422C408.02 252.742 408.447 251.818 408.504 250.835L410.257 220.443C410.288 219.915 410.21 219.386 410.029 218.889C409.847 218.392 409.567 217.937 409.204 217.552C408.84 217.167 408.402 216.861 407.917 216.651C407.431 216.442 406.907 216.333 406.378 216.333H346.284C345.768 216.333 345.256 216.436 344.78 216.636C344.304 216.836 343.873 217.129 343.511 217.498C343.149 217.866 342.865 218.303 342.674 218.783C342.483 219.263 342.39 219.776 342.399 220.293Z" fill="#575A89"/>
<path d="M373.279 124.772C373.279 124.772 374.218 127.904 368.895 130.722C363.572 133.541 362.006 144.189 368.268 147.321C374.531 150.453 376.41 154.524 373.279 157.343C370.147 160.161 364.511 167.677 372.026 169.557C379.541 171.436 380.481 175.194 378.289 176.76C376.097 178.326 383.299 173.941 383.299 173.941C383.299 173.941 384.551 181.457 391.127 179.578C397.703 177.699 404.264 143.542 396.934 134.745C390.118 126.564 373.279 124.772 373.279 124.772Z" fill="#2F2E41"/>
<path d="M371.278 121.548C371.28 116.96 385.004 120.257 390.889 126.663C394.964 131.099 401.153 137.774 395.967 142.478C390.78 147.183 404.857 153.35 408.632 155.22C412.407 157.09 419.861 162.808 413.13 166.644C406.4 170.48 406.509 174.352 409.042 175.269C411.574 176.186 403.457 173.906 403.457 173.906C403.457 173.906 404.277 181.481 397.439 181.445C390.6 181.409 370.98 143.819 375.667 133.371C380.025 123.656 371.278 121.548 371.278 121.548Z" fill="#2F2E41"/>
<path d="M374.251 120.543C355.898 119.437 354.056 133.255 354.056 133.255C354.183 141.251 366.879 137.355 370.405 138.547C374.66 135.486 382.86 129.695 388.725 125.562C384.467 122.563 379.451 120.824 374.251 120.543Z" fill="#2F2E41"/>
<path d="M369.022 208.716C369.022 208.716 352.559 131.545 249.512 75.5637" stroke="#2F2E41" stroke-width="2" stroke-miterlimit="10"/>
<path d="M253.758 73.8805L253.964 74.7266L249.796 75.7376L251.109 79.8219L250.28 80.0877L248.682 75.1129L253.758 73.8805Z" fill="white"/>
<path d="M91.6738 285.035L94.4495 282.972C94.4495 282.972 96.2869 293.237 94.2366 294.775C92.1864 296.313 84.498 298.876 84.498 301.952C84.498 305.028 67.0709 309.129 66.5583 304.515C66.0458 299.901 68.096 297.338 68.096 297.338C68.096 297.338 76.297 289.136 77.3221 287.598C78.3472 286.06 80.91 282.984 80.91 282.984L91.6738 285.035Z" fill="#2F2E41"/>
<path d="M50.6689 157.386C50.6689 157.386 50.7458 157.838 50.879 158.663C51.0021 159.396 51.1712 160.432 51.3763 161.708C53.5291 174.847 59.808 213.526 59.3825 214.803C58.8699 216.34 55.282 221.98 59.3825 223.517C59.7772 223.666 60.2026 224.148 60.6588 224.907C61.5392 226.541 62.2651 228.254 62.8269 230.023C65.2718 237.118 67.8859 248.473 69.3979 256.337C70.0592 259.792 70.5102 262.571 70.6434 264.027C70.6898 264.363 70.6949 264.704 70.6588 265.042C70.1463 267.092 73.7342 274.269 75.2719 276.32C76.8095 278.37 79.3724 280.421 78.8598 282.472C78.3472 284.522 91.6738 290.161 93.2115 286.573C94.7492 282.984 94.7492 280.934 95.2617 279.908C95.7743 278.883 96.2869 271.706 93.7241 270.681C91.1613 269.655 92.6989 251.713 90.1361 248.124C89.2802 246.93 87.9731 242.885 86.6046 238.02C86.0664 236.113 85.5231 234.083 84.99 232.048C82.827 223.707 80.91 215.315 80.91 215.315L81.4226 155.336L53.2317 151.747L52.5091 153.342L51.0688 156.505L50.6689 157.386Z" fill="#2F2E41"/>
<path d="M49.1316 255.814C49.1316 255.814 45.0311 251.713 42.9809 255.814C40.9307 259.915 38.8804 275.807 35.2925 279.396C31.7046 282.984 27.0915 300.927 32.2171 301.952C37.3427 302.977 42.9809 300.414 43.4935 297.338C44.006 294.262 54.7698 278.37 54.7698 276.832C54.7698 275.295 47.5939 269.655 47.5939 269.655L49.1316 255.814Z" fill="#2F2E41"/>
<path d="M112.176 129.191C112.176 129.191 105.513 189.17 103.975 194.809C102.438 200.448 94.2368 221.98 91.674 225.568C89.1112 229.157 72.7092 258.377 70.659 259.915C68.6087 261.453 64.5083 265.554 64.5083 265.554C64.5083 265.554 56.8198 273.244 55.7947 274.782C54.7696 276.32 46.0561 271.706 45.5435 268.63C45.0309 265.554 46.0561 260.428 46.5686 258.377C47.0812 256.327 45.5435 253.251 47.0812 251.713C48.6189 250.175 56.3073 242.485 56.3073 238.897C56.3073 235.308 69.6339 214.29 74.7595 209.676C79.8851 205.062 78.86 197.373 78.86 197.373V166.101L50.6691 157.386C50.6691 157.386 52.2068 132.779 55.7947 132.779C59.3827 132.779 106.538 124.577 112.176 129.191Z" fill="#2F2E41"/>
<path d="M70.6586 43.5795C80.0003 43.5795 87.5732 36.0053 87.5732 26.6622C87.5732 17.3191 80.0003 9.74493 70.6586 9.74493C61.317 9.74493 53.7441 17.3191 53.7441 26.6622C53.7441 36.0053 61.317 43.5795 70.6586 43.5795Z" fill="#ECB3B3"/>
<path d="M76.2968 39.991C76.2968 39.991 78.3471 47.6806 80.9099 49.7312C83.4727 51.7818 74.2466 60.4967 74.2466 60.4967L56.8195 61.522L53.7441 51.7818C53.7441 51.7818 59.3823 40.5036 57.8446 33.3266C56.3069 26.1496 76.2968 39.991 76.2968 39.991Z" fill="#ECB3B3"/>
<path d="M83.4728 48.7059C83.4728 48.7059 78.8598 49.2186 77.8347 50.7565C76.8095 52.2944 69.6337 56.9082 63.9955 55.883C58.3574 54.8577 54.7694 53.3197 53.7443 53.8324C52.7192 54.345 50.6689 65.1105 50.6689 65.1105L56.3071 81.5151L55.282 126.628L53.7443 138.931C53.7443 138.931 50.6689 134.83 62.9704 137.393C75.2719 139.957 91.1613 135.343 96.2869 134.83C101.412 134.317 110.126 132.78 110.639 129.704C111.151 126.628 109.101 115.35 109.101 115.35L100.9 81.0025L95.7743 62.5473L83.4728 48.7059Z" fill="#125D98"/>
<path d="M78.625 46.3921C78.625 46.3921 82.9607 44.0921 84.4984 46.1427C86.0361 48.1932 105.513 51.2691 105.513 52.807C105.513 54.345 109.614 95.8691 108.589 99.4577C107.564 103.046 110.639 107.147 110.639 107.147L114.227 122.527C114.227 122.527 123.966 151.747 119.865 152.773C115.765 153.798 112.177 152.773 110.639 152.773C109.101 152.773 109.614 133.292 105.513 128.166C101.413 123.039 95.7747 110.223 94.7496 107.66C93.7245 105.097 80.9105 69.7243 81.423 65.6231C81.9356 61.522 78.625 46.3921 78.625 46.3921Z" fill="#D0CDE1"/>
<path d="M57.3322 48.7059C57.3322 48.7059 53.2318 48.7059 52.7192 49.7312C52.2066 50.7565 47.081 57.4209 45.0308 58.9588C42.9805 60.4968 35.8047 67.1611 35.8047 68.699C35.8047 70.237 50.669 81.5151 50.669 81.5151C50.669 81.5151 56.8197 111.761 53.7443 122.014C50.6689 132.267 46.0559 156.874 48.1061 158.412C50.1564 159.95 54.7694 160.462 54.7694 158.412C54.7694 156.361 57.8448 134.317 60.4076 129.704C62.9704 125.09 70.6588 95.8692 67.5835 87.6669C64.5081 79.4646 57.3322 48.7059 57.3322 48.7059Z" fill="#D0CDE1"/>
<path d="M124.99 99.4576C124.99 99.4576 125.503 115.35 119.865 123.552C114.227 131.754 110.639 140.982 110.639 140.982C110.639 140.982 101.413 138.419 99.875 135.343C98.3373 132.267 88.5986 134.83 88.5986 133.805C88.5986 132.779 100.388 127.653 101.413 126.628C102.438 125.602 106.026 125.602 108.076 123.552C110.126 121.501 110.639 116.888 110.639 116.888L112.689 103.559L124.99 99.4576Z" fill="#ECB3B3"/>
<path d="M82.3085 16.2314C83.6097 16.1132 84.9518 15.9831 86.1018 15.3628C88.6787 13.9729 89.362 10.0148 87.4003 7.84115C86.8595 7.28808 86.2545 6.80157 85.5983 6.39195L81.7022 3.7396C79.979 2.56653 78.2151 1.37424 76.2053 0.821232C74.3875 0.32106 72.4676 0.372461 70.5859 0.489444C66.933 0.71652 63.2575 1.18558 59.8217 2.44699C56.3859 3.70841 53.1809 5.81872 51.1001 8.83006C47.8013 13.604 47.7559 20.0424 49.5728 25.5536C51.3897 31.0649 54.841 35.864 58.2417 40.5659L60.0062 31.9549C60.1633 31.1879 60.3666 30.3474 61.0044 29.8934C62.5895 28.7652 64.5285 31.0816 66.474 31.0666C67.7241 31.057 68.7736 30.0286 69.2473 28.8716C69.721 27.7146 69.7522 26.4332 69.8618 25.1878C70.094 22.5498 71.0159 18.8792 73.5137 17.4243C75.8412 16.0686 79.6922 16.4691 82.3085 16.2314Z" fill="#2F2E41"/>
<path opacity="0.1" d="M81.3598 157.8C81.3598 157.8 79.6287 207.882 78.6036 209.42C77.5784 210.958 78.6036 157.643 78.6036 157.643L81.3598 157.8Z" fill="black"/>
<path d="M101.413 52.807H105.513C105.513 52.807 122.94 76.3886 120.89 77.9266C118.84 79.4645 120.89 83.5657 120.89 83.5657L124.99 91.2553C124.99 91.2553 130.116 95.8691 128.578 96.8944C127.041 97.9197 124.99 102.021 124.99 102.021C124.99 102.021 114.739 100.483 111.664 106.635L105.016 98.2408L101.413 52.807Z" fill="#D0CDE1"/>
<path d="M102.861 60.3921L88.791 66.2034L99.6187 92.4284L113.689 86.6171L102.861 60.3921Z" fill="#2F2E41"/>
<path d="M101.213 75.7732C102.767 75.1313 103.549 73.4533 102.959 72.0254C102.37 70.5974 100.632 69.9601 99.0778 70.602C97.5236 71.2439 96.7416 72.9219 97.3312 74.3499C97.9208 75.7778 99.6586 76.4151 101.213 75.7732Z" fill="#125D98"/>
<path d="M91.1612 93.8185C91.1612 93.8185 54.2568 124.577 48.106 114.837C41.9553 105.097 54.7693 96.8944 54.7693 96.8944C54.7693 96.8944 66.0457 97.407 78.8597 89.2047L91.6737 83.5657C91.6737 83.5657 103.372 66.8616 107.358 73.2224C111.345 79.5831 100.554 90.6535 91.1612 93.8185Z" fill="#ECB3B3"/>
<path d="M41.4428 66.6484L35.8046 68.699V84.0783L33.7544 87.1542C33.7544 87.1542 34.267 93.3059 35.8046 94.8439C37.3423 96.3818 40.4177 95.8691 39.3926 99.4576C38.7765 101.797 38.6026 104.231 38.88 106.635C38.88 106.635 48.1061 118.425 48.6187 116.888C49.1312 115.35 56.3071 96.3818 57.3322 96.3818C58.3573 96.3818 47.081 66.6484 47.081 66.6484H41.4428Z" fill="#D0CDE1"/>
<path d="M108.845 144.314C108.845 144.314 114.144 139.188 111.494 138.931C108.845 138.675 99.6185 133.548 98.0808 136.112C96.5431 138.675 108.845 144.314 108.845 144.314Z" fill="#2F2E41"/>
<path d="M209.642 46.5223C213.725 46.5223 217.036 44.7695 217.036 42.6072C217.036 40.445 213.725 38.6921 209.642 38.6921C205.558 38.6921 202.248 40.445 202.248 42.6072C202.248 44.7695 205.558 46.5223 209.642 46.5223Z" fill="#57B894"/>
<path d="M237.913 55.6576C221.24 49.3596 204.567 49.3596 187.895 55.6576V35.212C204.204 30.2897 221.603 30.2897 237.913 35.212V55.6576Z" stroke="#2F2E41" stroke-width="2" stroke-miterlimit="10"/>
<path d="M230.954 51.4293C218.92 46.8838 206.887 46.8838 194.854 51.4293V36.6729C206.625 33.1203 219.182 33.1203 230.954 36.6729V51.4293Z" stroke="#2F2E41" stroke-width="2" stroke-miterlimit="10"/>
<path d="M212.251 44.7822C216.335 44.7822 219.645 43.0294 219.645 40.8671C219.645 38.7049 216.335 36.952 212.251 36.952C208.168 36.952 204.857 38.7049 204.857 40.8671C204.857 43.0294 208.168 44.7822 212.251 44.7822Z" stroke="#2F2E41" stroke-width="2" stroke-miterlimit="10"/>
<path d="M215.078 71.0411C219.079 70.2244 221.972 67.8449 221.54 65.7263C221.108 63.6077 217.514 62.5524 213.513 63.3691C209.512 64.1859 206.619 66.5654 207.051 68.684C207.483 70.8026 211.077 71.8579 215.078 71.0411Z" fill="#57B894"/>
<path d="M244.605 74.3374C227.01 71.5013 210.674 74.836 195.597 84.3414L191.509 64.3088C206.505 56.2239 223.553 52.744 240.517 54.3049L244.605 74.3374Z" stroke="#2F2E41" stroke-width="2" stroke-miterlimit="10"/>
<path d="M236.941 71.5864C224.242 69.5395 212.452 71.9463 201.57 78.8067L198.62 64.3484C209.443 58.5132 221.747 56.0016 233.991 57.1282L236.941 71.5864Z" stroke="#2F2E41" stroke-width="2" stroke-miterlimit="10"/>
<path d="M217.287 68.8143C221.288 67.9975 224.181 65.618 223.749 63.4994C223.317 61.3808 219.723 60.3255 215.722 61.1422C211.721 61.959 208.828 64.3385 209.26 66.4571C209.692 68.5757 213.286 69.631 217.287 68.8143Z" stroke="#2F2E41" stroke-width="2" stroke-miterlimit="10"/>
<path d="M220.138 92.0527C220.288 89.8957 217.108 87.9172 213.034 87.6337C208.96 87.3502 205.536 88.8689 205.386 91.026C205.236 93.183 208.417 95.1615 212.49 95.445C216.564 95.7285 219.988 94.2097 220.138 92.0527Z" fill="#57B894"/>
<path d="M240.059 106.521C223.864 99.0807 207.231 97.9231 190.162 103.048L191.581 82.6521C208.193 78.874 225.55 80.0821 241.478 86.1249L240.059 106.521Z" stroke="#2F2E41" stroke-width="2" stroke-miterlimit="10"/>
<path d="M233.41 101.82C221.722 96.4499 209.717 95.6144 197.397 99.3134L198.422 84.5927C210.411 81.8659 222.938 82.7378 234.435 87.0991L233.41 101.82Z" stroke="#2F2E41" stroke-width="2" stroke-miterlimit="10"/>
<path d="M222.862 90.4981C223.013 88.3411 219.832 86.3626 215.758 86.0791C211.684 85.7955 208.26 87.3143 208.11 89.4714C207.96 91.6284 211.141 93.6069 215.215 93.8904C219.288 94.1739 222.712 92.6551 222.862 90.4981Z" stroke="#2F2E41" stroke-width="2" stroke-miterlimit="10"/>
<path d="M180.467 56.1322C180.467 56.1322 148.5 51.7583 125.672 65.1387" stroke="#2F2E41" stroke-width="2" stroke-miterlimit="10"/>
<path d="M126.441 60.6422L127.271 60.905L125.973 64.9936L130.146 65.9894L129.943 66.8363L124.861 65.6222L126.441 60.6422Z" fill="white"/>
</svg>
