<svg width="496" height="354" viewBox="0 0 496 354" fill="none" xmlns="http://www.w3.org/2000/svg">
<g clip-path="url(#clip0)">
<path d="M79.1725 302.657C79.1725 316.834 70.743 321.784 60.3454 321.784C60.1034 321.784 59.8626 321.782 59.6231 321.775C59.1416 321.765 58.664 321.744 58.1929 321.71C48.8082 321.046 41.5171 315.841 41.5171 302.657C41.5171 289.014 58.9519 271.798 60.2669 270.52L60.2695 270.519C60.3193 270.469 60.3454 270.444 60.3454 270.444C60.3454 270.444 79.1725 288.479 79.1725 302.657Z" fill="#3F3D56"/>
<path d="M59.6585 319.615L66.5453 309.995L59.6415 320.671L59.6232 321.775C59.1417 321.765 58.6641 321.744 58.193 321.71L58.9349 307.526L58.9297 307.417L58.9428 307.396L59.0121 306.056L52.0913 295.353L59.033 305.051L59.05 305.335L59.6114 294.619L53.6864 283.56L59.6834 292.736L60.267 270.52L60.2696 270.444V270.519L60.1728 288.038L66.0703 281.093L60.1479 289.547L59.9922 299.142L65.4998 289.934L59.9686 300.555L59.8823 305.889L67.8773 293.071L59.8522 307.75L59.6585 319.615Z" fill="#F2F2F2"/>
<path d="M318.377 220.682C313.347 202.426 285.417 188.97 263.623 185.497V176.728C264.026 176.578 264.427 176.423 264.825 176.264C264.711 174.512 264.359 172.783 263.778 171.125C273.087 167.341 281.126 160.984 286.953 152.799C293.086 146.381 297.708 138.675 300.481 130.243C303.253 121.811 304.107 112.866 302.979 104.062C301.851 95.2579 298.771 86.8168 293.962 79.3556C289.153 71.8944 282.738 65.6016 275.185 60.9369C277.257 59.631 278.866 57.7079 279.786 55.4388C280.705 53.1696 280.89 50.669 280.312 48.2897C279.734 45.9104 278.424 43.7724 276.566 42.1774C274.708 40.5824 272.396 39.6109 269.957 39.3998C271.948 34.6974 272.305 29.4629 270.969 24.5338C269.634 19.6047 266.683 15.266 262.59 12.2118C258.496 9.15768 253.496 7.56462 248.39 7.68752C243.284 7.81043 238.367 9.6422 234.425 12.8898C237.902 11.0399 241.799 10.1216 245.736 10.2241C249.674 10.3266 253.518 11.4464 256.894 13.4747C260.27 15.5029 263.064 18.3705 265.003 21.7983C266.942 25.2261 267.96 29.0974 267.959 33.0355C267.959 33.2358 267.947 33.4331 267.942 33.6322C267.843 30.3291 267.026 27.0871 265.55 24.1304C264.074 21.1737 261.973 18.5729 259.393 16.5079C256.813 14.4429 253.814 12.9629 250.606 12.1704C247.397 11.3779 244.054 11.2917 240.809 11.9179C237.564 12.544 234.493 13.8675 231.81 15.7969C229.126 17.7262 226.894 20.2153 225.268 23.092C223.641 25.9687 222.659 29.1644 222.389 32.4579C222.119 35.7515 222.568 39.0643 223.705 42.1673C221.962 42.5441 220.331 43.3241 218.944 44.4448C217.557 45.5655 216.452 46.9957 215.717 48.6206C214.983 50.2455 214.64 52.0199 214.715 53.8014C214.791 55.5829 215.283 57.3219 216.152 58.8789C207.894 63.2173 200.77 69.4334 195.352 77.0269C189.935 84.6204 186.376 93.3792 184.963 102.599C183.549 111.818 184.319 121.241 187.212 130.108C190.105 138.976 195.039 147.04 201.618 153.653C207.161 161.121 214.575 166.995 223.113 170.684V185.301C201.089 188.447 172.085 202.152 167.018 220.858C162.601 237.159 157.887 255.062 155.542 265.572C175.647 279.697 217.833 287.991 244.272 287.991C269.392 287.991 310.449 280.505 329.962 267.644C327.849 256.095 322.986 237.406 318.377 220.682ZM278.103 52.0515C278.103 52.2593 278.094 52.4649 278.083 52.6699C277.936 50.0921 276.918 47.6406 275.197 45.7158C273.476 43.791 271.153 42.5067 268.607 42.0728C268.828 41.6987 269.039 41.318 269.239 40.9309C271.757 41.5079 274.005 42.922 275.615 44.942C277.225 46.962 278.102 49.4685 278.103 52.0515Z" fill="url(#paint0_linear)"/>
<path d="M244.229 283.998C268.633 283.998 308.521 276.726 327.478 264.231C325.425 253.011 320.7 234.855 316.223 218.607C310.521 197.914 274.534 183.568 253.066 183.568H232.379C210.844 183.568 174.805 197.997 169.175 218.778C164.884 234.615 160.304 252.007 158.025 262.219C177.558 275.941 218.543 283.998 244.229 283.998Z" fill="#0D3B66"/>
<path d="M243.836 170.552C275.812 170.552 301.733 144.636 301.733 112.666C301.733 80.6963 275.812 54.7798 243.836 54.7798C211.861 54.7798 185.94 80.6963 185.94 112.666C185.94 144.636 211.861 170.552 243.836 170.552Z" fill="#2F2E41"/>
<path d="M228.205 152.902H258.497C259.699 152.902 260.852 153.38 261.701 154.23C262.551 155.08 263.029 156.232 263.029 157.434V188.401C263.029 190.845 262.548 193.264 261.612 195.521C260.677 197.779 259.306 199.83 257.578 201.558C255.85 203.286 253.799 204.656 251.541 205.591C249.283 206.526 246.863 207.008 244.419 207.008H242.283C239.839 207.008 237.419 206.526 235.161 205.591C232.903 204.656 230.852 203.286 229.124 201.558C227.395 199.83 226.025 197.779 225.089 195.521C224.154 193.264 223.673 190.845 223.673 188.401V157.434C223.673 156.839 223.79 156.25 224.018 155.7C224.246 155.15 224.579 154.651 225 154.23C225.421 153.809 225.921 153.475 226.471 153.247C227.021 153.02 227.61 152.902 228.205 152.902Z" fill="#FDA57D"/>
<path opacity="0.05" d="M245.169 179.12C251.687 179.124 258.146 177.88 264.197 175.454C263.887 170.677 261.77 166.196 258.277 162.921C254.784 159.647 250.176 157.823 245.387 157.821H243.774C239.065 157.822 234.527 159.584 231.051 162.76C227.575 165.936 225.413 170.297 224.989 174.986C231.365 177.721 238.231 179.128 245.169 179.12Z" fill="black"/>
<path d="M243.939 174.201C272.228 174.201 295.16 151.273 295.16 122.99C295.16 94.7063 272.228 71.7781 243.939 71.7781C215.651 71.7781 192.718 94.7063 192.718 122.99C192.718 151.273 215.651 174.201 243.939 174.201Z" fill="#FDA57D"/>
<path d="M226.59 67.0961C232.713 67.0961 237.677 62.1333 237.677 56.0115C237.677 49.8896 232.713 44.9269 226.59 44.9269C220.468 44.9269 215.504 49.8896 215.504 56.0115C215.504 62.1333 220.468 67.0961 226.59 67.0961Z" fill="#2F2E41"/>
<path d="M266.009 67.0961C272.132 67.0961 277.096 62.1333 277.096 56.0115C277.096 49.8896 272.132 44.9269 266.009 44.9269C259.886 44.9269 254.923 49.8896 254.923 56.0115C254.923 62.1333 259.886 67.0961 266.009 67.0961Z" fill="#2F2E41"/>
<path d="M245.068 59.7063C257.314 59.7063 267.241 49.7808 267.241 37.5371C267.241 25.2934 257.314 15.3679 245.068 15.3679C232.822 15.3679 222.895 25.2934 222.895 37.5371C222.895 49.7808 232.822 59.7063 245.068 59.7063Z" fill="#2F2E41"/>
<path d="M268.473 42.4636C266.269 42.4603 264.114 43.1172 262.286 44.3497C264.83 43.4411 267.618 43.4926 270.126 44.4944C272.634 45.4963 274.69 47.3796 275.907 49.7904C277.124 52.2011 277.419 54.9733 276.736 57.586C276.052 60.1987 274.438 62.4719 272.197 63.9784C274.657 63.1022 276.729 61.385 278.047 59.1299C279.365 56.8747 279.843 54.2267 279.398 51.6532C278.952 49.0797 277.612 46.7463 275.613 45.0649C273.614 43.3835 271.085 42.4622 268.473 42.4636Z" fill="#2F2E41"/>
<path d="M248.764 11.6731C243.617 11.6653 238.629 13.4552 234.662 16.7336C239.515 14.1542 245.153 13.4686 250.482 14.81C255.812 16.1514 260.453 19.4241 263.506 23.9934C266.559 28.5626 267.806 34.1026 267.005 39.5388C266.203 44.975 263.411 49.9199 259.17 53.4144C263.539 51.0932 267.006 47.3777 269.019 42.8591C271.032 38.3404 271.475 33.2784 270.279 28.4787C269.082 23.6789 266.314 19.4172 262.416 16.3719C258.517 13.3265 253.711 11.6725 248.764 11.6731Z" fill="#2F2E41"/>
<path d="M206.881 76.949C206.881 76.949 213.04 117.593 290.646 95.4234L252.459 62.1696L206.881 76.949Z" fill="#2F2E41"/>
<path d="M76.5911 309.708H44.7032C38.7731 309.708 33.9658 314.514 33.9658 320.443V321.676C33.9658 327.605 38.7731 332.411 44.7032 332.411H76.5911C82.5212 332.411 87.3284 327.605 87.3284 321.676V320.443C87.3284 314.514 82.5212 309.708 76.5911 309.708Z" fill="#0D3B66"/>
<g opacity="0.7">
<path opacity="0.7" d="M446.948 295.205V287.024H406.037V324.86C406.037 326.976 406.877 329.004 408.373 330.5C409.869 331.996 411.899 332.837 414.014 332.837H438.97C441.086 332.837 443.115 331.996 444.611 330.5C446.107 329.004 446.948 326.976 446.948 324.86V316.475C449.769 316.475 452.475 315.354 454.47 313.36C456.464 311.365 457.585 308.66 457.585 305.84C457.585 303.019 456.464 300.314 454.47 298.32C452.475 296.325 449.769 295.205 446.948 295.205ZM446.948 312.384V299.295C448.683 299.297 450.346 299.987 451.572 301.214C452.798 302.442 453.487 304.105 453.487 305.84C453.487 307.574 452.798 309.238 451.572 310.465C450.346 311.692 448.683 312.383 446.948 312.384Z" fill="url(#paint1_linear)"/>
</g>
<path d="M445.632 296.485C443.711 296.485 441.833 297.055 440.236 298.122C438.639 299.189 437.394 300.705 436.659 302.48C435.924 304.254 435.732 306.206 436.107 308.09C436.481 309.974 437.406 311.704 438.764 313.062C440.123 314.42 441.853 315.345 443.737 315.719C445.621 316.094 447.574 315.902 449.348 315.167C451.123 314.432 452.64 313.187 453.707 311.59C454.774 309.994 455.344 308.116 455.344 306.196C455.344 304.92 455.093 303.658 454.605 302.48C454.117 301.302 453.401 300.231 452.499 299.329C451.597 298.428 450.527 297.712 449.348 297.224C448.17 296.737 446.907 296.485 445.632 296.485ZM445.632 312.171C444.45 312.171 443.294 311.821 442.311 311.164C441.329 310.508 440.563 309.574 440.11 308.482C439.658 307.39 439.54 306.189 439.77 305.03C440.001 303.871 440.57 302.806 441.406 301.97C442.242 301.135 443.307 300.565 444.466 300.335C445.625 300.104 446.827 300.223 447.919 300.675C449.011 301.127 449.945 301.893 450.601 302.876C451.258 303.858 451.608 305.014 451.608 306.196C451.608 307.78 450.979 309.3 449.858 310.421C448.737 311.542 447.217 312.171 445.632 312.171Z" fill="#0D3B66"/>
<path opacity="0.1" d="M445.632 296.485C443.711 296.485 441.833 297.055 440.236 298.122C438.639 299.189 437.394 300.705 436.659 302.48C435.924 304.254 435.732 306.206 436.107 308.09C436.481 309.974 437.406 311.704 438.764 313.062C440.123 314.42 441.853 315.345 443.737 315.719C445.621 316.094 447.574 315.902 449.348 315.167C451.123 314.432 452.64 313.187 453.707 311.59C454.774 309.994 455.344 308.116 455.344 306.196C455.344 304.92 455.093 303.658 454.605 302.48C454.117 301.302 453.401 300.231 452.499 299.329C451.597 298.428 450.527 297.712 449.348 297.224C448.17 296.737 446.907 296.485 445.632 296.485ZM445.632 312.171C444.45 312.171 443.294 311.821 442.311 311.164C441.329 310.508 440.563 309.574 440.11 308.482C439.658 307.39 439.54 306.189 439.77 305.03C440.001 303.871 440.57 302.806 441.406 301.97C442.242 301.135 443.307 300.565 444.466 300.335C445.625 300.104 446.827 300.223 447.919 300.675C449.011 301.127 449.945 301.893 450.601 302.876C451.258 303.858 451.608 305.014 451.608 306.196C451.608 307.78 450.979 309.3 449.858 310.421C448.737 311.542 447.217 312.171 445.632 312.171Z" fill="#0D3B66"/>
<path d="M408.278 289.016H445.632V323.524C445.632 325.465 444.86 327.328 443.487 328.7C442.114 330.073 440.251 330.845 438.309 330.845H415.6C413.658 330.845 411.796 330.073 410.422 328.7C409.049 327.328 408.278 325.465 408.278 323.524V289.016Z" fill="#0D3B66"/>
<path d="M484.853 330.845H0V347.277H484.853V330.845Z" fill="#E0E0E0"/>
<g opacity="0.7">
<path opacity="0.7" d="M334.634 212.131H150.22C144.206 212.131 139.33 217.006 139.33 223.019V319.957C139.33 325.97 144.206 330.845 150.22 330.845H334.634C340.648 330.845 345.523 325.97 345.523 319.957V223.019C345.523 217.006 340.648 212.131 334.634 212.131Z" fill="url(#paint2_linear)"/>
</g>
<path d="M321.635 214.321H163.219C152.088 214.321 143.065 223.343 143.065 234.471V310.695C143.065 321.823 152.088 330.845 163.219 330.845H321.635C332.765 330.845 341.788 321.823 341.788 310.695V234.471C341.788 223.343 332.765 214.321 321.635 214.321Z" fill="#535461"/>
<path d="M242.427 279.306C246.14 279.306 249.151 276.296 249.151 272.583C249.151 268.87 246.14 265.861 242.427 265.861C238.713 265.861 235.703 268.87 235.703 272.583C235.703 276.296 238.713 279.306 242.427 279.306Z" fill="white"/>
<path d="M464.309 347.278H20.5444V354H464.309V347.278Z" fill="#E0E0E0"/>
<path opacity="0.1" d="M464.309 347.278H20.5444V349.518H464.309V347.278Z" fill="black"/>
<path opacity="0.1" d="M438.908 289.016V323.562C438.908 325.493 438.141 327.346 436.775 328.712C435.409 330.077 433.556 330.845 431.624 330.845H435.359C437.291 330.845 439.144 330.077 440.51 328.712C441.876 327.346 442.643 325.493 442.643 323.562V289.016H438.908Z" fill="black"/>
<path d="M415.649 261.172C415.33 261.182 415.016 261.263 414.731 261.407C414.446 261.552 414.196 261.758 414 262.01C413.51 262.898 414.398 263.899 415.208 264.509C416.705 265.637 418.283 266.744 419.3 268.318C420.318 269.891 420.637 272.087 419.525 273.595C418.073 275.564 414.608 275.988 414.272 278.412C414.057 279.968 415.402 281.295 416.766 282.076C420.13 284.003 424.468 284.517 426.905 287.533C427.913 285.46 430.168 284.262 432.416 283.75C434.664 283.238 436.999 283.276 439.278 282.929C439.651 282.922 440.016 282.828 440.345 282.653C440.674 282.479 440.957 282.229 441.172 281.925C441.809 280.632 439.993 279.082 440.62 277.784C441.097 276.797 442.498 276.873 443.521 276.478C445.187 275.834 445.874 273.69 445.401 271.968C444.929 270.245 443.593 268.899 442.188 267.796C438.403 264.822 433.851 263.073 429.248 261.815C427.107 261.23 424.593 260.312 422.369 260.224C420.222 260.138 417.774 260.809 415.649 261.172Z" fill="#EEEEEE"/>
</g>
<defs>
<linearGradient id="paint0_linear" x1="242.752" y1="287.991" x2="242.752" y2="7.68091" gradientUnits="userSpaceOnUse">
<stop stop-color="#808080" stop-opacity="0.25"/>
<stop offset="0.53514" stop-color="#808080" stop-opacity="0.12"/>
<stop offset="1" stop-color="#808080" stop-opacity="0.1"/>
</linearGradient>
<linearGradient id="paint1_linear" x1="38735.1" y1="32759.7" x2="38735.1" y2="29964.5" gradientUnits="userSpaceOnUse">
<stop stop-color="#808080" stop-opacity="0.25"/>
<stop offset="0.53514" stop-color="#808080" stop-opacity="0.12"/>
<stop offset="1" stop-color="#808080" stop-opacity="0.1"/>
</linearGradient>
<linearGradient id="paint2_linear" x1="66699.2" y1="64692.9" x2="66699.2" y2="45924.1" gradientUnits="userSpaceOnUse">
<stop stop-color="#808080" stop-opacity="0.25"/>
<stop offset="0.53514" stop-color="#808080" stop-opacity="0.12"/>
<stop offset="1" stop-color="#808080" stop-opacity="0.1"/>
</linearGradient>
<clipPath id="clip0">
<rect width="496" height="354" fill="white"/>
</clipPath>
</defs>
</svg>
